<mxfile host="Electron" agent="Mozilla/5.0 (X11; Linux x86_64) AppleWebKit/537.36 (KHTML, like Gecko) draw.io/26.0.4 Chrome/128.0.6613.186 Electron/32.2.5 Safari/537.36" version="26.0.4" pages="9">
  <diagram name="ms1-overview" id="YkRPQbxP8StDCteQIV4W">
    <mxGraphModel dx="1569" dy="1066" grid="1" gridSize="10" guides="1" tooltips="1" connect="1" arrows="1" fold="1" page="1" pageScale="1" pageWidth="1600" pageHeight="900" math="0" shadow="0">
      <root>
        <mxCell id="rYeARVWWsd-ZoHAaEzfL-0" />
        <mxCell id="rYeARVWWsd-ZoHAaEzfL-1" parent="rYeARVWWsd-ZoHAaEzfL-0" />
        <mxCell id="rYeARVWWsd-ZoHAaEzfL-2" value="" style="rounded=1;whiteSpace=wrap;html=1;fillColor=#e1d5e7;strokeColor=#9673a6;" parent="rYeARVWWsd-ZoHAaEzfL-1" vertex="1">
          <mxGeometry x="720" y="20" width="180" height="340" as="geometry" />
        </mxCell>
        <mxCell id="rYeARVWWsd-ZoHAaEzfL-3" value="" style="rounded=1;whiteSpace=wrap;html=1;fillColor=#f8cecc;strokeColor=#b85450;" parent="rYeARVWWsd-ZoHAaEzfL-1" vertex="1">
          <mxGeometry x="30" y="210" width="650" height="150" as="geometry" />
        </mxCell>
        <mxCell id="rYeARVWWsd-ZoHAaEzfL-4" value="" style="rounded=1;whiteSpace=wrap;html=1;fillColor=#ffe6cc;strokeColor=#d79b00;labelBackgroundColor=light-dark(#ffe6cc, #ededed);" parent="rYeARVWWsd-ZoHAaEzfL-1" vertex="1">
          <mxGeometry x="30" y="20" width="650" height="150" as="geometry" />
        </mxCell>
        <mxCell id="rYeARVWWsd-ZoHAaEzfL-5" style="edgeStyle=orthogonalEdgeStyle;rounded=0;orthogonalLoop=1;jettySize=auto;html=1;entryX=0;entryY=0.5;entryDx=0;entryDy=0;startArrow=oval;startFill=1;startSize=8;" parent="rYeARVWWsd-ZoHAaEzfL-1" source="rYeARVWWsd-ZoHAaEzfL-7" target="rYeARVWWsd-ZoHAaEzfL-10" edge="1">
          <mxGeometry relative="1" as="geometry" />
        </mxCell>
        <mxCell id="rYeARVWWsd-ZoHAaEzfL-6" value="SCIM" style="edgeLabel;html=1;align=center;verticalAlign=middle;resizable=0;points=[];labelBackgroundColor=#FFE6CC;fontColor=light-dark(#000000,#EDEDED);" parent="rYeARVWWsd-ZoHAaEzfL-5" vertex="1" connectable="0">
          <mxGeometry x="0.4315" relative="1" as="geometry">
            <mxPoint x="-14" as="offset" />
          </mxGeometry>
        </mxCell>
        <mxCell id="rYeARVWWsd-ZoHAaEzfL-7" value="SCIM&lt;br&gt;client" style="shape=umlActor;verticalLabelPosition=bottom;verticalAlign=top;html=1;outlineConnect=0;fillColor=#f5f5f5;strokeColor=#666666;fontColor=#333333;" parent="rYeARVWWsd-ZoHAaEzfL-1" vertex="1">
          <mxGeometry x="50" y="60" width="30" height="60" as="geometry" />
        </mxCell>
        <mxCell id="rYeARVWWsd-ZoHAaEzfL-10" value="&lt;div&gt;«REST»&lt;br&gt;&lt;/div&gt;SCIM" style="rounded=0;whiteSpace=wrap;html=1;fillColor=#f5f5f5;fontColor=#333333;strokeColor=#666666;" parent="rYeARVWWsd-ZoHAaEzfL-1" vertex="1">
          <mxGeometry x="143" y="60" width="120" height="60" as="geometry" />
        </mxCell>
        <mxCell id="rYeARVWWsd-ZoHAaEzfL-16" value="Provisioning" style="rounded=0;whiteSpace=wrap;html=1;fillColor=#f5f5f5;fontColor=#333333;strokeColor=#666666;" parent="rYeARVWWsd-ZoHAaEzfL-1" vertex="1">
          <mxGeometry x="750" y="250" width="120" height="60" as="geometry" />
        </mxCell>
        <mxCell id="rYeARVWWsd-ZoHAaEzfL-20" value="«REST»&lt;div&gt;UDM&lt;/div&gt;" style="rounded=0;whiteSpace=wrap;html=1;fillColor=#f5f5f5;fontColor=#333333;strokeColor=#666666;" parent="rYeARVWWsd-ZoHAaEzfL-1" vertex="1">
          <mxGeometry x="340" y="250" width="120" height="60" as="geometry" />
        </mxCell>
        <mxCell id="rYeARVWWsd-ZoHAaEzfL-21" style="edgeStyle=orthogonalEdgeStyle;rounded=0;orthogonalLoop=1;jettySize=auto;html=1;entryX=0;entryY=0.25;entryDx=0;entryDy=0;exitX=1;exitY=0.5;exitDx=0;exitDy=0;jumpStyle=arc;" parent="rYeARVWWsd-ZoHAaEzfL-1" source="rYeARVWWsd-ZoHAaEzfL-10" target="rYeARVWWsd-ZoHAaEzfL-20" edge="1">
          <mxGeometry relative="1" as="geometry">
            <Array as="points">
              <mxPoint x="300" y="90" />
              <mxPoint x="300" y="265" />
            </Array>
            <mxPoint x="200" y="390" as="sourcePoint" />
          </mxGeometry>
        </mxCell>
        <mxCell id="mOMDeYmNyNGDC6l7IGOt-0" value="read and write" style="edgeLabel;html=1;align=center;verticalAlign=middle;resizable=0;points=[];labelBackgroundColor=light-dark(#ffe6cc, #ededed);" parent="rYeARVWWsd-ZoHAaEzfL-21" vertex="1" connectable="0">
          <mxGeometry x="-0.7069" relative="1" as="geometry">
            <mxPoint y="51" as="offset" />
          </mxGeometry>
        </mxCell>
        <mxCell id="rYeARVWWsd-ZoHAaEzfL-23" style="edgeStyle=orthogonalEdgeStyle;rounded=0;orthogonalLoop=1;jettySize=auto;html=1;entryX=0;entryY=0.5;entryDx=0;entryDy=0;startArrow=oval;startFill=1;startSize=8;" parent="rYeARVWWsd-ZoHAaEzfL-1" source="rYeARVWWsd-ZoHAaEzfL-25" target="rYeARVWWsd-ZoHAaEzfL-20" edge="1">
          <mxGeometry relative="1" as="geometry" />
        </mxCell>
        <mxCell id="rYeARVWWsd-ZoHAaEzfL-24" value="UDM" style="edgeLabel;html=1;align=center;verticalAlign=middle;resizable=0;points=[];labelBackgroundColor=#F8CECC;" parent="rYeARVWWsd-ZoHAaEzfL-23" vertex="1" connectable="0">
          <mxGeometry x="0.4865" y="-2" relative="1" as="geometry">
            <mxPoint x="-163" y="-1" as="offset" />
          </mxGeometry>
        </mxCell>
        <mxCell id="rYeARVWWsd-ZoHAaEzfL-25" value="UDM&lt;br&gt;client" style="shape=umlActor;verticalLabelPosition=bottom;verticalAlign=top;html=1;outlineConnect=0;fillColor=#f5f5f5;fontColor=#333333;strokeColor=#666666;" parent="rYeARVWWsd-ZoHAaEzfL-1" vertex="1">
          <mxGeometry x="50" y="250" width="30" height="60" as="geometry" />
        </mxCell>
        <mxCell id="rYeARVWWsd-ZoHAaEzfL-26" style="edgeStyle=orthogonalEdgeStyle;rounded=0;orthogonalLoop=1;jettySize=auto;html=1;entryX=0;entryY=0.5;entryDx=0;entryDy=0;startSize=8;" parent="rYeARVWWsd-ZoHAaEzfL-1" source="rYeARVWWsd-ZoHAaEzfL-28" target="rYeARVWWsd-ZoHAaEzfL-16" edge="1">
          <mxGeometry relative="1" as="geometry" />
        </mxCell>
        <mxCell id="rYeARVWWsd-ZoHAaEzfL-27" value="Event (UDM)" style="edgeLabel;html=1;align=center;verticalAlign=middle;resizable=0;points=[];labelBackgroundColor=#F8CECC;fontColor=light-dark(#000000,#EDEDED);" parent="rYeARVWWsd-ZoHAaEzfL-26" vertex="1" connectable="0">
          <mxGeometry x="0.1379" y="-3" relative="1" as="geometry">
            <mxPoint x="-47" y="-3" as="offset" />
          </mxGeometry>
        </mxCell>
        <mxCell id="rYeARVWWsd-ZoHAaEzfL-28" value="Open&lt;br&gt;LDAP" style="shape=cylinder3;whiteSpace=wrap;html=1;boundedLbl=1;backgroundOutline=1;size=15;fillColor=#f5f5f5;fontColor=#333333;strokeColor=#666666;" parent="rYeARVWWsd-ZoHAaEzfL-1" vertex="1">
          <mxGeometry x="530" y="240" width="60" height="80" as="geometry" />
        </mxCell>
        <mxCell id="rYeARVWWsd-ZoHAaEzfL-29" style="edgeStyle=orthogonalEdgeStyle;rounded=0;orthogonalLoop=1;jettySize=auto;html=1;entryX=0;entryY=0.5;entryDx=0;entryDy=0;entryPerimeter=0;" parent="rYeARVWWsd-ZoHAaEzfL-1" source="rYeARVWWsd-ZoHAaEzfL-20" target="rYeARVWWsd-ZoHAaEzfL-28" edge="1">
          <mxGeometry relative="1" as="geometry" />
        </mxCell>
        <mxCell id="rYeARVWWsd-ZoHAaEzfL-30" value="LDAP" style="edgeLabel;html=1;align=center;verticalAlign=middle;resizable=0;points=[];labelBackgroundColor=#F8CECC;" parent="rYeARVWWsd-ZoHAaEzfL-29" vertex="1" connectable="0">
          <mxGeometry x="-0.415" y="-4" relative="1" as="geometry">
            <mxPoint x="12" y="-3" as="offset" />
          </mxGeometry>
        </mxCell>
        <mxCell id="rYeARVWWsd-ZoHAaEzfL-31" value="SCIM" style="text;html=1;align=center;verticalAlign=middle;resizable=0;points=[];autosize=1;strokeColor=none;fillColor=none;fontStyle=1;fontSize=14;" parent="rYeARVWWsd-ZoHAaEzfL-1" vertex="1">
          <mxGeometry x="610" y="140" width="60" height="30" as="geometry" />
        </mxCell>
        <mxCell id="rYeARVWWsd-ZoHAaEzfL-32" value="Events" style="text;html=1;align=center;verticalAlign=middle;resizable=0;points=[];autosize=1;strokeColor=none;fillColor=none;fontStyle=1;fontSize=14;" parent="rYeARVWWsd-ZoHAaEzfL-1" vertex="1">
          <mxGeometry x="832" y="323" width="70" height="30" as="geometry" />
        </mxCell>
        <mxCell id="rYeARVWWsd-ZoHAaEzfL-33" value="UDM" style="text;html=1;align=center;verticalAlign=middle;resizable=0;points=[];autosize=1;strokeColor=none;fillColor=none;fontStyle=1;fontSize=14;" parent="rYeARVWWsd-ZoHAaEzfL-1" vertex="1">
          <mxGeometry x="620" y="330" width="50" height="30" as="geometry" />
        </mxCell>
      </root>
    </mxGraphModel>
  </diagram>
  <diagram name="ms1-details" id="Iws0jcG5mybbTH4_NXgS">
    <mxGraphModel dx="4069" dy="2523" grid="1" gridSize="10" guides="1" tooltips="1" connect="1" arrows="1" fold="1" page="1" pageScale="1" pageWidth="1600" pageHeight="900" math="0" shadow="0">
      <root>
        <mxCell id="amDvpkuIvS4g--GyxtjB-0" />
        <mxCell id="amDvpkuIvS4g--GyxtjB-1" parent="amDvpkuIvS4g--GyxtjB-0" />
        <mxCell id="jAt3IZFoYA169n9i2Fip-39" style="edgeStyle=orthogonalEdgeStyle;rounded=0;orthogonalLoop=1;jettySize=auto;html=1;entryX=0;entryY=0.5;entryDx=0;entryDy=0;exitX=1;exitY=0.75;exitDx=0;exitDy=0;" parent="amDvpkuIvS4g--GyxtjB-1" source="jAt3IZFoYA169n9i2Fip-36" target="Ub6E73QtxhIhCygrAMNg-24" edge="1">
          <mxGeometry relative="1" as="geometry">
            <Array as="points">
              <mxPoint x="940" y="245" />
              <mxPoint x="940" y="50" />
            </Array>
          </mxGeometry>
        </mxCell>
        <mxCell id="jAt3IZFoYA169n9i2Fip-34" style="edgeStyle=orthogonalEdgeStyle;rounded=0;orthogonalLoop=1;jettySize=auto;html=1;entryX=0;entryY=0.5;entryDx=0;entryDy=0;jumpStyle=none;exitX=0.5;exitY=0;exitDx=0;exitDy=0;" parent="amDvpkuIvS4g--GyxtjB-1" source="Ub6E73QtxhIhCygrAMNg-90" target="Ub6E73QtxhIhCygrAMNg-31" edge="1">
          <mxGeometry relative="1" as="geometry">
            <Array as="points">
              <mxPoint x="-160" y="380" />
            </Array>
          </mxGeometry>
        </mxCell>
        <mxCell id="Ub6E73QtxhIhCygrAMNg-2" style="edgeStyle=orthogonalEdgeStyle;rounded=0;orthogonalLoop=1;jettySize=auto;html=1;entryX=0;entryY=0.5;entryDx=0;entryDy=0;exitX=1;exitY=0.5;exitDx=0;exitDy=0;" parent="amDvpkuIvS4g--GyxtjB-1" source="jAt3IZFoYA169n9i2Fip-47" target="Ub6E73QtxhIhCygrAMNg-90" edge="1">
          <mxGeometry relative="1" as="geometry" />
        </mxCell>
        <mxCell id="jAt3IZFoYA169n9i2Fip-48" style="edgeStyle=orthogonalEdgeStyle;rounded=0;orthogonalLoop=1;jettySize=auto;html=1;entryX=0;entryY=0.5;entryDx=0;entryDy=0;" parent="amDvpkuIvS4g--GyxtjB-1" source="Ub6E73QtxhIhCygrAMNg-3" target="jAt3IZFoYA169n9i2Fip-47" edge="1">
          <mxGeometry relative="1" as="geometry" />
        </mxCell>
        <mxCell id="Ub6E73QtxhIhCygrAMNg-3" value="SCIM client" style="shape=umlActor;verticalLabelPosition=bottom;verticalAlign=top;html=1;outlineConnect=0;fillColor=#dae8fc;strokeColor=#6c8ebf;" parent="amDvpkuIvS4g--GyxtjB-1" vertex="1">
          <mxGeometry x="-430" y="650" width="30" height="60" as="geometry" />
        </mxCell>
        <mxCell id="Ub6E73QtxhIhCygrAMNg-4" value="Model service" style="swimlane;whiteSpace=wrap;html=1;strokeColor=#666666;" parent="amDvpkuIvS4g--GyxtjB-1" vertex="1">
          <mxGeometry x="360" y="-110" width="560" height="540" as="geometry" />
        </mxCell>
        <mxCell id="Ub6E73QtxhIhCygrAMNg-7" style="edgeStyle=orthogonalEdgeStyle;rounded=0;orthogonalLoop=1;jettySize=auto;html=1;entryX=0;entryY=0.5;entryDx=0;entryDy=0;exitX=1;exitY=0.5;exitDx=0;exitDy=0;" parent="Ub6E73QtxhIhCygrAMNg-4" source="Ub6E73QtxhIhCygrAMNg-30" target="Ub6E73QtxhIhCygrAMNg-29" edge="1">
          <mxGeometry relative="1" as="geometry" />
        </mxCell>
        <mxCell id="Ub6E73QtxhIhCygrAMNg-8" value="load&amp;nbsp;&lt;span style=&quot;background-color: light-dark(#ffffff, var(--ge-dark-color, #121212)); color: light-dark(rgb(0, 0, 0), rgb(255, 255, 255));&quot;&gt;scim&lt;/span&gt;&lt;div&gt;&lt;span style=&quot;background-color: light-dark(#ffffff, var(--ge-dark-color, #121212)); color: light-dark(rgb(0, 0, 0), rgb(255, 255, 255));&quot;&gt;schemas&amp;nbsp;&lt;/span&gt;&lt;span style=&quot;background-color: light-dark(#ffffff, var(--ge-dark-color, #121212)); color: light-dark(rgb(0, 0, 0), rgb(255, 255, 255));&quot;&gt;and&lt;/span&gt;&lt;/div&gt;&lt;div&gt;&lt;span style=&quot;background-color: light-dark(#ffffff, var(--ge-dark-color, #121212)); color: light-dark(rgb(0, 0, 0), rgb(255, 255, 255));&quot;&gt;extensions&lt;/span&gt;&lt;/div&gt;" style="edgeLabel;html=1;align=left;verticalAlign=middle;resizable=0;points=[];" parent="Ub6E73QtxhIhCygrAMNg-7" vertex="1" connectable="0">
          <mxGeometry x="-0.6814" y="3" relative="1" as="geometry">
            <mxPoint x="1" y="3" as="offset" />
          </mxGeometry>
        </mxCell>
        <mxCell id="Ub6E73QtxhIhCygrAMNg-16" value="" style="endArrow=block;endSize=16;endFill=0;html=1;rounded=0;exitX=0;exitY=0.5;exitDx=0;exitDy=0;entryX=1;entryY=0.5;entryDx=0;entryDy=0;" parent="Ub6E73QtxhIhCygrAMNg-4" source="Ub6E73QtxhIhCygrAMNg-30" target="Ub6E73QtxhIhCygrAMNg-31" edge="1">
          <mxGeometry width="160" relative="1" as="geometry">
            <mxPoint x="230" y="200" as="sourcePoint" />
            <mxPoint x="170" y="200" as="targetPoint" />
          </mxGeometry>
        </mxCell>
        <mxCell id="Ub6E73QtxhIhCygrAMNg-29" value="&lt;div&gt;«port»&lt;/div&gt;SCIM model&lt;div&gt;Persistence (read)&lt;/div&gt;" style="rounded=0;whiteSpace=wrap;html=1;fillColor=#fff2cc;strokeColor=#d6b656;" parent="Ub6E73QtxhIhCygrAMNg-4" vertex="1">
          <mxGeometry x="410" y="460" width="120" height="60" as="geometry" />
        </mxCell>
        <mxCell id="Ub6E73QtxhIhCygrAMNg-30" value="&lt;div&gt;«impl»&lt;/div&gt;&lt;span style=&quot;background-color: transparent; color: light-dark(rgb(0, 0, 0), rgb(255, 255, 255));&quot;&gt;SCIM&lt;br&gt;schema loader&lt;/span&gt;" style="rounded=0;whiteSpace=wrap;html=1;fillColor=#f5f5f5;strokeColor=#666666;fontColor=#333333;" parent="Ub6E73QtxhIhCygrAMNg-4" vertex="1">
          <mxGeometry x="180" y="460" width="120" height="60" as="geometry" />
        </mxCell>
        <mxCell id="Ub6E73QtxhIhCygrAMNg-31" value="&lt;div&gt;«iface»&lt;/div&gt;Load&lt;div&gt;SCIM schemas&lt;/div&gt;" style="rounded=0;whiteSpace=wrap;html=1;fillColor=#fff2cc;strokeColor=#d6b656;" parent="Ub6E73QtxhIhCygrAMNg-4" vertex="1">
          <mxGeometry x="20" y="460" width="120" height="60" as="geometry" />
        </mxCell>
        <mxCell id="NcPTPTkfTRcG0QKy8i4O-45" style="edgeStyle=orthogonalEdgeStyle;rounded=0;orthogonalLoop=1;jettySize=auto;html=1;entryX=0.75;entryY=1;entryDx=0;entryDy=0;jumpStyle=arc;exitX=1;exitY=0.5;exitDx=0;exitDy=0;" parent="Ub6E73QtxhIhCygrAMNg-4" source="jAt3IZFoYA169n9i2Fip-35" target="NcPTPTkfTRcG0QKy8i4O-6" edge="1">
          <mxGeometry relative="1" as="geometry">
            <Array as="points">
              <mxPoint x="510" y="410" />
              <mxPoint x="510" y="150" />
              <mxPoint x="450" y="150" />
            </Array>
          </mxGeometry>
        </mxCell>
        <mxCell id="jAt3IZFoYA169n9i2Fip-35" value="&lt;div&gt;&lt;span style=&quot;background-color: transparent; color: light-dark(rgb(0, 0, 0), rgb(255, 255, 255));&quot;&gt;Transform&lt;/span&gt;&lt;br&gt;&lt;/div&gt;&lt;div&gt;UDM 2 SCIM&lt;/div&gt;" style="rounded=0;whiteSpace=wrap;html=1;fillColor=#f5f5f5;fontColor=#333333;strokeColor=#666666;" parent="Ub6E73QtxhIhCygrAMNg-4" vertex="1">
          <mxGeometry x="20" y="380" width="120" height="60" as="geometry" />
        </mxCell>
        <mxCell id="NcPTPTkfTRcG0QKy8i4O-42" style="edgeStyle=orthogonalEdgeStyle;rounded=0;orthogonalLoop=1;jettySize=auto;html=1;entryX=0.5;entryY=1;entryDx=0;entryDy=0;exitX=1;exitY=0.25;exitDx=0;exitDy=0;" parent="Ub6E73QtxhIhCygrAMNg-4" source="jAt3IZFoYA169n9i2Fip-36" target="NcPTPTkfTRcG0QKy8i4O-7" edge="1">
          <mxGeometry relative="1" as="geometry" />
        </mxCell>
        <mxCell id="NcPTPTkfTRcG0QKy8i4O-43" style="edgeStyle=orthogonalEdgeStyle;rounded=0;orthogonalLoop=1;jettySize=auto;html=1;entryX=0.5;entryY=1;entryDx=0;entryDy=0;exitX=1;exitY=0.5;exitDx=0;exitDy=0;" parent="Ub6E73QtxhIhCygrAMNg-4" source="jAt3IZFoYA169n9i2Fip-36" target="NcPTPTkfTRcG0QKy8i4O-6" edge="1">
          <mxGeometry relative="1" as="geometry">
            <Array as="points">
              <mxPoint x="500" y="340" />
              <mxPoint x="500" y="160" />
              <mxPoint x="420" y="160" />
            </Array>
          </mxGeometry>
        </mxCell>
        <mxCell id="jAt3IZFoYA169n9i2Fip-36" value="&lt;div&gt;&lt;span style=&quot;background-color: transparent; color: light-dark(rgb(0, 0, 0), rgb(255, 255, 255));&quot;&gt;Transform&lt;/span&gt;&lt;br&gt;&lt;/div&gt;&lt;div&gt;SCIM 2 UDM&lt;/div&gt;" style="rounded=0;whiteSpace=wrap;html=1;fillColor=#f5f5f5;fontColor=#333333;strokeColor=#666666;" parent="Ub6E73QtxhIhCygrAMNg-4" vertex="1">
          <mxGeometry x="20" y="310" width="120" height="60" as="geometry" />
        </mxCell>
        <mxCell id="NcPTPTkfTRcG0QKy8i4O-1" value="«entity»&lt;div&gt;User&lt;/div&gt;" style="rounded=0;whiteSpace=wrap;html=1;fillColor=#f5f5f5;strokeColor=#666666;fontColor=#333333;" parent="Ub6E73QtxhIhCygrAMNg-4" vertex="1">
          <mxGeometry x="180" y="35" width="120" height="60" as="geometry" />
        </mxCell>
        <mxCell id="NcPTPTkfTRcG0QKy8i4O-2" value="«entity»&lt;div&gt;Group&lt;/div&gt;" style="rounded=0;whiteSpace=wrap;html=1;fillColor=#f5f5f5;strokeColor=#666666;fontColor=#333333;" parent="Ub6E73QtxhIhCygrAMNg-4" vertex="1">
          <mxGeometry x="180" y="105" width="120" height="60" as="geometry" />
        </mxCell>
        <mxCell id="NcPTPTkfTRcG0QKy8i4O-0" value="«entity»&lt;div&gt;UDM User&lt;/div&gt;" style="rounded=0;whiteSpace=wrap;html=1;fillColor=#f5f5f5;strokeColor=#666666;fontColor=#333333;" parent="Ub6E73QtxhIhCygrAMNg-4" vertex="1">
          <mxGeometry x="180" y="180" width="120" height="60" as="geometry" />
        </mxCell>
        <mxCell id="NcPTPTkfTRcG0QKy8i4O-14" style="edgeStyle=orthogonalEdgeStyle;rounded=0;orthogonalLoop=1;jettySize=auto;html=1;entryX=0;entryY=0.5;entryDx=0;entryDy=0;" parent="Ub6E73QtxhIhCygrAMNg-4" source="NcPTPTkfTRcG0QKy8i4O-3" target="NcPTPTkfTRcG0QKy8i4O-0" edge="1">
          <mxGeometry relative="1" as="geometry" />
        </mxCell>
        <mxCell id="NcPTPTkfTRcG0QKy8i4O-15" style="edgeStyle=orthogonalEdgeStyle;rounded=0;orthogonalLoop=1;jettySize=auto;html=1;entryX=0;entryY=0.5;entryDx=0;entryDy=0;exitX=1;exitY=0.5;exitDx=0;exitDy=0;" parent="Ub6E73QtxhIhCygrAMNg-4" source="NcPTPTkfTRcG0QKy8i4O-3" target="NcPTPTkfTRcG0QKy8i4O-5" edge="1">
          <mxGeometry relative="1" as="geometry" />
        </mxCell>
        <mxCell id="NcPTPTkfTRcG0QKy8i4O-3" value="«builder»&lt;div&gt;UDM object&lt;/div&gt;" style="rounded=0;whiteSpace=wrap;html=1;fillColor=#f5f5f5;strokeColor=#666666;fontColor=#333333;" parent="Ub6E73QtxhIhCygrAMNg-4" vertex="1">
          <mxGeometry x="20" y="215" width="120" height="60" as="geometry" />
        </mxCell>
        <mxCell id="NcPTPTkfTRcG0QKy8i4O-13" style="edgeStyle=orthogonalEdgeStyle;rounded=0;orthogonalLoop=1;jettySize=auto;html=1;entryX=0;entryY=0.5;entryDx=0;entryDy=0;exitX=1;exitY=0.5;exitDx=0;exitDy=0;" parent="Ub6E73QtxhIhCygrAMNg-4" source="NcPTPTkfTRcG0QKy8i4O-4" target="NcPTPTkfTRcG0QKy8i4O-1" edge="1">
          <mxGeometry relative="1" as="geometry" />
        </mxCell>
        <mxCell id="NcPTPTkfTRcG0QKy8i4O-17" style="edgeStyle=orthogonalEdgeStyle;rounded=0;orthogonalLoop=1;jettySize=auto;html=1;entryX=0;entryY=0.5;entryDx=0;entryDy=0;exitX=1;exitY=0.5;exitDx=0;exitDy=0;" parent="Ub6E73QtxhIhCygrAMNg-4" source="NcPTPTkfTRcG0QKy8i4O-4" target="NcPTPTkfTRcG0QKy8i4O-2" edge="1">
          <mxGeometry relative="1" as="geometry" />
        </mxCell>
        <mxCell id="NcPTPTkfTRcG0QKy8i4O-4" value="«builder»&lt;div&gt;SCIM object&lt;/div&gt;" style="rounded=0;whiteSpace=wrap;html=1;fillColor=#f5f5f5;strokeColor=#666666;fontColor=#333333;" parent="Ub6E73QtxhIhCygrAMNg-4" vertex="1">
          <mxGeometry x="20" y="70" width="120" height="60" as="geometry" />
        </mxCell>
        <mxCell id="NcPTPTkfTRcG0QKy8i4O-5" value="«entity»&lt;div&gt;UDM Group&lt;/div&gt;" style="rounded=0;whiteSpace=wrap;html=1;fillColor=#f5f5f5;strokeColor=#666666;fontColor=#333333;" parent="Ub6E73QtxhIhCygrAMNg-4" vertex="1">
          <mxGeometry x="180" y="250" width="120" height="60" as="geometry" />
        </mxCell>
        <mxCell id="NcPTPTkfTRcG0QKy8i4O-6" value="&lt;div&gt;SCIM object&lt;/div&gt;" style="rounded=0;whiteSpace=wrap;html=1;fillColor=#f5f5f5;strokeColor=#666666;fontColor=#333333;" parent="Ub6E73QtxhIhCygrAMNg-4" vertex="1">
          <mxGeometry x="360" y="70" width="120" height="60" as="geometry" />
        </mxCell>
        <mxCell id="NcPTPTkfTRcG0QKy8i4O-7" value="&lt;div&gt;UDM Object&lt;/div&gt;" style="rounded=0;whiteSpace=wrap;html=1;fillColor=#f5f5f5;strokeColor=#666666;fontColor=#333333;" parent="Ub6E73QtxhIhCygrAMNg-4" vertex="1">
          <mxGeometry x="360" y="215" width="120" height="60" as="geometry" />
        </mxCell>
        <mxCell id="NcPTPTkfTRcG0QKy8i4O-8" value="" style="endArrow=block;endSize=16;endFill=0;html=1;rounded=0;exitX=1;exitY=0.5;exitDx=0;exitDy=0;entryX=0;entryY=0.5;entryDx=0;entryDy=0;edgeStyle=orthogonalEdgeStyle;" parent="Ub6E73QtxhIhCygrAMNg-4" source="NcPTPTkfTRcG0QKy8i4O-2" target="NcPTPTkfTRcG0QKy8i4O-6" edge="1">
          <mxGeometry width="160" relative="1" as="geometry">
            <mxPoint x="500" y="200" as="sourcePoint" />
            <mxPoint x="460" y="200" as="targetPoint" />
          </mxGeometry>
        </mxCell>
        <mxCell id="NcPTPTkfTRcG0QKy8i4O-9" value="" style="endArrow=block;endSize=16;endFill=0;html=1;rounded=0;exitX=1;exitY=0.5;exitDx=0;exitDy=0;entryX=0;entryY=0.5;entryDx=0;entryDy=0;edgeStyle=orthogonalEdgeStyle;" parent="Ub6E73QtxhIhCygrAMNg-4" source="NcPTPTkfTRcG0QKy8i4O-1" target="NcPTPTkfTRcG0QKy8i4O-6" edge="1">
          <mxGeometry width="160" relative="1" as="geometry">
            <mxPoint x="510" y="210" as="sourcePoint" />
            <mxPoint x="470" y="210" as="targetPoint" />
          </mxGeometry>
        </mxCell>
        <mxCell id="NcPTPTkfTRcG0QKy8i4O-10" value="" style="endArrow=block;endSize=16;endFill=0;html=1;rounded=0;exitX=1;exitY=0.5;exitDx=0;exitDy=0;entryX=0;entryY=0.5;entryDx=0;entryDy=0;edgeStyle=orthogonalEdgeStyle;" parent="Ub6E73QtxhIhCygrAMNg-4" source="NcPTPTkfTRcG0QKy8i4O-5" target="NcPTPTkfTRcG0QKy8i4O-7" edge="1">
          <mxGeometry width="160" relative="1" as="geometry">
            <mxPoint x="520" y="220" as="sourcePoint" />
            <mxPoint x="480" y="220" as="targetPoint" />
          </mxGeometry>
        </mxCell>
        <mxCell id="NcPTPTkfTRcG0QKy8i4O-11" value="" style="endArrow=block;endSize=16;endFill=0;html=1;rounded=0;exitX=1;exitY=0.5;exitDx=0;exitDy=0;entryX=0;entryY=0.5;entryDx=0;entryDy=0;edgeStyle=orthogonalEdgeStyle;" parent="Ub6E73QtxhIhCygrAMNg-4" source="NcPTPTkfTRcG0QKy8i4O-0" target="NcPTPTkfTRcG0QKy8i4O-7" edge="1">
          <mxGeometry width="160" relative="1" as="geometry">
            <mxPoint x="530" y="230" as="sourcePoint" />
            <mxPoint x="490" y="230" as="targetPoint" />
          </mxGeometry>
        </mxCell>
        <mxCell id="NcPTPTkfTRcG0QKy8i4O-44" style="edgeStyle=orthogonalEdgeStyle;rounded=0;orthogonalLoop=1;jettySize=auto;html=1;entryX=0.75;entryY=1;entryDx=0;entryDy=0;jumpStyle=arc;exitX=1;exitY=0.25;exitDx=0;exitDy=0;" parent="Ub6E73QtxhIhCygrAMNg-4" source="jAt3IZFoYA169n9i2Fip-35" target="NcPTPTkfTRcG0QKy8i4O-7" edge="1">
          <mxGeometry relative="1" as="geometry" />
        </mxCell>
        <mxCell id="jAt3IZFoYA169n9i2Fip-53" style="edgeStyle=orthogonalEdgeStyle;rounded=0;orthogonalLoop=1;jettySize=auto;html=1;entryX=0;entryY=0.5;entryDx=0;entryDy=0;exitX=0.5;exitY=1;exitDx=0;exitDy=0;" parent="amDvpkuIvS4g--GyxtjB-1" source="Ub6E73QtxhIhCygrAMNg-90" target="jAt3IZFoYA169n9i2Fip-49" edge="1">
          <mxGeometry relative="1" as="geometry" />
        </mxCell>
        <mxCell id="jAt3IZFoYA169n9i2Fip-72" style="edgeStyle=orthogonalEdgeStyle;rounded=0;orthogonalLoop=1;jettySize=auto;html=1;entryX=0;entryY=0.5;entryDx=0;entryDy=0;exitX=0.5;exitY=1;exitDx=0;exitDy=0;" parent="amDvpkuIvS4g--GyxtjB-1" source="Ub6E73QtxhIhCygrAMNg-90" target="jAt3IZFoYA169n9i2Fip-63" edge="1">
          <mxGeometry relative="1" as="geometry" />
        </mxCell>
        <mxCell id="Ub6E73QtxhIhCygrAMNg-90" value="SCIM&lt;div&gt;REST API&lt;/div&gt;" style="rounded=0;whiteSpace=wrap;html=1;fillColor=#f5f5f5;fontColor=#333333;strokeColor=#666666;" parent="amDvpkuIvS4g--GyxtjB-1" vertex="1">
          <mxGeometry x="-220" y="650" width="120" height="60" as="geometry" />
        </mxCell>
        <mxCell id="jAt3IZFoYA169n9i2Fip-0" value="Repository" style="swimlane;whiteSpace=wrap;html=1;strokeColor=#666666;" parent="amDvpkuIvS4g--GyxtjB-1" vertex="1">
          <mxGeometry x="320" y="490" width="810" height="610" as="geometry" />
        </mxCell>
        <mxCell id="Ub6E73QtxhIhCygrAMNg-62" style="edgeStyle=orthogonalEdgeStyle;rounded=0;orthogonalLoop=1;jettySize=auto;html=1;entryX=0;entryY=0.5;entryDx=0;entryDy=0;exitX=1;exitY=0.5;exitDx=0;exitDy=0;jumpStyle=none;" parent="jAt3IZFoYA169n9i2Fip-0" source="Ub6E73QtxhIhCygrAMNg-74" target="Ub6E73QtxhIhCygrAMNg-72" edge="1">
          <mxGeometry relative="1" as="geometry" />
        </mxCell>
        <mxCell id="Ub6E73QtxhIhCygrAMNg-79" style="edgeStyle=orthogonalEdgeStyle;rounded=0;orthogonalLoop=1;jettySize=auto;html=1;entryX=0;entryY=0.5;entryDx=0;entryDy=0;" parent="jAt3IZFoYA169n9i2Fip-0" source="Ub6E73QtxhIhCygrAMNg-86" target="Ub6E73QtxhIhCygrAMNg-84" edge="1">
          <mxGeometry relative="1" as="geometry">
            <mxPoint x="360" y="450" as="targetPoint" />
          </mxGeometry>
        </mxCell>
        <mxCell id="Ub6E73QtxhIhCygrAMNg-60" value="" style="endArrow=block;endSize=16;endFill=0;html=1;rounded=0;exitX=0;exitY=0.5;exitDx=0;exitDy=0;entryX=1;entryY=0.5;entryDx=0;entryDy=0;" parent="jAt3IZFoYA169n9i2Fip-0" source="Ub6E73QtxhIhCygrAMNg-77" target="Ub6E73QtxhIhCygrAMNg-76" edge="1">
          <mxGeometry width="160" relative="1" as="geometry">
            <mxPoint x="210" y="460" as="sourcePoint" />
            <mxPoint x="170" y="460" as="targetPoint" />
          </mxGeometry>
        </mxCell>
        <mxCell id="Ub6E73QtxhIhCygrAMNg-61" style="edgeStyle=orthogonalEdgeStyle;rounded=0;orthogonalLoop=1;jettySize=auto;html=1;entryX=0;entryY=0.5;entryDx=0;entryDy=0;" parent="jAt3IZFoYA169n9i2Fip-0" source="Ub6E73QtxhIhCygrAMNg-77" target="Ub6E73QtxhIhCygrAMNg-70" edge="1">
          <mxGeometry relative="1" as="geometry">
            <mxPoint x="360" y="530" as="targetPoint" />
          </mxGeometry>
        </mxCell>
        <mxCell id="Ub6E73QtxhIhCygrAMNg-64" value="" style="endArrow=block;endSize=16;endFill=0;html=1;rounded=0;exitX=0;exitY=0.5;exitDx=0;exitDy=0;entryX=1;entryY=0.5;entryDx=0;entryDy=0;" parent="jAt3IZFoYA169n9i2Fip-0" source="Ub6E73QtxhIhCygrAMNg-68" target="Ub6E73QtxhIhCygrAMNg-70" edge="1">
          <mxGeometry width="160" relative="1" as="geometry">
            <mxPoint x="250" y="600" as="sourcePoint" />
            <mxPoint x="190" y="600" as="targetPoint" />
          </mxGeometry>
        </mxCell>
        <mxCell id="Ub6E73QtxhIhCygrAMNg-80" value="" style="endArrow=block;endSize=16;endFill=0;html=1;rounded=0;exitX=0;exitY=0.5;exitDx=0;exitDy=0;entryX=1;entryY=0.5;entryDx=0;entryDy=0;" parent="jAt3IZFoYA169n9i2Fip-0" source="Ub6E73QtxhIhCygrAMNg-83" target="Ub6E73QtxhIhCygrAMNg-84" edge="1">
          <mxGeometry width="160" relative="1" as="geometry">
            <mxPoint x="250" y="520" as="sourcePoint" />
            <mxPoint x="190" y="520" as="targetPoint" />
          </mxGeometry>
        </mxCell>
        <mxCell id="Ub6E73QtxhIhCygrAMNg-63" value="" style="endArrow=block;endSize=16;endFill=0;html=1;rounded=0;exitX=0;exitY=0.5;exitDx=0;exitDy=0;entryX=1;entryY=0.5;entryDx=0;entryDy=0;" parent="jAt3IZFoYA169n9i2Fip-0" source="Ub6E73QtxhIhCygrAMNg-67" target="Ub6E73QtxhIhCygrAMNg-72" edge="1">
          <mxGeometry width="160" relative="1" as="geometry">
            <mxPoint x="260" y="530" as="sourcePoint" />
            <mxPoint x="200" y="530" as="targetPoint" />
          </mxGeometry>
        </mxCell>
        <mxCell id="Ub6E73QtxhIhCygrAMNg-44" value="«port»&lt;div&gt;Read DB&lt;/div&gt;&lt;div&gt;object&lt;/div&gt;" style="rounded=0;whiteSpace=wrap;html=1;fillColor=#fff2cc;strokeColor=#d6b656;" parent="jAt3IZFoYA169n9i2Fip-0" vertex="1">
          <mxGeometry x="400" y="100" width="120" height="60" as="geometry" />
        </mxCell>
        <mxCell id="Ub6E73QtxhIhCygrAMNg-49" value="«port»&lt;div&gt;Search DB&lt;/div&gt;&lt;div&gt;collection&lt;/div&gt;" style="rounded=0;whiteSpace=wrap;html=1;fillColor=#fff2cc;strokeColor=#d6b656;" parent="jAt3IZFoYA169n9i2Fip-0" vertex="1">
          <mxGeometry x="400" y="180" width="120" height="60" as="geometry" />
        </mxCell>
        <mxCell id="Ub6E73QtxhIhCygrAMNg-38" value="" style="endArrow=block;endSize=16;endFill=0;html=1;rounded=0;exitX=0;exitY=0.5;exitDx=0;exitDy=0;entryX=1;entryY=0.5;entryDx=0;entryDy=0;" parent="jAt3IZFoYA169n9i2Fip-0" source="Ub6E73QtxhIhCygrAMNg-46" target="Ub6E73QtxhIhCygrAMNg-44" edge="1">
          <mxGeometry width="160" relative="1" as="geometry">
            <mxPoint x="260" y="270" as="sourcePoint" />
            <mxPoint x="200" y="270" as="targetPoint" />
          </mxGeometry>
        </mxCell>
        <mxCell id="Ub6E73QtxhIhCygrAMNg-39" value="" style="endArrow=block;endSize=16;endFill=0;html=1;rounded=0;exitX=0;exitY=0.5;exitDx=0;exitDy=0;entryX=1;entryY=0.5;entryDx=0;entryDy=0;" parent="jAt3IZFoYA169n9i2Fip-0" source="Ub6E73QtxhIhCygrAMNg-48" target="Ub6E73QtxhIhCygrAMNg-49" edge="1">
          <mxGeometry width="160" relative="1" as="geometry">
            <mxPoint x="250" y="260" as="sourcePoint" />
            <mxPoint x="190" y="260" as="targetPoint" />
          </mxGeometry>
        </mxCell>
        <mxCell id="Ub6E73QtxhIhCygrAMNg-75" value="«iface»&lt;div&gt;Create&lt;/div&gt;&lt;div&gt;SCIM&amp;nbsp;&lt;span style=&quot;background-color: transparent; color: light-dark(rgb(0, 0, 0), rgb(255, 255, 255));&quot;&gt;object&lt;/span&gt;&lt;/div&gt;" style="rounded=0;whiteSpace=wrap;html=1;fillColor=#fff2cc;strokeColor=#d6b656;" parent="jAt3IZFoYA169n9i2Fip-0" vertex="1">
          <mxGeometry x="40" y="350" width="120" height="60" as="geometry" />
        </mxCell>
        <mxCell id="Ub6E73QtxhIhCygrAMNg-85" value="«iface»&lt;div&gt;Modify (partial)&amp;nbsp;&lt;span style=&quot;background-color: transparent; color: light-dark(rgb(0, 0, 0), rgb(255, 255, 255));&quot;&gt;SCIM&lt;/span&gt;&lt;/div&gt;&lt;div&gt;&lt;span style=&quot;background-color: transparent; color: light-dark(rgb(0, 0, 0), rgb(255, 255, 255));&quot;&gt;object&lt;/span&gt;&lt;/div&gt;" style="rounded=0;whiteSpace=wrap;html=1;fillColor=#fff2cc;strokeColor=#d6b656;" parent="jAt3IZFoYA169n9i2Fip-0" vertex="1">
          <mxGeometry x="40" y="430" width="120" height="60" as="geometry" />
        </mxCell>
        <mxCell id="Ub6E73QtxhIhCygrAMNg-59" value="" style="endArrow=block;endSize=16;endFill=0;html=1;rounded=0;exitX=0;exitY=0.5;exitDx=0;exitDy=0;entryX=1;entryY=0.5;entryDx=0;entryDy=0;" parent="jAt3IZFoYA169n9i2Fip-0" source="Ub6E73QtxhIhCygrAMNg-74" target="Ub6E73QtxhIhCygrAMNg-75" edge="1">
          <mxGeometry width="160" relative="1" as="geometry">
            <mxPoint x="590" y="340" as="sourcePoint" />
            <mxPoint x="520" y="340" as="targetPoint" />
          </mxGeometry>
        </mxCell>
        <mxCell id="Ub6E73QtxhIhCygrAMNg-78" value="" style="endArrow=block;endSize=16;endFill=0;html=1;rounded=0;exitX=0;exitY=0.5;exitDx=0;exitDy=0;entryX=1;entryY=0.5;entryDx=0;entryDy=0;" parent="jAt3IZFoYA169n9i2Fip-0" source="Ub6E73QtxhIhCygrAMNg-86" target="Ub6E73QtxhIhCygrAMNg-85" edge="1">
          <mxGeometry width="160" relative="1" as="geometry">
            <mxPoint x="210" y="340" as="sourcePoint" />
            <mxPoint x="170" y="340" as="targetPoint" />
          </mxGeometry>
        </mxCell>
        <mxCell id="Ub6E73QtxhIhCygrAMNg-76" value="«iface»&lt;div&gt;Delete&amp;nbsp;&lt;span style=&quot;background-color: transparent; color: light-dark(rgb(0, 0, 0), rgb(255, 255, 255));&quot;&gt;SCIM&lt;/span&gt;&lt;/div&gt;&lt;div&gt;&lt;span style=&quot;background-color: transparent; color: light-dark(rgb(0, 0, 0), rgb(255, 255, 255));&quot;&gt;object&lt;/span&gt;&lt;/div&gt;" style="rounded=0;whiteSpace=wrap;html=1;fillColor=#fff2cc;strokeColor=#d6b656;" parent="jAt3IZFoYA169n9i2Fip-0" vertex="1">
          <mxGeometry x="40" y="510" width="120" height="60" as="geometry" />
        </mxCell>
        <mxCell id="Ub6E73QtxhIhCygrAMNg-77" value="«impl»&lt;div&gt;&lt;div&gt;Delete&amp;nbsp;&lt;span style=&quot;background-color: transparent; color: light-dark(rgb(0, 0, 0), rgb(255, 255, 255));&quot;&gt;SCIM&lt;/span&gt;&lt;/div&gt;&lt;div&gt;&lt;span style=&quot;background-color: transparent; color: light-dark(rgb(0, 0, 0), rgb(255, 255, 255));&quot;&gt;object&lt;/span&gt;&lt;/div&gt;&lt;/div&gt;" style="rounded=0;whiteSpace=wrap;html=1;fillColor=#f5f5f5;strokeColor=#666666;fontColor=#333333;" parent="jAt3IZFoYA169n9i2Fip-0" vertex="1">
          <mxGeometry x="200" y="510" width="120" height="60" as="geometry" />
        </mxCell>
        <mxCell id="Ub6E73QtxhIhCygrAMNg-86" value="«impl»&lt;div&gt;&lt;div&gt;Modify (partial)&amp;nbsp;&lt;span style=&quot;background-color: transparent; color: light-dark(rgb(0, 0, 0), rgb(255, 255, 255));&quot;&gt;SCIM&lt;/span&gt;&lt;/div&gt;&lt;div&gt;&lt;span style=&quot;background-color: transparent; color: light-dark(rgb(0, 0, 0), rgb(255, 255, 255));&quot;&gt;object&lt;/span&gt;&lt;/div&gt;&lt;/div&gt;" style="rounded=0;whiteSpace=wrap;html=1;fillColor=#f5f5f5;strokeColor=#666666;fontColor=#333333;" parent="jAt3IZFoYA169n9i2Fip-0" vertex="1">
          <mxGeometry x="200" y="430" width="120" height="60" as="geometry" />
        </mxCell>
        <mxCell id="Ub6E73QtxhIhCygrAMNg-74" value="«impl»&lt;br&gt;&lt;div&gt;&lt;span style=&quot;background-color: transparent; color: light-dark(rgb(0, 0, 0), rgb(255, 255, 255));&quot;&gt;Create&lt;/span&gt;&lt;/div&gt;&lt;div&gt;&lt;span style=&quot;background-color: transparent; color: light-dark(rgb(0, 0, 0), rgb(255, 255, 255));&quot;&gt;SCIM&amp;nbsp;&lt;/span&gt;&lt;span style=&quot;background-color: transparent; color: light-dark(rgb(0, 0, 0), rgb(255, 255, 255));&quot;&gt;object&lt;/span&gt;&lt;/div&gt;" style="rounded=0;whiteSpace=wrap;html=1;fillColor=#f5f5f5;strokeColor=#666666;fontColor=#333333;" parent="jAt3IZFoYA169n9i2Fip-0" vertex="1">
          <mxGeometry x="200" y="350" width="120" height="60" as="geometry" />
        </mxCell>
        <mxCell id="Ub6E73QtxhIhCygrAMNg-58" value="Write backend" style="swimlane;whiteSpace=wrap;html=1;strokeColor=#666666;" parent="jAt3IZFoYA169n9i2Fip-0" vertex="1">
          <mxGeometry x="20" y="290" width="540" height="300" as="geometry">
            <mxRectangle x="340" y="800" width="120" height="30" as="alternateBounds" />
          </mxGeometry>
        </mxCell>
        <mxCell id="Ub6E73QtxhIhCygrAMNg-70" value="«port»&lt;div&gt;&lt;div&gt;Delete&lt;/div&gt;&lt;div&gt;DB&amp;nbsp;&lt;span style=&quot;background-color: transparent; color: light-dark(rgb(0, 0, 0), rgb(255, 255, 255));&quot;&gt;object&lt;/span&gt;&lt;/div&gt;&lt;/div&gt;" style="rounded=0;whiteSpace=wrap;html=1;fillColor=#fff2cc;strokeColor=#d6b656;" parent="Ub6E73QtxhIhCygrAMNg-58" vertex="1">
          <mxGeometry x="380" y="220" width="120" height="60" as="geometry" />
        </mxCell>
        <mxCell id="Ub6E73QtxhIhCygrAMNg-84" value="«port»&lt;div&gt;&lt;div&gt;Modify&lt;span style=&quot;color: rgb(51, 51, 51); background-color: transparent;&quot;&gt;&amp;nbsp;&lt;/span&gt;&lt;span style=&quot;color: rgb(51, 51, 51); background-color: transparent;&quot;&gt;(partial)&lt;/span&gt;&lt;/div&gt;&lt;div&gt;DB&amp;nbsp;&lt;span style=&quot;background-color: transparent; color: light-dark(rgb(0, 0, 0), rgb(255, 255, 255));&quot;&gt;object&lt;/span&gt;&lt;/div&gt;&lt;/div&gt;" style="rounded=0;whiteSpace=wrap;html=1;fillColor=#fff2cc;strokeColor=#d6b656;" parent="Ub6E73QtxhIhCygrAMNg-58" vertex="1">
          <mxGeometry x="380" y="140" width="120" height="60" as="geometry" />
        </mxCell>
        <mxCell id="Ub6E73QtxhIhCygrAMNg-72" value="«port»&lt;div&gt;Create&lt;/div&gt;&lt;div&gt;DB&amp;nbsp;&lt;span style=&quot;background-color: transparent; color: light-dark(rgb(0, 0, 0), rgb(255, 255, 255));&quot;&gt;object&lt;/span&gt;&lt;/div&gt;" style="rounded=0;whiteSpace=wrap;html=1;fillColor=#fff2cc;strokeColor=#d6b656;" parent="Ub6E73QtxhIhCygrAMNg-58" vertex="1">
          <mxGeometry x="380" y="60" width="120" height="60" as="geometry" />
        </mxCell>
        <mxCell id="NcPTPTkfTRcG0QKy8i4O-38" style="edgeStyle=orthogonalEdgeStyle;rounded=0;orthogonalLoop=1;jettySize=auto;html=1;exitX=0.5;exitY=0;exitDx=0;exitDy=0;entryX=1;entryY=0.518;entryDx=0;entryDy=0;entryPerimeter=0;" parent="Ub6E73QtxhIhCygrAMNg-58" source="Ub6E73QtxhIhCygrAMNg-72" target="NcPTPTkfTRcG0QKy8i4O-39" edge="1">
          <mxGeometry relative="1" as="geometry">
            <mxPoint x="440" y="60" as="sourcePoint" />
            <Array as="points">
              <mxPoint x="440" y="45" />
            </Array>
          </mxGeometry>
        </mxCell>
        <mxCell id="NcPTPTkfTRcG0QKy8i4O-39" value="«entity» User/Group" style="text;html=1;align=center;verticalAlign=middle;resizable=0;points=[];autosize=1;strokeColor=none;fillColor=none;" parent="Ub6E73QtxhIhCygrAMNg-58" vertex="1">
          <mxGeometry x="205" y="30" width="130" height="30" as="geometry" />
        </mxCell>
        <mxCell id="XIS54jGlL4OR7VgXtyUI-3" value="UDM Backend" style="swimlane;whiteSpace=wrap;html=1;strokeColor=#666666;" parent="jAt3IZFoYA169n9i2Fip-0" vertex="1">
          <mxGeometry x="610" y="40" width="180" height="550" as="geometry" />
        </mxCell>
        <mxCell id="NcPTPTkfTRcG0QKy8i4O-33" style="edgeStyle=orthogonalEdgeStyle;rounded=0;orthogonalLoop=1;jettySize=auto;html=1;exitX=0.75;exitY=0;exitDx=0;exitDy=0;" parent="XIS54jGlL4OR7VgXtyUI-3" source="Ub6E73QtxhIhCygrAMNg-46" edge="1">
          <mxGeometry relative="1" as="geometry">
            <mxPoint x="130" y="-60" as="targetPoint" />
            <Array as="points">
              <mxPoint x="110" y="-60" />
            </Array>
          </mxGeometry>
        </mxCell>
        <mxCell id="Ub6E73QtxhIhCygrAMNg-46" value="«adapter»&lt;div&gt;Read &lt;i&gt;UDM REST&lt;/i&gt; object&lt;/div&gt;" style="rounded=0;whiteSpace=wrap;html=1;fillColor=#ffe6cc;strokeColor=#d79b00;" parent="XIS54jGlL4OR7VgXtyUI-3" vertex="1">
          <mxGeometry x="20" y="60" width="120" height="60" as="geometry" />
        </mxCell>
        <mxCell id="Ub6E73QtxhIhCygrAMNg-48" value="«adapter»&lt;div&gt;Search &lt;i&gt;UDM REST&lt;/i&gt; collection&lt;/div&gt;" style="rounded=0;whiteSpace=wrap;html=1;fillColor=#ffe6cc;strokeColor=#d79b00;" parent="XIS54jGlL4OR7VgXtyUI-3" vertex="1">
          <mxGeometry x="20" y="140" width="120" height="60" as="geometry" />
        </mxCell>
        <mxCell id="Ub6E73QtxhIhCygrAMNg-67" value="«adapter»&lt;div&gt;Create&lt;/div&gt;&lt;div&gt;&lt;i&gt;UDM REST&lt;/i&gt; object&lt;/div&gt;" style="rounded=0;whiteSpace=wrap;html=1;fillColor=#ffe6cc;strokeColor=#d79b00;" parent="XIS54jGlL4OR7VgXtyUI-3" vertex="1">
          <mxGeometry x="20" y="310" width="120" height="60" as="geometry" />
        </mxCell>
        <mxCell id="Ub6E73QtxhIhCygrAMNg-83" value="«adapter»&lt;div&gt;Modify&lt;span style=&quot;color: rgb(51, 51, 51); background-color: transparent;&quot;&gt;&amp;nbsp;&lt;/span&gt;&lt;span style=&quot;color: rgb(51, 51, 51); background-color: transparent;&quot;&gt;(partial)&lt;/span&gt;&lt;/div&gt;&lt;div&gt;&lt;i&gt;UDM REST&lt;/i&gt; object&lt;/div&gt;" style="rounded=0;whiteSpace=wrap;html=1;fillColor=#ffe6cc;strokeColor=#d79b00;" parent="XIS54jGlL4OR7VgXtyUI-3" vertex="1">
          <mxGeometry x="20" y="390" width="120" height="60" as="geometry" />
        </mxCell>
        <mxCell id="Ub6E73QtxhIhCygrAMNg-68" value="«adapter»&lt;div&gt;Delete&lt;/div&gt;&lt;div&gt;&lt;i&gt;UDM REST&lt;/i&gt; object&lt;/div&gt;" style="rounded=0;whiteSpace=wrap;html=1;fillColor=#ffe6cc;strokeColor=#d79b00;" parent="XIS54jGlL4OR7VgXtyUI-3" vertex="1">
          <mxGeometry x="20" y="470" width="120" height="60" as="geometry" />
        </mxCell>
        <mxCell id="NcPTPTkfTRcG0QKy8i4O-40" style="edgeStyle=orthogonalEdgeStyle;rounded=0;orthogonalLoop=1;jettySize=auto;html=1;entryX=-0.012;entryY=0.478;entryDx=0;entryDy=0;entryPerimeter=0;exitX=0.5;exitY=0;exitDx=0;exitDy=0;" parent="jAt3IZFoYA169n9i2Fip-0" source="Ub6E73QtxhIhCygrAMNg-75" target="NcPTPTkfTRcG0QKy8i4O-39" edge="1">
          <mxGeometry relative="1" as="geometry">
            <mxPoint x="100" y="350" as="sourcePoint" />
            <Array as="points">
              <mxPoint x="100" y="334" />
              <mxPoint x="185" y="334" />
            </Array>
          </mxGeometry>
        </mxCell>
        <mxCell id="jAt3IZFoYA169n9i2Fip-1" value="User service" style="swimlane;whiteSpace=wrap;html=1;strokeColor=#666666;" parent="amDvpkuIvS4g--GyxtjB-1" vertex="1">
          <mxGeometry x="-40" y="490" width="320" height="160" as="geometry" />
        </mxCell>
        <mxCell id="jAt3IZFoYA169n9i2Fip-6" value="&lt;div&gt;«iface»&lt;br&gt;&lt;/div&gt;Create,&amp;nbsp;&lt;span style=&quot;background-color: transparent; color: light-dark(rgb(0, 0, 0), rgb(255, 255, 255));&quot;&gt;Get, Search, Update, Delete&lt;/span&gt;&lt;div&gt;&lt;span style=&quot;background-color: transparent; color: light-dark(rgb(0, 0, 0), rgb(255, 255, 255));&quot;&gt;User&lt;/span&gt;&lt;/div&gt;" style="rounded=0;whiteSpace=wrap;html=1;fillColor=#fff2cc;strokeColor=#d6b656;" parent="jAt3IZFoYA169n9i2Fip-1" vertex="1">
          <mxGeometry x="20" y="40" width="120" height="100" as="geometry" />
        </mxCell>
        <mxCell id="jAt3IZFoYA169n9i2Fip-75" value="«impl»&lt;div&gt;&lt;span style=&quot;color: rgb(0, 0, 0);&quot;&gt;Create,&amp;nbsp;&lt;/span&gt;&lt;span style=&quot;color: light-dark(rgb(0, 0, 0), rgb(255, 255, 255)); background-color: transparent;&quot;&gt;Get, Search, Update, Delete&lt;/span&gt;&lt;div style=&quot;color: rgb(0, 0, 0);&quot;&gt;&lt;span style=&quot;background-color: transparent; color: light-dark(rgb(0, 0, 0), rgb(255, 255, 255));&quot;&gt;User&lt;/span&gt;&lt;/div&gt;&lt;/div&gt;" style="rounded=0;whiteSpace=wrap;html=1;fillColor=#f5f5f5;fontColor=#333333;strokeColor=#666666;" parent="jAt3IZFoYA169n9i2Fip-1" vertex="1">
          <mxGeometry x="180" y="40" width="120" height="100" as="geometry" />
        </mxCell>
        <mxCell id="jAt3IZFoYA169n9i2Fip-77" value="" style="endArrow=block;endSize=16;endFill=0;html=1;rounded=0;exitX=0;exitY=0.5;exitDx=0;exitDy=0;entryX=1;entryY=0.5;entryDx=0;entryDy=0;" parent="jAt3IZFoYA169n9i2Fip-1" source="jAt3IZFoYA169n9i2Fip-75" target="jAt3IZFoYA169n9i2Fip-6" edge="1">
          <mxGeometry width="160" relative="1" as="geometry">
            <mxPoint x="180" y="-0.36000000000001364" as="sourcePoint" />
            <mxPoint x="140" y="-0.36000000000001364" as="targetPoint" />
          </mxGeometry>
        </mxCell>
        <mxCell id="jAt3IZFoYA169n9i2Fip-7" value="Group service" style="swimlane;whiteSpace=wrap;html=1;strokeColor=#666666;" parent="amDvpkuIvS4g--GyxtjB-1" vertex="1">
          <mxGeometry x="-40" y="696" width="320" height="160" as="geometry" />
        </mxCell>
        <mxCell id="NcPTPTkfTRcG0QKy8i4O-25" style="edgeStyle=orthogonalEdgeStyle;rounded=0;orthogonalLoop=1;jettySize=auto;html=1;" parent="jAt3IZFoYA169n9i2Fip-7" source="jAt3IZFoYA169n9i2Fip-12" edge="1">
          <mxGeometry relative="1" as="geometry">
            <mxPoint x="100" y="-20" as="targetPoint" />
            <Array as="points">
              <mxPoint x="80" y="-20" />
            </Array>
          </mxGeometry>
        </mxCell>
        <mxCell id="jAt3IZFoYA169n9i2Fip-12" value="&lt;div&gt;&lt;span style=&quot;background-color: transparent; color: light-dark(rgb(0, 0, 0), rgb(255, 255, 255));&quot;&gt;«iface»&lt;/span&gt;&lt;br&gt;&lt;/div&gt;&lt;div&gt;Create,&amp;nbsp;&lt;span style=&quot;color: light-dark(rgb(0, 0, 0), rgb(255, 255, 255)); background-color: transparent;&quot;&gt;Get, Search, Update, Delete&lt;/span&gt;&lt;/div&gt;Group" style="rounded=0;whiteSpace=wrap;html=1;fillColor=#fff2cc;strokeColor=#d6b656;" parent="jAt3IZFoYA169n9i2Fip-7" vertex="1">
          <mxGeometry x="20" y="40" width="120" height="100" as="geometry" />
        </mxCell>
        <mxCell id="jAt3IZFoYA169n9i2Fip-96" value="" style="endArrow=block;endSize=16;endFill=0;html=1;rounded=0;exitX=0;exitY=0.5;exitDx=0;exitDy=0;entryX=1;entryY=0.5;entryDx=0;entryDy=0;" parent="jAt3IZFoYA169n9i2Fip-7" source="jAt3IZFoYA169n9i2Fip-88" edge="1">
          <mxGeometry width="160" relative="1" as="geometry">
            <mxPoint x="190" y="130" as="sourcePoint" />
            <mxPoint x="140" y="140" as="targetPoint" />
          </mxGeometry>
        </mxCell>
        <mxCell id="jAt3IZFoYA169n9i2Fip-100" value="" style="endArrow=block;endSize=16;endFill=0;html=1;rounded=0;exitX=0;exitY=0.5;exitDx=0;exitDy=0;entryX=1;entryY=0.5;entryDx=0;entryDy=0;" parent="jAt3IZFoYA169n9i2Fip-7" source="jAt3IZFoYA169n9i2Fip-92" edge="1">
          <mxGeometry width="160" relative="1" as="geometry">
            <mxPoint x="190" y="290" as="sourcePoint" />
            <mxPoint x="140" y="280" as="targetPoint" />
          </mxGeometry>
        </mxCell>
        <mxCell id="jAt3IZFoYA169n9i2Fip-86" value="«impl»&lt;br&gt;&lt;span style=&quot;color: rgb(0, 0, 0);&quot;&gt;Create,&amp;nbsp;&lt;/span&gt;&lt;span style=&quot;color: light-dark(rgb(0, 0, 0), rgb(255, 255, 255)); background-color: transparent;&quot;&gt;Get, Search, Update, Delete&lt;/span&gt;&lt;div&gt;Group&lt;/div&gt;" style="rounded=0;whiteSpace=wrap;html=1;fillColor=#f5f5f5;fontColor=#333333;strokeColor=#666666;" parent="jAt3IZFoYA169n9i2Fip-7" vertex="1">
          <mxGeometry x="180" y="40" width="120" height="100" as="geometry" />
        </mxCell>
        <mxCell id="jAt3IZFoYA169n9i2Fip-104" value="" style="endArrow=block;endSize=16;endFill=0;html=1;rounded=0;exitX=0;exitY=0.5;exitDx=0;exitDy=0;entryX=1;entryY=0.5;entryDx=0;entryDy=0;" parent="jAt3IZFoYA169n9i2Fip-7" source="jAt3IZFoYA169n9i2Fip-86" target="jAt3IZFoYA169n9i2Fip-12" edge="1">
          <mxGeometry width="160" relative="1" as="geometry">
            <mxPoint x="195" y="204" as="sourcePoint" />
            <mxPoint x="155" y="204" as="targetPoint" />
          </mxGeometry>
        </mxCell>
        <mxCell id="Ub6E73QtxhIhCygrAMNg-32" value="Read backend" style="swimlane;whiteSpace=wrap;html=1;strokeColor=#666666;" parent="amDvpkuIvS4g--GyxtjB-1" vertex="1">
          <mxGeometry x="340" y="530" width="540" height="220" as="geometry" />
        </mxCell>
        <mxCell id="Ub6E73QtxhIhCygrAMNg-34" value="" style="endArrow=block;endSize=16;endFill=0;html=1;rounded=0;exitX=0;exitY=0.5;exitDx=0;exitDy=0;entryX=1;entryY=0.5;entryDx=0;entryDy=0;" parent="Ub6E73QtxhIhCygrAMNg-32" source="Ub6E73QtxhIhCygrAMNg-42" target="Ub6E73QtxhIhCygrAMNg-40" edge="1">
          <mxGeometry width="160" relative="1" as="geometry">
            <mxPoint x="570" y="80" as="sourcePoint" />
            <mxPoint x="500" y="80" as="targetPoint" />
          </mxGeometry>
        </mxCell>
        <mxCell id="Ub6E73QtxhIhCygrAMNg-35" value="" style="endArrow=block;endSize=16;endFill=0;html=1;rounded=0;exitX=0;exitY=0.5;exitDx=0;exitDy=0;entryX=1;entryY=0.5;entryDx=0;entryDy=0;" parent="Ub6E73QtxhIhCygrAMNg-32" source="Ub6E73QtxhIhCygrAMNg-43" target="Ub6E73QtxhIhCygrAMNg-41" edge="1">
          <mxGeometry width="160" relative="1" as="geometry">
            <mxPoint x="190" y="80" as="sourcePoint" />
            <mxPoint x="150" y="80" as="targetPoint" />
          </mxGeometry>
        </mxCell>
        <mxCell id="Ub6E73QtxhIhCygrAMNg-40" value="«iface»&lt;div&gt;Read SCIM&lt;/div&gt;&lt;div&gt;object&lt;/div&gt;" style="rounded=0;whiteSpace=wrap;html=1;fillColor=#fff2cc;strokeColor=#d6b656;" parent="Ub6E73QtxhIhCygrAMNg-32" vertex="1">
          <mxGeometry x="20" y="60" width="120" height="60" as="geometry" />
        </mxCell>
        <mxCell id="Ub6E73QtxhIhCygrAMNg-41" value="«iface»&lt;div&gt;Search&amp;nbsp;&lt;span style=&quot;background-color: transparent; color: light-dark(rgb(0, 0, 0), rgb(255, 255, 255));&quot;&gt;SCIM&lt;/span&gt;&lt;/div&gt;&lt;div&gt;&lt;span style=&quot;background-color: transparent; color: light-dark(rgb(0, 0, 0), rgb(255, 255, 255));&quot;&gt;collection&lt;/span&gt;&lt;/div&gt;" style="rounded=0;whiteSpace=wrap;html=1;fillColor=#fff2cc;strokeColor=#d6b656;" parent="Ub6E73QtxhIhCygrAMNg-32" vertex="1">
          <mxGeometry x="20" y="140" width="120" height="60" as="geometry" />
        </mxCell>
        <mxCell id="Ub6E73QtxhIhCygrAMNg-42" value="«impl»&lt;div&gt;Read&lt;span style=&quot;background-color: transparent; color: light-dark(rgb(0, 0, 0), rgb(255, 255, 255));&quot;&gt;&amp;nbsp;&lt;/span&gt;&lt;span style=&quot;background-color: transparent; color: light-dark(rgb(0, 0, 0), rgb(255, 255, 255));&quot;&gt;SCIM&lt;/span&gt;&lt;/div&gt;&lt;div&gt;&lt;span style=&quot;background-color: transparent; color: light-dark(rgb(0, 0, 0), rgb(255, 255, 255));&quot;&gt;object&lt;/span&gt;&lt;/div&gt;" style="rounded=0;whiteSpace=wrap;html=1;fillColor=#f5f5f5;strokeColor=#666666;fontColor=#333333;" parent="Ub6E73QtxhIhCygrAMNg-32" vertex="1">
          <mxGeometry x="180" y="60" width="120" height="60" as="geometry" />
        </mxCell>
        <mxCell id="Ub6E73QtxhIhCygrAMNg-43" value="«impl»&lt;div&gt;Search&lt;span style=&quot;background-color: transparent; color: light-dark(rgb(0, 0, 0), rgb(255, 255, 255));&quot;&gt;&amp;nbsp;&lt;/span&gt;&lt;span style=&quot;background-color: transparent; color: light-dark(rgb(0, 0, 0), rgb(255, 255, 255));&quot;&gt;SCIM&lt;/span&gt;&lt;/div&gt;&lt;div&gt;&lt;span style=&quot;background-color: transparent; color: light-dark(rgb(0, 0, 0), rgb(255, 255, 255));&quot;&gt;collection&lt;/span&gt;&lt;/div&gt;" style="rounded=0;whiteSpace=wrap;html=1;fillColor=#f5f5f5;strokeColor=#666666;fontColor=#333333;" parent="Ub6E73QtxhIhCygrAMNg-32" vertex="1">
          <mxGeometry x="180" y="140" width="120" height="60" as="geometry" />
        </mxCell>
        <mxCell id="NcPTPTkfTRcG0QKy8i4O-35" value="«entity» User/Group" style="text;html=1;align=center;verticalAlign=middle;resizable=0;points=[];autosize=1;strokeColor=none;fillColor=none;" parent="Ub6E73QtxhIhCygrAMNg-32" vertex="1">
          <mxGeometry x="205" y="30" width="130" height="30" as="geometry" />
        </mxCell>
        <mxCell id="NcPTPTkfTRcG0QKy8i4O-36" style="edgeStyle=orthogonalEdgeStyle;rounded=0;orthogonalLoop=1;jettySize=auto;html=1;entryX=-0.012;entryY=0.478;entryDx=0;entryDy=0;entryPerimeter=0;exitX=0.5;exitY=0;exitDx=0;exitDy=0;" parent="Ub6E73QtxhIhCygrAMNg-32" source="Ub6E73QtxhIhCygrAMNg-40" target="NcPTPTkfTRcG0QKy8i4O-35" edge="1">
          <mxGeometry relative="1" as="geometry">
            <Array as="points">
              <mxPoint x="80" y="44" />
              <mxPoint x="165" y="44" />
            </Array>
          </mxGeometry>
        </mxCell>
        <mxCell id="Ub6E73QtxhIhCygrAMNg-23" value="scim-udm-transformer library" style="swimlane;whiteSpace=wrap;html=1;strokeColor=#666666;" parent="amDvpkuIvS4g--GyxtjB-1" vertex="1">
          <mxGeometry x="970" y="-20" width="550" height="300" as="geometry" />
        </mxCell>
        <mxCell id="Ub6E73QtxhIhCygrAMNg-24" value="&lt;div&gt;«iface»&lt;/div&gt;Transform&lt;div&gt;SCIM 2 UDM&lt;/div&gt;" style="rounded=0;whiteSpace=wrap;html=1;fillColor=#fff2cc;strokeColor=#d6b656;" parent="Ub6E73QtxhIhCygrAMNg-23" vertex="1">
          <mxGeometry x="20" y="40" width="120" height="60" as="geometry" />
        </mxCell>
        <mxCell id="Ub6E73QtxhIhCygrAMNg-17" value="&lt;div&gt;«iface»&lt;/div&gt;Transform&lt;div&gt;UDM 2 SCIM&lt;/div&gt;" style="rounded=0;whiteSpace=wrap;html=1;fillColor=#fff2cc;strokeColor=#d6b656;" parent="Ub6E73QtxhIhCygrAMNg-23" vertex="1">
          <mxGeometry x="20" y="220" width="120" height="60" as="geometry" />
        </mxCell>
        <mxCell id="Ub6E73QtxhIhCygrAMNg-10" value="&lt;div&gt;«impl»&lt;/div&gt;&lt;i&gt;Jinja2&lt;/i&gt;&lt;div&gt;SCIM 2 UDM&lt;/div&gt;&lt;div&gt;Transformer&lt;br&gt;&lt;/div&gt;" style="rounded=0;whiteSpace=wrap;html=1;fillColor=#f5f5f5;strokeColor=#666666;fontColor=#333333;" parent="Ub6E73QtxhIhCygrAMNg-23" vertex="1">
          <mxGeometry x="180" y="40" width="120" height="60" as="geometry" />
        </mxCell>
        <mxCell id="Ub6E73QtxhIhCygrAMNg-25" value="" style="endArrow=block;endSize=16;endFill=0;html=1;rounded=0;exitX=0;exitY=0.5;exitDx=0;exitDy=0;entryX=1;entryY=0.5;entryDx=0;entryDy=0;" parent="Ub6E73QtxhIhCygrAMNg-23" source="Ub6E73QtxhIhCygrAMNg-10" target="Ub6E73QtxhIhCygrAMNg-24" edge="1">
          <mxGeometry width="160" relative="1" as="geometry">
            <mxPoint x="350" y="182.5" as="sourcePoint" />
            <mxPoint x="240" y="137.5" as="targetPoint" />
          </mxGeometry>
        </mxCell>
        <mxCell id="Ub6E73QtxhIhCygrAMNg-13" value="&lt;div&gt;&lt;span style=&quot;background-color: transparent; color: light-dark(rgb(0, 0, 0), rgb(255, 255, 255));&quot;&gt;Jinja2 Transformer&lt;/span&gt;&lt;/div&gt;" style="rounded=0;whiteSpace=wrap;html=1;fillColor=#f5f5f5;fontColor=#333333;strokeColor=#666666;" parent="Ub6E73QtxhIhCygrAMNg-23" vertex="1">
          <mxGeometry x="180" y="130" width="120" height="60" as="geometry" />
        </mxCell>
        <mxCell id="Ub6E73QtxhIhCygrAMNg-9" style="edgeStyle=orthogonalEdgeStyle;rounded=0;orthogonalLoop=1;jettySize=auto;html=1;entryX=0.5;entryY=0;entryDx=0;entryDy=0;" parent="Ub6E73QtxhIhCygrAMNg-23" source="Ub6E73QtxhIhCygrAMNg-10" target="Ub6E73QtxhIhCygrAMNg-13" edge="1">
          <mxGeometry relative="1" as="geometry" />
        </mxCell>
        <mxCell id="Ub6E73QtxhIhCygrAMNg-18" value="&lt;div&gt;«impl»&lt;/div&gt;&lt;i&gt;Jinja2&lt;/i&gt;&lt;div&gt;UDM 2 SCIM&lt;/div&gt;&lt;div&gt;Transformer&lt;br&gt;&lt;/div&gt;" style="rounded=0;whiteSpace=wrap;html=1;fillColor=#f5f5f5;strokeColor=#666666;fontColor=#333333;" parent="Ub6E73QtxhIhCygrAMNg-23" vertex="1">
          <mxGeometry x="180" y="220" width="120" height="60" as="geometry" />
        </mxCell>
        <mxCell id="Ub6E73QtxhIhCygrAMNg-14" style="edgeStyle=orthogonalEdgeStyle;rounded=0;orthogonalLoop=1;jettySize=auto;html=1;entryX=0.5;entryY=1;entryDx=0;entryDy=0;" parent="Ub6E73QtxhIhCygrAMNg-23" source="Ub6E73QtxhIhCygrAMNg-18" target="Ub6E73QtxhIhCygrAMNg-13" edge="1">
          <mxGeometry relative="1" as="geometry" />
        </mxCell>
        <mxCell id="Ub6E73QtxhIhCygrAMNg-15" value="" style="endArrow=block;endSize=16;endFill=0;html=1;rounded=0;exitX=0;exitY=0.5;exitDx=0;exitDy=0;entryX=1;entryY=0.5;entryDx=0;entryDy=0;" parent="Ub6E73QtxhIhCygrAMNg-23" source="Ub6E73QtxhIhCygrAMNg-18" target="Ub6E73QtxhIhCygrAMNg-17" edge="1">
          <mxGeometry width="160" relative="1" as="geometry">
            <mxPoint x="360" y="272.5" as="sourcePoint" />
            <mxPoint x="140" y="160" as="targetPoint" />
          </mxGeometry>
        </mxCell>
        <mxCell id="Ub6E73QtxhIhCygrAMNg-21" value="&lt;div&gt;«port»&lt;/div&gt;Transformation model&lt;div&gt;Persistence (read)&lt;/div&gt;" style="rounded=0;whiteSpace=wrap;html=1;fillColor=#fff2cc;strokeColor=#d6b656;" parent="Ub6E73QtxhIhCygrAMNg-23" vertex="1">
          <mxGeometry x="400" y="130" width="120" height="60" as="geometry" />
        </mxCell>
        <mxCell id="Ub6E73QtxhIhCygrAMNg-5" style="edgeStyle=orthogonalEdgeStyle;rounded=0;orthogonalLoop=1;jettySize=auto;html=1;entryX=0;entryY=0.75;entryDx=0;entryDy=0;exitX=1;exitY=0.5;exitDx=0;exitDy=0;" parent="Ub6E73QtxhIhCygrAMNg-23" source="Ub6E73QtxhIhCygrAMNg-18" target="Ub6E73QtxhIhCygrAMNg-21" edge="1">
          <mxGeometry relative="1" as="geometry">
            <mxPoint x="320.0000000000002" y="69.99999999999977" as="targetPoint" />
            <Array as="points">
              <mxPoint x="300" y="240" />
              <mxPoint x="340" y="240" />
              <mxPoint x="340" y="175" />
            </Array>
          </mxGeometry>
        </mxCell>
        <mxCell id="Ub6E73QtxhIhCygrAMNg-6" value="load&lt;div&gt;udm2scim&lt;/div&gt;&lt;div style=&quot;&quot;&gt;template&lt;/div&gt;" style="edgeLabel;html=1;align=left;verticalAlign=middle;resizable=0;points=[];" parent="Ub6E73QtxhIhCygrAMNg-5" vertex="1" connectable="0">
          <mxGeometry x="-0.7249" y="6" relative="1" as="geometry">
            <mxPoint x="28" y="-14" as="offset" />
          </mxGeometry>
        </mxCell>
        <mxCell id="Ub6E73QtxhIhCygrAMNg-11" style="edgeStyle=orthogonalEdgeStyle;rounded=0;orthogonalLoop=1;jettySize=auto;html=1;entryX=0;entryY=0.25;entryDx=0;entryDy=0;exitX=1;exitY=0.5;exitDx=0;exitDy=0;" parent="Ub6E73QtxhIhCygrAMNg-23" source="Ub6E73QtxhIhCygrAMNg-10" target="Ub6E73QtxhIhCygrAMNg-21" edge="1">
          <mxGeometry relative="1" as="geometry">
            <Array as="points">
              <mxPoint x="300" y="60" />
              <mxPoint x="340" y="60" />
              <mxPoint x="340" y="145" />
            </Array>
          </mxGeometry>
        </mxCell>
        <mxCell id="Ub6E73QtxhIhCygrAMNg-12" value="load&lt;div&gt;scim2udm&lt;/div&gt;&lt;div&gt;template&lt;/div&gt;" style="edgeLabel;html=1;align=left;verticalAlign=middle;resizable=0;points=[];" parent="Ub6E73QtxhIhCygrAMNg-11" vertex="1" connectable="0">
          <mxGeometry x="-0.5567" y="-3" relative="1" as="geometry">
            <mxPoint x="10" y="18" as="offset" />
          </mxGeometry>
        </mxCell>
        <mxCell id="Ub6E73QtxhIhCygrAMNg-26" value="JSON/ YAML/&lt;div&gt;Python-dict&lt;div&gt;SCIM Model&lt;div&gt;&quot;DB&quot; (MS1)&lt;/div&gt;&lt;/div&gt;&lt;/div&gt;" style="shape=card;whiteSpace=wrap;html=1;size=20;fillColor=#dae8fc;strokeColor=#6c8ebf;" parent="amDvpkuIvS4g--GyxtjB-1" vertex="1">
          <mxGeometry x="1150" y="335" width="70" height="90" as="geometry" />
        </mxCell>
        <mxCell id="jAt3IZFoYA169n9i2Fip-40" value="JSON/ YAML/&lt;div&gt;Python-dict&lt;div&gt;Transform. Model&lt;div&gt;&quot;DB&quot; (MS1)&lt;/div&gt;&lt;/div&gt;&lt;/div&gt;" style="shape=card;whiteSpace=wrap;html=1;size=20;fillColor=#dae8fc;strokeColor=#6c8ebf;" parent="amDvpkuIvS4g--GyxtjB-1" vertex="1">
          <mxGeometry x="1530" y="315" width="70" height="90" as="geometry" />
        </mxCell>
        <mxCell id="Ub6E73QtxhIhCygrAMNg-57" style="edgeStyle=orthogonalEdgeStyle;rounded=0;orthogonalLoop=1;jettySize=auto;html=1;entryX=0;entryY=0;entryDx=0;entryDy=55;entryPerimeter=0;" parent="amDvpkuIvS4g--GyxtjB-1" source="Ub6E73QtxhIhCygrAMNg-22" target="jAt3IZFoYA169n9i2Fip-40" edge="1">
          <mxGeometry relative="1" as="geometry">
            <mxPoint x="2470" y="220" as="targetPoint" />
          </mxGeometry>
        </mxCell>
        <mxCell id="jAt3IZFoYA169n9i2Fip-14" style="edgeStyle=orthogonalEdgeStyle;rounded=0;orthogonalLoop=1;jettySize=auto;html=1;entryX=0;entryY=0.5;entryDx=0;entryDy=0;" parent="amDvpkuIvS4g--GyxtjB-1" source="Ub6E73QtxhIhCygrAMNg-90" target="jAt3IZFoYA169n9i2Fip-6" edge="1">
          <mxGeometry relative="1" as="geometry">
            <Array as="points">
              <mxPoint x="-70" y="680" />
              <mxPoint x="-70" y="580" />
            </Array>
          </mxGeometry>
        </mxCell>
        <mxCell id="jAt3IZFoYA169n9i2Fip-19" style="edgeStyle=orthogonalEdgeStyle;rounded=0;orthogonalLoop=1;jettySize=auto;html=1;entryX=0;entryY=0.5;entryDx=0;entryDy=0;" parent="amDvpkuIvS4g--GyxtjB-1" source="Ub6E73QtxhIhCygrAMNg-90" target="jAt3IZFoYA169n9i2Fip-12" edge="1">
          <mxGeometry relative="1" as="geometry">
            <Array as="points">
              <mxPoint x="-70" y="680" />
              <mxPoint x="-70" y="786" />
            </Array>
          </mxGeometry>
        </mxCell>
        <mxCell id="jAt3IZFoYA169n9i2Fip-24" style="edgeStyle=orthogonalEdgeStyle;rounded=0;orthogonalLoop=1;jettySize=auto;html=1;entryX=0;entryY=0.5;entryDx=0;entryDy=0;jumpStyle=none;" parent="amDvpkuIvS4g--GyxtjB-1" source="jAt3IZFoYA169n9i2Fip-75" target="Ub6E73QtxhIhCygrAMNg-75" edge="1">
          <mxGeometry relative="1" as="geometry">
            <Array as="points">
              <mxPoint x="300" y="580" />
              <mxPoint x="300" y="870" />
            </Array>
          </mxGeometry>
        </mxCell>
        <mxCell id="jAt3IZFoYA169n9i2Fip-25" style="edgeStyle=orthogonalEdgeStyle;rounded=0;orthogonalLoop=1;jettySize=auto;html=1;entryX=0;entryY=0.5;entryDx=0;entryDy=0;jumpStyle=none;" parent="amDvpkuIvS4g--GyxtjB-1" source="jAt3IZFoYA169n9i2Fip-86" target="Ub6E73QtxhIhCygrAMNg-75" edge="1">
          <mxGeometry relative="1" as="geometry">
            <Array as="points">
              <mxPoint x="300" y="786" />
              <mxPoint x="300" y="870" />
            </Array>
          </mxGeometry>
        </mxCell>
        <mxCell id="jAt3IZFoYA169n9i2Fip-37" style="edgeStyle=orthogonalEdgeStyle;rounded=0;orthogonalLoop=1;jettySize=auto;html=1;entryX=0;entryY=0.5;entryDx=0;entryDy=0;" parent="amDvpkuIvS4g--GyxtjB-1" source="jAt3IZFoYA169n9i2Fip-35" target="Ub6E73QtxhIhCygrAMNg-17" edge="1">
          <mxGeometry relative="1" as="geometry">
            <Array as="points">
              <mxPoint x="950" y="310" />
              <mxPoint x="950" y="230" />
            </Array>
          </mxGeometry>
        </mxCell>
        <mxCell id="Ub6E73QtxhIhCygrAMNg-27" style="edgeStyle=orthogonalEdgeStyle;rounded=0;orthogonalLoop=1;jettySize=auto;html=1;" parent="amDvpkuIvS4g--GyxtjB-1" source="Ub6E73QtxhIhCygrAMNg-28" target="Ub6E73QtxhIhCygrAMNg-26" edge="1">
          <mxGeometry relative="1" as="geometry" />
        </mxCell>
        <mxCell id="jAt3IZFoYA169n9i2Fip-47" value="FastAPI" style="rounded=0;whiteSpace=wrap;html=1;fillColor=#dae8fc;strokeColor=#6c8ebf;" parent="amDvpkuIvS4g--GyxtjB-1" vertex="1">
          <mxGeometry x="-370" y="650" width="120" height="60" as="geometry" />
        </mxCell>
        <mxCell id="jAt3IZFoYA169n9i2Fip-50" value="Authentication service" style="swimlane;whiteSpace=wrap;html=1;strokeColor=#666666;" parent="amDvpkuIvS4g--GyxtjB-1" vertex="1">
          <mxGeometry x="-40" y="1410" width="500" height="200" as="geometry" />
        </mxCell>
        <mxCell id="jAt3IZFoYA169n9i2Fip-49" value="«iface»&lt;div&gt;Authenticate&lt;/div&gt;&lt;div&gt;SCIM client&lt;/div&gt;" style="rounded=0;whiteSpace=wrap;html=1;fillColor=#fff2cc;strokeColor=#d6b656;" parent="jAt3IZFoYA169n9i2Fip-50" vertex="1">
          <mxGeometry x="20" y="40" width="120" height="60" as="geometry" />
        </mxCell>
        <mxCell id="jAt3IZFoYA169n9i2Fip-52" value="" style="endArrow=block;endSize=16;endFill=0;html=1;rounded=0;exitX=0;exitY=0.5;exitDx=0;exitDy=0;entryX=1;entryY=0.5;entryDx=0;entryDy=0;" parent="jAt3IZFoYA169n9i2Fip-50" source="jAt3IZFoYA169n9i2Fip-56" target="jAt3IZFoYA169n9i2Fip-49" edge="1">
          <mxGeometry width="160" relative="1" as="geometry">
            <mxPoint x="200" y="89.70999999999998" as="sourcePoint" />
            <mxPoint x="160" y="89.70999999999998" as="targetPoint" />
          </mxGeometry>
        </mxCell>
        <mxCell id="jAt3IZFoYA169n9i2Fip-51" value="&lt;div&gt;OAuth token validation&lt;/div&gt;" style="rounded=0;whiteSpace=wrap;html=1;fillColor=#f5f5f5;fontColor=#333333;strokeColor=#666666;" parent="jAt3IZFoYA169n9i2Fip-50" vertex="1">
          <mxGeometry x="180" y="120" width="120" height="60" as="geometry" />
        </mxCell>
        <mxCell id="jAt3IZFoYA169n9i2Fip-57" style="edgeStyle=orthogonalEdgeStyle;rounded=0;orthogonalLoop=1;jettySize=auto;html=1;entryX=0.5;entryY=0;entryDx=0;entryDy=0;" parent="jAt3IZFoYA169n9i2Fip-50" source="jAt3IZFoYA169n9i2Fip-56" target="jAt3IZFoYA169n9i2Fip-51" edge="1">
          <mxGeometry relative="1" as="geometry" />
        </mxCell>
        <mxCell id="jAt3IZFoYA169n9i2Fip-61" style="edgeStyle=orthogonalEdgeStyle;rounded=0;orthogonalLoop=1;jettySize=auto;html=1;entryX=0;entryY=0.5;entryDx=0;entryDy=0;" parent="jAt3IZFoYA169n9i2Fip-50" source="jAt3IZFoYA169n9i2Fip-56" target="jAt3IZFoYA169n9i2Fip-58" edge="1">
          <mxGeometry relative="1" as="geometry" />
        </mxCell>
        <mxCell id="jAt3IZFoYA169n9i2Fip-56" value="«impl»&lt;div&gt;&lt;span style=&quot;color: rgb(0, 0, 0);&quot;&gt;Authenticate&lt;/span&gt;&lt;/div&gt;&lt;div&gt;&lt;span style=&quot;color: rgb(0, 0, 0);&quot;&gt;SCIM client&lt;/span&gt;&lt;br&gt;&lt;/div&gt;" style="rounded=0;whiteSpace=wrap;html=1;fillColor=#f5f5f5;fontColor=#333333;strokeColor=#666666;" parent="jAt3IZFoYA169n9i2Fip-50" vertex="1">
          <mxGeometry x="180" y="40" width="120" height="60" as="geometry" />
        </mxCell>
        <mxCell id="jAt3IZFoYA169n9i2Fip-58" value="«port»&lt;div&gt;&lt;div style=&quot;color: rgb(51, 51, 51);&quot;&gt;&lt;span style=&quot;color: rgb(0, 0, 0);&quot;&gt;Authenticate&lt;/span&gt;&lt;/div&gt;&lt;div style=&quot;color: rgb(51, 51, 51);&quot;&gt;&lt;span style=&quot;color: rgb(0, 0, 0);&quot;&gt;user&lt;/span&gt;&lt;/div&gt;&lt;/div&gt;" style="rounded=0;whiteSpace=wrap;html=1;fillColor=#fff2cc;strokeColor=#d6b656;" parent="jAt3IZFoYA169n9i2Fip-50" vertex="1">
          <mxGeometry x="340" y="40" width="120" height="60" as="geometry" />
        </mxCell>
        <mxCell id="Ub6E73QtxhIhCygrAMNg-94" value="HTTP" style="edgeStyle=orthogonalEdgeStyle;rounded=0;orthogonalLoop=1;jettySize=auto;html=1;entryX=0;entryY=0.5;entryDx=0;entryDy=0;" parent="amDvpkuIvS4g--GyxtjB-1" source="Ub6E73QtxhIhCygrAMNg-50" target="Ub6E73QtxhIhCygrAMNg-93" edge="1">
          <mxGeometry relative="1" as="geometry">
            <mxPoint as="offset" />
          </mxGeometry>
        </mxCell>
        <mxCell id="Ub6E73QtxhIhCygrAMNg-95" style="edgeStyle=orthogonalEdgeStyle;rounded=0;orthogonalLoop=1;jettySize=auto;html=1;entryX=0;entryY=0.5;entryDx=0;entryDy=0;entryPerimeter=0;exitX=1;exitY=0.5;exitDx=0;exitDy=0;" parent="amDvpkuIvS4g--GyxtjB-1" source="Ub6E73QtxhIhCygrAMNg-93" target="Ub6E73QtxhIhCygrAMNg-96" edge="1">
          <mxGeometry relative="1" as="geometry" />
        </mxCell>
        <mxCell id="Ub6E73QtxhIhCygrAMNg-33" style="edgeStyle=orthogonalEdgeStyle;rounded=0;orthogonalLoop=1;jettySize=auto;html=1;entryX=0;entryY=0.5;entryDx=0;entryDy=0;jumpStyle=none;" parent="amDvpkuIvS4g--GyxtjB-1" source="Ub6E73QtxhIhCygrAMNg-42" target="Ub6E73QtxhIhCygrAMNg-44" edge="1">
          <mxGeometry relative="1" as="geometry" />
        </mxCell>
        <mxCell id="Ub6E73QtxhIhCygrAMNg-37" style="edgeStyle=orthogonalEdgeStyle;rounded=0;orthogonalLoop=1;jettySize=auto;html=1;entryX=0;entryY=0.5;entryDx=0;entryDy=0;exitX=1;exitY=0.5;exitDx=0;exitDy=0;jumpStyle=none;" parent="amDvpkuIvS4g--GyxtjB-1" source="Ub6E73QtxhIhCygrAMNg-43" target="Ub6E73QtxhIhCygrAMNg-49" edge="1">
          <mxGeometry relative="1" as="geometry" />
        </mxCell>
        <mxCell id="Ub6E73QtxhIhCygrAMNg-51" style="edgeStyle=orthogonalEdgeStyle;rounded=0;orthogonalLoop=1;jettySize=auto;html=1;entryX=0;entryY=0.5;entryDx=0;entryDy=0;exitX=1;exitY=0.5;exitDx=0;exitDy=0;" parent="amDvpkuIvS4g--GyxtjB-1" source="Ub6E73QtxhIhCygrAMNg-46" target="Ub6E73QtxhIhCygrAMNg-50" edge="1">
          <mxGeometry relative="1" as="geometry">
            <Array as="points">
              <mxPoint x="1090" y="620" />
              <mxPoint x="1090" y="665" />
            </Array>
          </mxGeometry>
        </mxCell>
        <mxCell id="Ub6E73QtxhIhCygrAMNg-52" style="edgeStyle=orthogonalEdgeStyle;rounded=0;orthogonalLoop=1;jettySize=auto;html=1;entryX=0;entryY=0.5;entryDx=0;entryDy=0;exitX=1;exitY=0.5;exitDx=0;exitDy=0;" parent="amDvpkuIvS4g--GyxtjB-1" source="Ub6E73QtxhIhCygrAMNg-48" target="Ub6E73QtxhIhCygrAMNg-50" edge="1">
          <mxGeometry relative="1" as="geometry">
            <Array as="points">
              <mxPoint x="1090" y="700" />
              <mxPoint x="1090" y="665" />
            </Array>
          </mxGeometry>
        </mxCell>
        <mxCell id="Ub6E73QtxhIhCygrAMNg-50" value="UDM REST API&lt;div&gt;client&lt;/div&gt;" style="rounded=0;whiteSpace=wrap;html=1;fillColor=#dae8fc;strokeColor=#6c8ebf;" parent="amDvpkuIvS4g--GyxtjB-1" vertex="1">
          <mxGeometry x="1160" y="635" width="120" height="60" as="geometry" />
        </mxCell>
        <mxCell id="Ub6E73QtxhIhCygrAMNg-93" value="UDM&lt;div&gt;REST API&lt;/div&gt;" style="rounded=0;whiteSpace=wrap;html=1;fillColor=#dae8fc;strokeColor=#6c8ebf;" parent="amDvpkuIvS4g--GyxtjB-1" vertex="1">
          <mxGeometry x="1350" y="635" width="120" height="60" as="geometry" />
        </mxCell>
        <mxCell id="Ub6E73QtxhIhCygrAMNg-96" value="LDAP" style="shape=cylinder3;whiteSpace=wrap;html=1;boundedLbl=1;backgroundOutline=1;size=15;fillColor=#dae8fc;strokeColor=#6c8ebf;" parent="amDvpkuIvS4g--GyxtjB-1" vertex="1">
          <mxGeometry x="1510" y="625" width="60" height="80" as="geometry" />
        </mxCell>
        <mxCell id="jAt3IZFoYA169n9i2Fip-44" value="" style="rounded=0;whiteSpace=wrap;html=1;" parent="amDvpkuIvS4g--GyxtjB-1" vertex="1">
          <mxGeometry x="1020" y="1660" width="580" height="100" as="geometry" />
        </mxCell>
        <mxCell id="jAt3IZFoYA169n9i2Fip-41" value="interface / port" style="rounded=0;whiteSpace=wrap;html=1;fillColor=#fff2cc;strokeColor=#d6b656;" parent="amDvpkuIvS4g--GyxtjB-1" vertex="1">
          <mxGeometry x="1040" y="1680" width="120" height="60" as="geometry" />
        </mxCell>
        <mxCell id="jAt3IZFoYA169n9i2Fip-42" value="adapter" style="rounded=0;whiteSpace=wrap;html=1;fillColor=#ffe6cc;strokeColor=#d79b00;" parent="amDvpkuIvS4g--GyxtjB-1" vertex="1">
          <mxGeometry x="1180" y="1680" width="120" height="60" as="geometry" />
        </mxCell>
        <mxCell id="jAt3IZFoYA169n9i2Fip-43" value="business logic" style="rounded=0;whiteSpace=wrap;html=1;fillColor=#f5f5f5;fontColor=#333333;strokeColor=#666666;" parent="amDvpkuIvS4g--GyxtjB-1" vertex="1">
          <mxGeometry x="1320" y="1680" width="120" height="60" as="geometry" />
        </mxCell>
        <mxCell id="jAt3IZFoYA169n9i2Fip-45" value="external software / system" style="rounded=0;whiteSpace=wrap;html=1;fillColor=#dae8fc;strokeColor=#6c8ebf;" parent="amDvpkuIvS4g--GyxtjB-1" vertex="1">
          <mxGeometry x="1460" y="1680" width="120" height="60" as="geometry" />
        </mxCell>
        <mxCell id="Ub6E73QtxhIhCygrAMNg-65" value="UDM REST API&lt;div&gt;client&lt;/div&gt;" style="rounded=0;whiteSpace=wrap;html=1;fillColor=#dae8fc;strokeColor=#6c8ebf;" parent="amDvpkuIvS4g--GyxtjB-1" vertex="1">
          <mxGeometry x="1160" y="920" width="120" height="60" as="geometry" />
        </mxCell>
        <mxCell id="Ub6E73QtxhIhCygrAMNg-97" value="UDM&lt;div&gt;REST API&lt;/div&gt;" style="rounded=0;whiteSpace=wrap;html=1;fillColor=#dae8fc;strokeColor=#6c8ebf;" parent="amDvpkuIvS4g--GyxtjB-1" vertex="1">
          <mxGeometry x="1350" y="920" width="120" height="60" as="geometry" />
        </mxCell>
        <mxCell id="Ub6E73QtxhIhCygrAMNg-98" value="LDAP" style="shape=cylinder3;whiteSpace=wrap;html=1;boundedLbl=1;backgroundOutline=1;size=15;fillColor=#dae8fc;strokeColor=#6c8ebf;" parent="amDvpkuIvS4g--GyxtjB-1" vertex="1">
          <mxGeometry x="1510" y="910" width="60" height="80" as="geometry" />
        </mxCell>
        <mxCell id="Ub6E73QtxhIhCygrAMNg-69" style="edgeStyle=orthogonalEdgeStyle;rounded=0;orthogonalLoop=1;jettySize=auto;html=1;entryX=0;entryY=0.5;entryDx=0;entryDy=0;exitX=1;exitY=0.5;exitDx=0;exitDy=0;" parent="amDvpkuIvS4g--GyxtjB-1" source="Ub6E73QtxhIhCygrAMNg-67" target="Ub6E73QtxhIhCygrAMNg-65" edge="1">
          <mxGeometry relative="1" as="geometry">
            <Array as="points">
              <mxPoint x="1090" y="870" />
              <mxPoint x="1090" y="950" />
            </Array>
          </mxGeometry>
        </mxCell>
        <mxCell id="Ub6E73QtxhIhCygrAMNg-71" style="edgeStyle=orthogonalEdgeStyle;rounded=0;orthogonalLoop=1;jettySize=auto;html=1;entryX=0;entryY=0.5;entryDx=0;entryDy=0;exitX=1;exitY=0.5;exitDx=0;exitDy=0;" parent="amDvpkuIvS4g--GyxtjB-1" source="Ub6E73QtxhIhCygrAMNg-68" target="Ub6E73QtxhIhCygrAMNg-65" edge="1">
          <mxGeometry relative="1" as="geometry">
            <Array as="points">
              <mxPoint x="1090" y="1030" />
              <mxPoint x="1090" y="950" />
            </Array>
          </mxGeometry>
        </mxCell>
        <mxCell id="Ub6E73QtxhIhCygrAMNg-81" style="edgeStyle=orthogonalEdgeStyle;rounded=0;orthogonalLoop=1;jettySize=auto;html=1;entryX=0;entryY=0.5;entryDx=0;entryDy=0;" parent="amDvpkuIvS4g--GyxtjB-1" source="Ub6E73QtxhIhCygrAMNg-83" target="Ub6E73QtxhIhCygrAMNg-65" edge="1">
          <mxGeometry relative="1" as="geometry" />
        </mxCell>
        <mxCell id="Ub6E73QtxhIhCygrAMNg-100" style="edgeStyle=orthogonalEdgeStyle;rounded=0;orthogonalLoop=1;jettySize=auto;html=1;entryX=0;entryY=0.5;entryDx=0;entryDy=0;" parent="amDvpkuIvS4g--GyxtjB-1" source="Ub6E73QtxhIhCygrAMNg-65" target="Ub6E73QtxhIhCygrAMNg-97" edge="1">
          <mxGeometry relative="1" as="geometry" />
        </mxCell>
        <mxCell id="Ub6E73QtxhIhCygrAMNg-101" value="HTTP" style="edgeLabel;html=1;align=center;verticalAlign=middle;resizable=0;points=[];" parent="Ub6E73QtxhIhCygrAMNg-100" vertex="1" connectable="0">
          <mxGeometry x="-0.0625" y="-3" relative="1" as="geometry">
            <mxPoint y="-3" as="offset" />
          </mxGeometry>
        </mxCell>
        <mxCell id="Ub6E73QtxhIhCygrAMNg-99" style="edgeStyle=orthogonalEdgeStyle;rounded=0;orthogonalLoop=1;jettySize=auto;html=1;entryX=0;entryY=0.5;entryDx=0;entryDy=0;entryPerimeter=0;" parent="amDvpkuIvS4g--GyxtjB-1" source="Ub6E73QtxhIhCygrAMNg-97" target="Ub6E73QtxhIhCygrAMNg-98" edge="1">
          <mxGeometry relative="1" as="geometry" />
        </mxCell>
        <mxCell id="jAt3IZFoYA169n9i2Fip-54" value="Certificate" style="shape=card;whiteSpace=wrap;html=1;size=20;fillColor=#dae8fc;strokeColor=#6c8ebf;" parent="amDvpkuIvS4g--GyxtjB-1" vertex="1">
          <mxGeometry x="490" y="1540" width="65" height="80" as="geometry" />
        </mxCell>
        <mxCell id="jAt3IZFoYA169n9i2Fip-55" style="edgeStyle=orthogonalEdgeStyle;rounded=0;orthogonalLoop=1;jettySize=auto;html=1;exitX=1;exitY=0.5;exitDx=0;exitDy=0;" parent="amDvpkuIvS4g--GyxtjB-1" source="jAt3IZFoYA169n9i2Fip-51" target="jAt3IZFoYA169n9i2Fip-54" edge="1">
          <mxGeometry relative="1" as="geometry" />
        </mxCell>
        <mxCell id="jAt3IZFoYA169n9i2Fip-62" value="Authorization service" style="swimlane;whiteSpace=wrap;html=1;strokeColor=#666666;" parent="amDvpkuIvS4g--GyxtjB-1" vertex="1">
          <mxGeometry x="-40" y="1640" width="500" height="120" as="geometry" />
        </mxCell>
        <mxCell id="jAt3IZFoYA169n9i2Fip-63" value="«iface»&lt;div&gt;&lt;span style=&quot;background-color: transparent; color: light-dark(rgb(0, 0, 0), rgb(255, 255, 255));&quot;&gt;Authorize&lt;/span&gt;&lt;/div&gt;&lt;div&gt;&lt;span style=&quot;background-color: transparent; color: light-dark(rgb(0, 0, 0), rgb(255, 255, 255));&quot;&gt;SCIM client&lt;/span&gt;&lt;br&gt;&lt;/div&gt;" style="rounded=0;whiteSpace=wrap;html=1;fillColor=#fff2cc;strokeColor=#d6b656;" parent="jAt3IZFoYA169n9i2Fip-62" vertex="1">
          <mxGeometry x="20" y="40" width="120" height="60" as="geometry" />
        </mxCell>
        <mxCell id="jAt3IZFoYA169n9i2Fip-64" value="" style="endArrow=block;endSize=16;endFill=0;html=1;rounded=0;exitX=0;exitY=0.5;exitDx=0;exitDy=0;entryX=1;entryY=0.5;entryDx=0;entryDy=0;" parent="jAt3IZFoYA169n9i2Fip-62" source="jAt3IZFoYA169n9i2Fip-68" target="jAt3IZFoYA169n9i2Fip-63" edge="1">
          <mxGeometry width="160" relative="1" as="geometry">
            <mxPoint x="200" y="89.70999999999998" as="sourcePoint" />
            <mxPoint x="160" y="89.70999999999998" as="targetPoint" />
          </mxGeometry>
        </mxCell>
        <mxCell id="jAt3IZFoYA169n9i2Fip-67" style="edgeStyle=orthogonalEdgeStyle;rounded=0;orthogonalLoop=1;jettySize=auto;html=1;entryX=0;entryY=0.5;entryDx=0;entryDy=0;" parent="jAt3IZFoYA169n9i2Fip-62" source="jAt3IZFoYA169n9i2Fip-68" target="jAt3IZFoYA169n9i2Fip-69" edge="1">
          <mxGeometry relative="1" as="geometry" />
        </mxCell>
        <mxCell id="jAt3IZFoYA169n9i2Fip-68" value="«impl»&lt;div&gt;&lt;span style=&quot;color: rgb(0, 0, 0);&quot;&gt;Authorize&lt;/span&gt;&lt;br&gt;&lt;/div&gt;&lt;div&gt;&lt;span style=&quot;color: rgb(0, 0, 0);&quot;&gt;SCIM client&lt;/span&gt;&lt;br&gt;&lt;/div&gt;" style="rounded=0;whiteSpace=wrap;html=1;fillColor=#f5f5f5;fontColor=#333333;strokeColor=#666666;" parent="jAt3IZFoYA169n9i2Fip-62" vertex="1">
          <mxGeometry x="180" y="40" width="120" height="60" as="geometry" />
        </mxCell>
        <mxCell id="jAt3IZFoYA169n9i2Fip-69" value="«port»&lt;div&gt;&lt;div style=&quot;color: rgb(51, 51, 51);&quot;&gt;&lt;span style=&quot;color: rgb(0, 0, 0);&quot;&gt;Authorize&lt;/span&gt;&lt;br&gt;&lt;/div&gt;&lt;div style=&quot;color: rgb(51, 51, 51);&quot;&gt;&lt;span style=&quot;color: rgb(0, 0, 0);&quot;&gt;user&lt;/span&gt;&lt;/div&gt;&lt;/div&gt;" style="rounded=0;whiteSpace=wrap;html=1;fillColor=#fff2cc;strokeColor=#d6b656;" parent="jAt3IZFoYA169n9i2Fip-62" vertex="1">
          <mxGeometry x="340" y="40" width="120" height="60" as="geometry" />
        </mxCell>
        <mxCell id="NcPTPTkfTRcG0QKy8i4O-26" style="edgeStyle=orthogonalEdgeStyle;rounded=0;orthogonalLoop=1;jettySize=auto;html=1;entryX=0.175;entryY=0.5;entryDx=0;entryDy=0;entryPerimeter=0;" parent="amDvpkuIvS4g--GyxtjB-1" source="jAt3IZFoYA169n9i2Fip-86" edge="1" target="NcPTPTkfTRcG0QKy8i4O-28">
          <mxGeometry relative="1" as="geometry">
            <mxPoint x="220" y="830" as="targetPoint" />
            <Array as="points">
              <mxPoint x="200" y="680" />
            </Array>
          </mxGeometry>
        </mxCell>
        <mxCell id="jAt3IZFoYA169n9i2Fip-97" value="" style="endArrow=block;endSize=16;endFill=0;html=1;rounded=0;exitX=0;exitY=0.5;exitDx=0;exitDy=0;entryX=1;entryY=0.5;entryDx=0;entryDy=0;" parent="amDvpkuIvS4g--GyxtjB-1" source="jAt3IZFoYA169n9i2Fip-90" edge="1">
          <mxGeometry width="160" relative="1" as="geometry">
            <mxPoint x="170" y="1059.8600000000001" as="sourcePoint" />
            <mxPoint x="100" y="1060" as="targetPoint" />
          </mxGeometry>
        </mxCell>
        <mxCell id="jAt3IZFoYA169n9i2Fip-101" value="" style="endArrow=block;endSize=16;endFill=0;html=1;rounded=0;exitX=0;exitY=0.5;exitDx=0;exitDy=0;entryX=1;entryY=0.5;entryDx=0;entryDy=0;" parent="amDvpkuIvS4g--GyxtjB-1" source="jAt3IZFoYA169n9i2Fip-94" edge="1">
          <mxGeometry width="160" relative="1" as="geometry">
            <mxPoint x="150" y="1190" as="sourcePoint" />
            <mxPoint x="100" y="1200" as="targetPoint" />
          </mxGeometry>
        </mxCell>
        <mxCell id="XIS54jGlL4OR7VgXtyUI-0" value="Fake Authn Backend" style="swimlane;whiteSpace=wrap;html=1;strokeColor=#666666;" parent="amDvpkuIvS4g--GyxtjB-1" vertex="1">
          <mxGeometry x="490" y="1410" width="200" height="120" as="geometry" />
        </mxCell>
        <mxCell id="jAt3IZFoYA169n9i2Fip-59" value="«adapter»&lt;div&gt;&lt;div style=&quot;&quot;&gt;&lt;i&gt;Fake user&lt;/i&gt;&lt;/div&gt;&lt;/div&gt;" style="rounded=0;whiteSpace=wrap;html=1;fillColor=#ffe6cc;strokeColor=#d79b00;" parent="XIS54jGlL4OR7VgXtyUI-0" vertex="1">
          <mxGeometry x="40" y="40" width="120" height="60" as="geometry" />
        </mxCell>
        <mxCell id="jAt3IZFoYA169n9i2Fip-60" value="" style="endArrow=block;endSize=16;endFill=0;html=1;rounded=0;exitX=0;exitY=0.5;exitDx=0;exitDy=0;entryX=1;entryY=0.5;entryDx=0;entryDy=0;" parent="amDvpkuIvS4g--GyxtjB-1" source="jAt3IZFoYA169n9i2Fip-59" target="jAt3IZFoYA169n9i2Fip-58" edge="1">
          <mxGeometry width="160" relative="1" as="geometry">
            <mxPoint x="120" y="1410" as="sourcePoint" />
            <mxPoint x="60" y="1410" as="targetPoint" />
          </mxGeometry>
        </mxCell>
        <mxCell id="XIS54jGlL4OR7VgXtyUI-1" value="Fake Authz&amp;nbsp;Backend" style="swimlane;whiteSpace=wrap;html=1;strokeColor=#666666;" parent="amDvpkuIvS4g--GyxtjB-1" vertex="1">
          <mxGeometry x="490" y="1640" width="200" height="120" as="geometry" />
        </mxCell>
        <mxCell id="jAt3IZFoYA169n9i2Fip-70" value="«adapter»&lt;div&gt;&lt;div style=&quot;&quot;&gt;&lt;i&gt;Allow all&lt;/i&gt;&lt;/div&gt;&lt;/div&gt;" style="rounded=0;whiteSpace=wrap;html=1;fillColor=#ffe6cc;strokeColor=#d79b00;" parent="XIS54jGlL4OR7VgXtyUI-1" vertex="1">
          <mxGeometry x="40" y="40" width="120" height="60" as="geometry" />
        </mxCell>
        <mxCell id="jAt3IZFoYA169n9i2Fip-71" value="" style="endArrow=block;endSize=16;endFill=0;html=1;rounded=0;exitX=0;exitY=0.5;exitDx=0;exitDy=0;entryX=1;entryY=0.5;entryDx=0;entryDy=0;" parent="amDvpkuIvS4g--GyxtjB-1" source="jAt3IZFoYA169n9i2Fip-70" target="jAt3IZFoYA169n9i2Fip-69" edge="1">
          <mxGeometry width="160" relative="1" as="geometry">
            <mxPoint x="120" y="1640" as="sourcePoint" />
            <mxPoint x="60" y="1640" as="targetPoint" />
          </mxGeometry>
        </mxCell>
        <mxCell id="XIS54jGlL4OR7VgXtyUI-4" value="Static SCIM Model Persistence" style="swimlane;whiteSpace=wrap;html=1;strokeColor=#666666;startSize=30;" parent="amDvpkuIvS4g--GyxtjB-1" vertex="1">
          <mxGeometry x="970" y="300" width="160" height="130" as="geometry" />
        </mxCell>
        <mxCell id="Ub6E73QtxhIhCygrAMNg-28" value="&lt;div&gt;«adapter»&lt;/div&gt;&lt;i&gt;static&lt;/i&gt; SCIM model&lt;div&gt;Persistence (read)&lt;/div&gt;" style="rounded=0;whiteSpace=wrap;html=1;fillColor=#ffe6cc;strokeColor=#d79b00;" parent="XIS54jGlL4OR7VgXtyUI-4" vertex="1">
          <mxGeometry x="20" y="50" width="120" height="60" as="geometry" />
        </mxCell>
        <mxCell id="XIS54jGlL4OR7VgXtyUI-5" value="Static Transf. Model Persistence" style="swimlane;whiteSpace=wrap;html=1;strokeColor=#666666;startSize=30;" parent="amDvpkuIvS4g--GyxtjB-1" vertex="1">
          <mxGeometry x="1350" y="300" width="160" height="120" as="geometry" />
        </mxCell>
        <mxCell id="Ub6E73QtxhIhCygrAMNg-22" value="&lt;div&gt;«adapter»&lt;/div&gt;&lt;i&gt;static&lt;/i&gt; Transf. model&lt;div&gt;Persistence (read)&lt;/div&gt;" style="rounded=0;whiteSpace=wrap;html=1;fillColor=#ffe6cc;strokeColor=#d79b00;" parent="XIS54jGlL4OR7VgXtyUI-5" vertex="1">
          <mxGeometry x="20" y="40" width="120" height="60" as="geometry" />
        </mxCell>
        <mxCell id="Ub6E73QtxhIhCygrAMNg-20" value="" style="endArrow=block;endSize=16;endFill=0;html=1;rounded=0;exitX=0;exitY=0.5;exitDx=0;exitDy=0;entryX=1;entryY=0.5;entryDx=0;entryDy=0;edgeStyle=orthogonalEdgeStyle;" parent="amDvpkuIvS4g--GyxtjB-1" source="Ub6E73QtxhIhCygrAMNg-28" target="Ub6E73QtxhIhCygrAMNg-29" edge="1">
          <mxGeometry width="160" relative="1" as="geometry">
            <mxPoint x="920" y="480" as="sourcePoint" />
            <mxPoint x="870" y="380" as="targetPoint" />
            <Array as="points">
              <mxPoint x="960" y="380" />
              <mxPoint x="960" y="380" />
            </Array>
          </mxGeometry>
        </mxCell>
        <mxCell id="Ub6E73QtxhIhCygrAMNg-19" value="" style="endArrow=block;endSize=16;endFill=0;html=1;rounded=0;exitX=0.5;exitY=0;exitDx=0;exitDy=0;entryX=0.5;entryY=1;entryDx=0;entryDy=0;edgeStyle=orthogonalEdgeStyle;" parent="amDvpkuIvS4g--GyxtjB-1" source="Ub6E73QtxhIhCygrAMNg-22" target="Ub6E73QtxhIhCygrAMNg-21" edge="1">
          <mxGeometry width="160" relative="1" as="geometry">
            <mxPoint x="1660" y="310" as="sourcePoint" />
            <mxPoint x="1820" y="310" as="targetPoint" />
          </mxGeometry>
        </mxCell>
        <mxCell id="Ub6E73QtxhIhCygrAMNg-1" style="edgeStyle=orthogonalEdgeStyle;rounded=0;orthogonalLoop=1;jettySize=auto;html=1;entryX=0;entryY=0.5;entryDx=0;entryDy=0;jumpStyle=arc;exitX=0.5;exitY=0;exitDx=0;exitDy=0;" parent="amDvpkuIvS4g--GyxtjB-1" source="Ub6E73QtxhIhCygrAMNg-67" target="jAt3IZFoYA169n9i2Fip-36" edge="1">
          <mxGeometry relative="1" as="geometry">
            <mxPoint x="740" y="960" as="targetPoint" />
            <Array as="points">
              <mxPoint x="1010" y="820" />
              <mxPoint x="900" y="820" />
              <mxPoint x="900" y="470" />
              <mxPoint x="330" y="470" />
              <mxPoint x="330" y="230" />
            </Array>
            <mxPoint x="740" y="880" as="sourcePoint" />
          </mxGeometry>
        </mxCell>
        <mxCell id="Ub6E73QtxhIhCygrAMNg-47" style="edgeStyle=orthogonalEdgeStyle;rounded=0;orthogonalLoop=1;jettySize=auto;html=1;entryX=0;entryY=0.5;entryDx=0;entryDy=0;exitX=0.5;exitY=0;exitDx=0;exitDy=0;jumpStyle=arc;" parent="amDvpkuIvS4g--GyxtjB-1" source="Ub6E73QtxhIhCygrAMNg-48" target="jAt3IZFoYA169n9i2Fip-35" edge="1">
          <mxGeometry relative="1" as="geometry">
            <Array as="points">
              <mxPoint x="1010" y="660" />
              <mxPoint x="910" y="660" />
              <mxPoint x="910" y="460" />
              <mxPoint x="340" y="460" />
              <mxPoint x="340" y="300" />
            </Array>
            <mxPoint x="810" y="700" as="targetPoint" />
          </mxGeometry>
        </mxCell>
        <mxCell id="Ub6E73QtxhIhCygrAMNg-0" style="edgeStyle=orthogonalEdgeStyle;rounded=0;orthogonalLoop=1;jettySize=auto;html=1;entryX=0;entryY=0.5;entryDx=0;entryDy=0;jumpStyle=arc;exitX=0.5;exitY=0;exitDx=0;exitDy=0;" parent="amDvpkuIvS4g--GyxtjB-1" source="Ub6E73QtxhIhCygrAMNg-83" target="jAt3IZFoYA169n9i2Fip-36" edge="1">
          <mxGeometry relative="1" as="geometry">
            <Array as="points">
              <mxPoint x="1010" y="910" />
              <mxPoint x="900" y="910" />
              <mxPoint x="900" y="470" />
              <mxPoint x="330" y="470" />
              <mxPoint x="330" y="230" />
            </Array>
            <mxPoint x="740" y="970" as="sourcePoint" />
          </mxGeometry>
        </mxCell>
        <mxCell id="Ub6E73QtxhIhCygrAMNg-55" style="edgeStyle=orthogonalEdgeStyle;rounded=0;orthogonalLoop=1;jettySize=auto;html=1;entryX=0;entryY=0.5;entryDx=0;entryDy=0;jumpStyle=arc;exitX=0.5;exitY=0;exitDx=0;exitDy=0;" parent="amDvpkuIvS4g--GyxtjB-1" source="Ub6E73QtxhIhCygrAMNg-46" target="jAt3IZFoYA169n9i2Fip-35" edge="1">
          <mxGeometry relative="1" as="geometry">
            <mxPoint x="740" y="440.0000000000002" as="targetPoint" />
            <Array as="points">
              <mxPoint x="1010" y="570" />
              <mxPoint x="910" y="570" />
              <mxPoint x="910" y="460" />
              <mxPoint x="340" y="460" />
              <mxPoint x="340" y="300" />
            </Array>
            <mxPoint x="750" y="570" as="sourcePoint" />
          </mxGeometry>
        </mxCell>
        <mxCell id="NcPTPTkfTRcG0QKy8i4O-19" style="edgeStyle=orthogonalEdgeStyle;rounded=0;orthogonalLoop=1;jettySize=auto;html=1;entryX=0;entryY=0.5;entryDx=0;entryDy=0;jumpStyle=arc;" parent="amDvpkuIvS4g--GyxtjB-1" source="jAt3IZFoYA169n9i2Fip-75" target="NcPTPTkfTRcG0QKy8i4O-4" edge="1">
          <mxGeometry relative="1" as="geometry">
            <Array as="points">
              <mxPoint x="200" y="-10" />
            </Array>
          </mxGeometry>
        </mxCell>
        <mxCell id="NcPTPTkfTRcG0QKy8i4O-18" style="edgeStyle=orthogonalEdgeStyle;rounded=0;orthogonalLoop=1;jettySize=auto;html=1;entryX=0;entryY=0.25;entryDx=0;entryDy=0;jumpStyle=arc;" parent="amDvpkuIvS4g--GyxtjB-1" source="jAt3IZFoYA169n9i2Fip-6" target="NcPTPTkfTRcG0QKy8i4O-1" edge="1">
          <mxGeometry relative="1" as="geometry">
            <Array as="points">
              <mxPoint x="40" y="-60" />
            </Array>
          </mxGeometry>
        </mxCell>
        <mxCell id="NcPTPTkfTRcG0QKy8i4O-27" value="«entity» Group" style="text;html=1;align=center;verticalAlign=middle;resizable=0;points=[];autosize=1;strokeColor=none;fillColor=none;" parent="amDvpkuIvS4g--GyxtjB-1" vertex="1">
          <mxGeometry x="53" y="660" width="100" height="30" as="geometry" />
        </mxCell>
        <mxCell id="NcPTPTkfTRcG0QKy8i4O-28" value="«builder»&lt;div&gt;SCIM Obj&lt;/div&gt;" style="text;html=1;align=center;verticalAlign=middle;resizable=0;points=[];autosize=1;strokeColor=none;fillColor=none;" parent="amDvpkuIvS4g--GyxtjB-1" vertex="1">
          <mxGeometry x="200" y="660" width="80" height="40" as="geometry" />
        </mxCell>
        <mxCell id="NcPTPTkfTRcG0QKy8i4O-29" value="«entity» UDM User, Group" style="text;html=1;align=center;verticalAlign=middle;resizable=0;points=[];autosize=1;strokeColor=none;fillColor=none;" parent="amDvpkuIvS4g--GyxtjB-1" vertex="1">
          <mxGeometry x="1048" y="434" width="170" height="30" as="geometry" />
        </mxCell>
        <mxCell id="NcPTPTkfTRcG0QKy8i4O-30" style="edgeStyle=orthogonalEdgeStyle;rounded=0;orthogonalLoop=1;jettySize=auto;html=1;exitX=0.75;exitY=0;exitDx=0;exitDy=0;" parent="amDvpkuIvS4g--GyxtjB-1" source="Ub6E73QtxhIhCygrAMNg-46" edge="1">
          <mxGeometry relative="1" as="geometry">
            <mxPoint x="1060" y="450" as="targetPoint" />
            <mxPoint x="1041.5" y="520" as="sourcePoint" />
            <Array as="points">
              <mxPoint x="1040" y="450" />
              <mxPoint x="1060" y="450" />
            </Array>
          </mxGeometry>
        </mxCell>
        <mxCell id="NcPTPTkfTRcG0QKy8i4O-34" value="«builder» UDM Object" style="text;html=1;align=center;verticalAlign=middle;resizable=0;points=[];autosize=1;strokeColor=none;fillColor=none;" parent="amDvpkuIvS4g--GyxtjB-1" vertex="1">
          <mxGeometry x="1052" y="454" width="140" height="30" as="geometry" />
        </mxCell>
        <mxCell id="NcPTPTkfTRcG0QKy8i4O-37" style="edgeStyle=orthogonalEdgeStyle;rounded=0;orthogonalLoop=1;jettySize=auto;html=1;exitX=0.5;exitY=0;exitDx=0;exitDy=0;entryX=0.998;entryY=0.467;entryDx=0;entryDy=0;entryPerimeter=0;" parent="amDvpkuIvS4g--GyxtjB-1" source="Ub6E73QtxhIhCygrAMNg-44" target="NcPTPTkfTRcG0QKy8i4O-35" edge="1">
          <mxGeometry relative="1" as="geometry">
            <Array as="points">
              <mxPoint x="780" y="575" />
              <mxPoint x="690" y="575" />
            </Array>
          </mxGeometry>
        </mxCell>
        <mxCell id="D1ZRb2Wd2snTBDnI8vif-0" style="edgeStyle=orthogonalEdgeStyle;rounded=0;orthogonalLoop=1;jettySize=auto;html=1;entryX=0;entryY=0.5;entryDx=0;entryDy=0;" edge="1" parent="amDvpkuIvS4g--GyxtjB-1" source="jAt3IZFoYA169n9i2Fip-86" target="Ub6E73QtxhIhCygrAMNg-85">
          <mxGeometry relative="1" as="geometry">
            <Array as="points">
              <mxPoint x="300" y="786" />
              <mxPoint x="300" y="950" />
            </Array>
          </mxGeometry>
        </mxCell>
        <mxCell id="D1ZRb2Wd2snTBDnI8vif-1" style="edgeStyle=orthogonalEdgeStyle;rounded=0;orthogonalLoop=1;jettySize=auto;html=1;entryX=0;entryY=0.5;entryDx=0;entryDy=0;" edge="1" parent="amDvpkuIvS4g--GyxtjB-1" source="jAt3IZFoYA169n9i2Fip-86" target="Ub6E73QtxhIhCygrAMNg-76">
          <mxGeometry relative="1" as="geometry">
            <Array as="points">
              <mxPoint x="300" y="786" />
              <mxPoint x="300" y="1030" />
            </Array>
          </mxGeometry>
        </mxCell>
        <mxCell id="D1ZRb2Wd2snTBDnI8vif-2" style="edgeStyle=orthogonalEdgeStyle;rounded=0;orthogonalLoop=1;jettySize=auto;html=1;entryX=0;entryY=0.5;entryDx=0;entryDy=0;" edge="1" parent="amDvpkuIvS4g--GyxtjB-1" source="jAt3IZFoYA169n9i2Fip-75" target="Ub6E73QtxhIhCygrAMNg-40">
          <mxGeometry relative="1" as="geometry">
            <Array as="points">
              <mxPoint x="300" y="580" />
              <mxPoint x="300" y="620" />
            </Array>
          </mxGeometry>
        </mxCell>
        <mxCell id="D1ZRb2Wd2snTBDnI8vif-3" style="edgeStyle=orthogonalEdgeStyle;rounded=0;orthogonalLoop=1;jettySize=auto;html=1;entryX=0;entryY=0.5;entryDx=0;entryDy=0;" edge="1" parent="amDvpkuIvS4g--GyxtjB-1" source="jAt3IZFoYA169n9i2Fip-75" target="Ub6E73QtxhIhCygrAMNg-41">
          <mxGeometry relative="1" as="geometry">
            <Array as="points">
              <mxPoint x="300" y="580" />
              <mxPoint x="300" y="700" />
            </Array>
          </mxGeometry>
        </mxCell>
        <mxCell id="D1ZRb2Wd2snTBDnI8vif-4" value="Business Rules" style="swimlane;whiteSpace=wrap;html=1;" vertex="1" parent="amDvpkuIvS4g--GyxtjB-1">
          <mxGeometry x="320" y="1130" width="600" height="230" as="geometry" />
        </mxCell>
        <mxCell id="D1ZRb2Wd2snTBDnI8vif-18" style="edgeStyle=orthogonalEdgeStyle;rounded=0;orthogonalLoop=1;jettySize=auto;html=1;entryX=0.5;entryY=0;entryDx=0;entryDy=0;" edge="1" parent="D1ZRb2Wd2snTBDnI8vif-4" source="D1ZRb2Wd2snTBDnI8vif-5" target="D1ZRb2Wd2snTBDnI8vif-17">
          <mxGeometry relative="1" as="geometry" />
        </mxCell>
        <mxCell id="D1ZRb2Wd2snTBDnI8vif-21" value="load and categorize&lt;br&gt;&lt;span style=&quot;background-color: light-dark(#ffffff, var(--ge-dark-color, #121212)); color: light-dark(rgb(0, 0, 0), rgb(255, 255, 255));&quot;&gt;Python modules&lt;/span&gt;" style="edgeLabel;html=1;align=center;verticalAlign=middle;resizable=0;points=[];" vertex="1" connectable="0" parent="D1ZRb2Wd2snTBDnI8vif-18">
          <mxGeometry x="-0.1907" relative="1" as="geometry">
            <mxPoint as="offset" />
          </mxGeometry>
        </mxCell>
        <mxCell id="D1ZRb2Wd2snTBDnI8vif-5" value="Evaluate rules" style="rounded=0;whiteSpace=wrap;html=1;fillColor=#f5f5f5;fontColor=#333333;strokeColor=#666666;" vertex="1" parent="D1ZRb2Wd2snTBDnI8vif-4">
          <mxGeometry x="20" y="40" width="120" height="60" as="geometry" />
        </mxCell>
        <mxCell id="D1ZRb2Wd2snTBDnI8vif-6" value="&lt;div&gt;«iface»&lt;/div&gt;Rule" style="rounded=0;whiteSpace=wrap;html=1;fillColor=#fff2cc;strokeColor=#d6b656;" vertex="1" parent="D1ZRb2Wd2snTBDnI8vif-4">
          <mxGeometry x="320" y="40" width="120" height="60" as="geometry" />
        </mxCell>
        <mxCell id="D1ZRb2Wd2snTBDnI8vif-8" value="Respect&lt;div&gt;immutable attrs&lt;/div&gt;" style="rounded=0;whiteSpace=wrap;html=1;fillColor=#f5f5f5;fontColor=#333333;strokeColor=#666666;" vertex="1" parent="D1ZRb2Wd2snTBDnI8vif-4">
          <mxGeometry x="180" y="150" width="120" height="60" as="geometry" />
        </mxCell>
        <mxCell id="D1ZRb2Wd2snTBDnI8vif-9" value="Update&lt;div&gt;displayName&lt;/div&gt;" style="rounded=0;whiteSpace=wrap;html=1;fillColor=#f5f5f5;fontColor=#333333;strokeColor=#666666;" vertex="1" parent="D1ZRb2Wd2snTBDnI8vif-4">
          <mxGeometry x="320" y="150" width="120" height="60" as="geometry" />
        </mxCell>
        <mxCell id="D1ZRb2Wd2snTBDnI8vif-10" value="" style="endArrow=none;html=1;endSize=12;startArrow=diamondThin;startSize=14;startFill=1;edgeStyle=orthogonalEdgeStyle;align=left;verticalAlign=bottom;rounded=0;exitX=1;exitY=0.5;exitDx=0;exitDy=0;entryX=0;entryY=0.5;entryDx=0;entryDy=0;endFill=0;" edge="1" parent="D1ZRb2Wd2snTBDnI8vif-4" source="D1ZRb2Wd2snTBDnI8vif-5" target="D1ZRb2Wd2snTBDnI8vif-6">
          <mxGeometry x="-1" y="3" relative="1" as="geometry">
            <mxPoint x="170" y="80" as="sourcePoint" />
            <mxPoint x="330" y="80" as="targetPoint" />
          </mxGeometry>
        </mxCell>
        <mxCell id="D1ZRb2Wd2snTBDnI8vif-12" value="*" style="edgeLabel;html=1;align=center;verticalAlign=middle;resizable=0;points=[];" vertex="1" connectable="0" parent="D1ZRb2Wd2snTBDnI8vif-10">
          <mxGeometry x="0.8757" relative="1" as="geometry">
            <mxPoint x="1" y="-10" as="offset" />
          </mxGeometry>
        </mxCell>
        <mxCell id="D1ZRb2Wd2snTBDnI8vif-13" value="..." style="rounded=0;whiteSpace=wrap;html=1;fillColor=#f5f5f5;fontColor=#333333;strokeColor=#666666;" vertex="1" parent="D1ZRb2Wd2snTBDnI8vif-4">
          <mxGeometry x="460" y="150" width="120" height="60" as="geometry" />
        </mxCell>
        <mxCell id="D1ZRb2Wd2snTBDnI8vif-14" value="" style="endArrow=block;endSize=16;endFill=0;html=1;rounded=0;exitX=0.5;exitY=0;exitDx=0;exitDy=0;entryX=0.5;entryY=1;entryDx=0;entryDy=0;" edge="1" parent="D1ZRb2Wd2snTBDnI8vif-4" source="D1ZRb2Wd2snTBDnI8vif-9" target="D1ZRb2Wd2snTBDnI8vif-6">
          <mxGeometry width="160" relative="1" as="geometry">
            <mxPoint x="220" y="350" as="sourcePoint" />
            <mxPoint x="110" y="350" as="targetPoint" />
          </mxGeometry>
        </mxCell>
        <mxCell id="D1ZRb2Wd2snTBDnI8vif-15" value="" style="endArrow=block;endSize=16;endFill=0;html=1;rounded=0;exitX=0.5;exitY=0;exitDx=0;exitDy=0;entryX=0.5;entryY=1;entryDx=0;entryDy=0;edgeStyle=orthogonalEdgeStyle;" edge="1" parent="D1ZRb2Wd2snTBDnI8vif-4" source="D1ZRb2Wd2snTBDnI8vif-13" target="D1ZRb2Wd2snTBDnI8vif-6">
          <mxGeometry width="160" relative="1" as="geometry">
            <mxPoint x="390" y="150" as="sourcePoint" />
            <mxPoint x="390" y="110" as="targetPoint" />
            <Array as="points">
              <mxPoint x="520" y="130" />
              <mxPoint x="380" y="130" />
            </Array>
          </mxGeometry>
        </mxCell>
        <mxCell id="D1ZRb2Wd2snTBDnI8vif-16" value="" style="endArrow=block;endSize=16;endFill=0;html=1;rounded=0;exitX=0.5;exitY=0;exitDx=0;exitDy=0;entryX=0.5;entryY=1;entryDx=0;entryDy=0;edgeStyle=orthogonalEdgeStyle;" edge="1" parent="D1ZRb2Wd2snTBDnI8vif-4" source="D1ZRb2Wd2snTBDnI8vif-8" target="D1ZRb2Wd2snTBDnI8vif-6">
          <mxGeometry width="160" relative="1" as="geometry">
            <mxPoint x="530" y="160" as="sourcePoint" />
            <mxPoint x="390" y="110" as="targetPoint" />
            <Array as="points">
              <mxPoint x="240" y="130" />
              <mxPoint x="380" y="130" />
            </Array>
          </mxGeometry>
        </mxCell>
        <mxCell id="D1ZRb2Wd2snTBDnI8vif-17" value="Rules&amp;nbsp;&lt;span style=&quot;background-color: transparent; color: light-dark(rgb(51, 51, 51), rgb(193, 193, 193));&quot;&gt;Loader&lt;/span&gt;" style="rounded=0;whiteSpace=wrap;html=1;fillColor=#f5f5f5;fontColor=#333333;strokeColor=#666666;" vertex="1" parent="D1ZRb2Wd2snTBDnI8vif-4">
          <mxGeometry x="20" y="150" width="120" height="60" as="geometry" />
        </mxCell>
        <mxCell id="D1ZRb2Wd2snTBDnI8vif-19" style="edgeStyle=orthogonalEdgeStyle;rounded=0;orthogonalLoop=1;jettySize=auto;html=1;entryX=0;entryY=0.5;entryDx=0;entryDy=0;exitX=0.5;exitY=1;exitDx=0;exitDy=0;jumpStyle=arc;" edge="1" parent="amDvpkuIvS4g--GyxtjB-1" source="jAt3IZFoYA169n9i2Fip-75" target="D1ZRb2Wd2snTBDnI8vif-5">
          <mxGeometry relative="1" as="geometry">
            <Array as="points">
              <mxPoint x="200" y="660" />
              <mxPoint x="290" y="660" />
              <mxPoint x="290" y="1200" />
            </Array>
          </mxGeometry>
        </mxCell>
        <mxCell id="D1ZRb2Wd2snTBDnI8vif-20" style="edgeStyle=orthogonalEdgeStyle;rounded=0;orthogonalLoop=1;jettySize=auto;html=1;entryX=0;entryY=0.5;entryDx=0;entryDy=0;exitX=0.5;exitY=1;exitDx=0;exitDy=0;" edge="1" parent="amDvpkuIvS4g--GyxtjB-1" source="jAt3IZFoYA169n9i2Fip-86" target="D1ZRb2Wd2snTBDnI8vif-5">
          <mxGeometry relative="1" as="geometry">
            <Array as="points">
              <mxPoint x="200" y="870" />
              <mxPoint x="290" y="870" />
              <mxPoint x="290" y="1200" />
            </Array>
          </mxGeometry>
        </mxCell>
        <mxCell id="D1ZRb2Wd2snTBDnI8vif-22" value="evaluate_create&lt;div&gt;evaluate_update&lt;/div&gt;&lt;div&gt;evaluate_delete&lt;span style=&quot;background-color: light-dark(#ffffff, var(--ge-dark-color, #121212)); color: light-dark(rgb(0, 0, 0), rgb(255, 255, 255));&quot;&gt;&lt;br&gt;&lt;/span&gt;&lt;/div&gt;" style="edgeLabel;html=1;align=left;verticalAlign=middle;resizable=0;points=[];" vertex="1" connectable="0" parent="D1ZRb2Wd2snTBDnI8vif-20">
          <mxGeometry x="0.4255" y="2" relative="1" as="geometry">
            <mxPoint x="-94" y="75" as="offset" />
          </mxGeometry>
        </mxCell>
      </root>
    </mxGraphModel>
  </diagram>
  <diagram name="ms2-overview" id="_AWg0uh2tSMtPIJaPxer">
    <mxGraphModel dx="1663" dy="955" grid="1" gridSize="10" guides="1" tooltips="1" connect="1" arrows="1" fold="1" page="1" pageScale="1" pageWidth="1600" pageHeight="900" math="0" shadow="0">
      <root>
        <mxCell id="xTUwRb2FkdHtYlZf4T5P-0" />
        <mxCell id="xTUwRb2FkdHtYlZf4T5P-1" parent="xTUwRb2FkdHtYlZf4T5P-0" />
        <mxCell id="xTUwRb2FkdHtYlZf4T5P-2" value="" style="rounded=1;whiteSpace=wrap;html=1;fillColor=#e1d5e7;strokeColor=#9673a6;" parent="xTUwRb2FkdHtYlZf4T5P-1" vertex="1">
          <mxGeometry x="30" y="180" width="650" height="220" as="geometry" />
        </mxCell>
        <mxCell id="xTUwRb2FkdHtYlZf4T5P-3" value="" style="rounded=1;whiteSpace=wrap;html=1;fillColor=#f8cecc;strokeColor=#b85450;" parent="xTUwRb2FkdHtYlZf4T5P-1" vertex="1">
          <mxGeometry x="30" y="410" width="650" height="150" as="geometry" />
        </mxCell>
        <mxCell id="xTUwRb2FkdHtYlZf4T5P-4" value="" style="rounded=1;whiteSpace=wrap;html=1;fillColor=#ffe6cc;strokeColor=#d79b00;labelBackgroundColor=light-dark(#ffe6cc, #ededed);" parent="xTUwRb2FkdHtYlZf4T5P-1" vertex="1">
          <mxGeometry x="30" y="20" width="650" height="150" as="geometry" />
        </mxCell>
        <mxCell id="xTUwRb2FkdHtYlZf4T5P-5" style="edgeStyle=orthogonalEdgeStyle;rounded=0;orthogonalLoop=1;jettySize=auto;html=1;entryX=0;entryY=0.5;entryDx=0;entryDy=0;startArrow=oval;startFill=1;startSize=8;" parent="xTUwRb2FkdHtYlZf4T5P-1" source="xTUwRb2FkdHtYlZf4T5P-7" target="xTUwRb2FkdHtYlZf4T5P-10" edge="1">
          <mxGeometry relative="1" as="geometry" />
        </mxCell>
        <mxCell id="xTUwRb2FkdHtYlZf4T5P-6" value="SCIM" style="edgeLabel;html=1;align=center;verticalAlign=middle;resizable=0;points=[];labelBackgroundColor=#FFE6CC;fontColor=light-dark(#000000,#EDEDED);" parent="xTUwRb2FkdHtYlZf4T5P-5" vertex="1" connectable="0">
          <mxGeometry x="0.4315" relative="1" as="geometry">
            <mxPoint x="19" as="offset" />
          </mxGeometry>
        </mxCell>
        <mxCell id="xTUwRb2FkdHtYlZf4T5P-7" value="SCIM&lt;br&gt;client" style="shape=umlActor;verticalLabelPosition=bottom;verticalAlign=top;html=1;outlineConnect=0;fillColor=#f5f5f5;strokeColor=#666666;fontColor=#333333;" parent="xTUwRb2FkdHtYlZf4T5P-1" vertex="1">
          <mxGeometry x="50" y="60" width="30" height="60" as="geometry" />
        </mxCell>
        <mxCell id="xTUwRb2FkdHtYlZf4T5P-8" style="edgeStyle=orthogonalEdgeStyle;rounded=0;orthogonalLoop=1;jettySize=auto;html=1;entryX=0.5;entryY=0;entryDx=0;entryDy=0;exitX=1;exitY=0.75;exitDx=0;exitDy=0;" parent="xTUwRb2FkdHtYlZf4T5P-1" source="xTUwRb2FkdHtYlZf4T5P-10" target="xTUwRb2FkdHtYlZf4T5P-18" edge="1">
          <mxGeometry relative="1" as="geometry" />
        </mxCell>
        <mxCell id="xTUwRb2FkdHtYlZf4T5P-9" value="Event (SCIM)" style="edgeLabel;html=1;align=center;verticalAlign=middle;resizable=0;points=[];labelBackgroundColor=#E1D5E7;fontColor=#000000;" parent="xTUwRb2FkdHtYlZf4T5P-8" vertex="1" connectable="0">
          <mxGeometry x="0.5173" y="2" relative="1" as="geometry">
            <mxPoint x="-1" y="29" as="offset" />
          </mxGeometry>
        </mxCell>
        <mxCell id="xTUwRb2FkdHtYlZf4T5P-10" value="&lt;div&gt;«REST»&lt;br&gt;&lt;/div&gt;SCIM" style="rounded=0;whiteSpace=wrap;html=1;fillColor=#f5f5f5;fontColor=#333333;strokeColor=#666666;" parent="xTUwRb2FkdHtYlZf4T5P-1" vertex="1">
          <mxGeometry x="320" y="60" width="120" height="60" as="geometry" />
        </mxCell>
        <mxCell id="xTUwRb2FkdHtYlZf4T5P-11" style="edgeStyle=orthogonalEdgeStyle;rounded=0;orthogonalLoop=1;jettySize=auto;html=1;entryX=0;entryY=0.75;entryDx=0;entryDy=0;exitX=0.5;exitY=0;exitDx=0;exitDy=0;" parent="xTUwRb2FkdHtYlZf4T5P-1" source="xTUwRb2FkdHtYlZf4T5P-13" target="xTUwRb2FkdHtYlZf4T5P-10" edge="1">
          <mxGeometry relative="1" as="geometry" />
        </mxCell>
        <mxCell id="xTUwRb2FkdHtYlZf4T5P-12" value="SCIM" style="edgeLabel;html=1;align=center;verticalAlign=middle;resizable=0;points=[];labelBackgroundColor=#FFE6CC;fontColor=light-dark(#000000,#EDEDED);" parent="xTUwRb2FkdHtYlZf4T5P-11" vertex="1" connectable="0">
          <mxGeometry x="0.0192" y="1" relative="1" as="geometry">
            <mxPoint x="51" y="1" as="offset" />
          </mxGeometry>
        </mxCell>
        <mxCell id="xTUwRb2FkdHtYlZf4T5P-13" value="&lt;div&gt;«Consumer»&lt;br&gt;&lt;/div&gt;UDM to SCIM" style="rounded=0;whiteSpace=wrap;html=1;fillColor=#f5f5f5;fontColor=#333333;strokeColor=#666666;" parent="xTUwRb2FkdHtYlZf4T5P-1" vertex="1">
          <mxGeometry x="140" y="190" width="120" height="60" as="geometry" />
        </mxCell>
        <mxCell id="xTUwRb2FkdHtYlZf4T5P-14" style="edgeStyle=orthogonalEdgeStyle;rounded=0;orthogonalLoop=1;jettySize=auto;html=1;entryX=0.5;entryY=1;entryDx=0;entryDy=0;exitX=0;exitY=0.25;exitDx=0;exitDy=0;" parent="xTUwRb2FkdHtYlZf4T5P-1" source="xTUwRb2FkdHtYlZf4T5P-18" target="xTUwRb2FkdHtYlZf4T5P-13" edge="1">
          <mxGeometry relative="1" as="geometry" />
        </mxCell>
        <mxCell id="xTUwRb2FkdHtYlZf4T5P-15" value="Event (UDM)" style="edgeLabel;html=1;align=center;verticalAlign=middle;resizable=0;points=[];labelBackgroundColor=#E1D5E7;fontColor=#000000;" parent="xTUwRb2FkdHtYlZf4T5P-14" vertex="1" connectable="0">
          <mxGeometry x="-0.063" y="-5" relative="1" as="geometry">
            <mxPoint x="21" y="5" as="offset" />
          </mxGeometry>
        </mxCell>
        <mxCell id="xTUwRb2FkdHtYlZf4T5P-18" value="Provisioning" style="rounded=0;whiteSpace=wrap;html=1;fillColor=#f5f5f5;fontColor=#333333;strokeColor=#666666;" parent="xTUwRb2FkdHtYlZf4T5P-1" vertex="1">
          <mxGeometry x="520" y="260" width="120" height="60" as="geometry" />
        </mxCell>
        <mxCell id="xTUwRb2FkdHtYlZf4T5P-19" value="Postgre&lt;div&gt;SQL&lt;/div&gt;" style="shape=cylinder3;whiteSpace=wrap;html=1;boundedLbl=1;backgroundOutline=1;size=15;fillColor=#f5f5f5;strokeColor=#666666;fontColor=#333333;" parent="xTUwRb2FkdHtYlZf4T5P-1" vertex="1">
          <mxGeometry x="600" y="50" width="60" height="80" as="geometry" />
        </mxCell>
        <mxCell id="xTUwRb2FkdHtYlZf4T5P-20" style="edgeStyle=orthogonalEdgeStyle;rounded=0;orthogonalLoop=1;jettySize=auto;html=1;entryX=0;entryY=0;entryDx=0;entryDy=27.5;entryPerimeter=0;" parent="xTUwRb2FkdHtYlZf4T5P-1" source="xTUwRb2FkdHtYlZf4T5P-10" target="xTUwRb2FkdHtYlZf4T5P-19" edge="1">
          <mxGeometry relative="1" as="geometry">
            <Array as="points">
              <mxPoint x="520" y="78" />
            </Array>
          </mxGeometry>
        </mxCell>
        <mxCell id="xTUwRb2FkdHtYlZf4T5P-21" value="read: SQL" style="edgeLabel;html=1;align=center;verticalAlign=middle;resizable=0;points=[];labelBackgroundColor=#FFE6CC;fontColor=light-dark(#000000,#EDEDED);" parent="xTUwRb2FkdHtYlZf4T5P-20" vertex="1" connectable="0">
          <mxGeometry x="-0.1911" y="-1" relative="1" as="geometry">
            <mxPoint x="27" y="-2" as="offset" />
          </mxGeometry>
        </mxCell>
        <mxCell id="xTUwRb2FkdHtYlZf4T5P-22" value="«REST»&lt;div&gt;UDM&lt;/div&gt;" style="rounded=0;whiteSpace=wrap;html=1;fillColor=#f5f5f5;fontColor=#333333;strokeColor=#666666;" parent="xTUwRb2FkdHtYlZf4T5P-1" vertex="1">
          <mxGeometry x="320" y="450" width="120" height="60" as="geometry" />
        </mxCell>
        <mxCell id="xTUwRb2FkdHtYlZf4T5P-23" style="edgeStyle=orthogonalEdgeStyle;rounded=0;orthogonalLoop=1;jettySize=auto;html=1;entryX=0;entryY=0.25;entryDx=0;entryDy=0;exitX=1;exitY=0.5;exitDx=0;exitDy=0;jumpStyle=arc;" parent="xTUwRb2FkdHtYlZf4T5P-1" source="xTUwRb2FkdHtYlZf4T5P-10" target="xTUwRb2FkdHtYlZf4T5P-22" edge="1">
          <mxGeometry relative="1" as="geometry">
            <Array as="points">
              <mxPoint x="480" y="90" />
              <mxPoint x="480" y="430" />
              <mxPoint x="280" y="430" />
              <mxPoint x="280" y="465" />
            </Array>
            <mxPoint x="200" y="390" as="sourcePoint" />
          </mxGeometry>
        </mxCell>
        <mxCell id="xTUwRb2FkdHtYlZf4T5P-24" value="write: 1.UDM" style="edgeLabel;html=1;align=center;verticalAlign=middle;resizable=0;points=[];labelBackgroundColor=light-dark(#ffe6cc, #512d2b);" parent="xTUwRb2FkdHtYlZf4T5P-23" vertex="1" connectable="0">
          <mxGeometry x="0.0833" y="-1" relative="1" as="geometry">
            <mxPoint x="1" y="-279" as="offset" />
          </mxGeometry>
        </mxCell>
        <mxCell id="xTUwRb2FkdHtYlZf4T5P-26" style="edgeStyle=orthogonalEdgeStyle;rounded=0;orthogonalLoop=1;jettySize=auto;html=1;entryX=0;entryY=0.5;entryDx=0;entryDy=0;startArrow=oval;startFill=1;startSize=8;" parent="xTUwRb2FkdHtYlZf4T5P-1" source="xTUwRb2FkdHtYlZf4T5P-28" target="xTUwRb2FkdHtYlZf4T5P-22" edge="1">
          <mxGeometry relative="1" as="geometry" />
        </mxCell>
        <mxCell id="xTUwRb2FkdHtYlZf4T5P-27" value="UDM" style="edgeLabel;html=1;align=center;verticalAlign=middle;resizable=0;points=[];labelBackgroundColor=#F8CECC;" parent="xTUwRb2FkdHtYlZf4T5P-26" vertex="1" connectable="0">
          <mxGeometry x="0.4865" y="-2" relative="1" as="geometry">
            <mxPoint x="1" as="offset" />
          </mxGeometry>
        </mxCell>
        <mxCell id="xTUwRb2FkdHtYlZf4T5P-28" value="UDM&lt;br&gt;client" style="shape=umlActor;verticalLabelPosition=bottom;verticalAlign=top;html=1;outlineConnect=0;fillColor=#f5f5f5;fontColor=#333333;strokeColor=#666666;" parent="xTUwRb2FkdHtYlZf4T5P-1" vertex="1">
          <mxGeometry x="50" y="450" width="30" height="60" as="geometry" />
        </mxCell>
        <mxCell id="xTUwRb2FkdHtYlZf4T5P-29" style="edgeStyle=orthogonalEdgeStyle;rounded=0;orthogonalLoop=1;jettySize=auto;html=1;entryX=0.5;entryY=1;entryDx=0;entryDy=0;startSize=8;" parent="xTUwRb2FkdHtYlZf4T5P-1" source="xTUwRb2FkdHtYlZf4T5P-31" target="xTUwRb2FkdHtYlZf4T5P-18" edge="1">
          <mxGeometry relative="1" as="geometry" />
        </mxCell>
        <mxCell id="xTUwRb2FkdHtYlZf4T5P-30" value="Event (UDM)" style="edgeLabel;html=1;align=center;verticalAlign=middle;resizable=0;points=[];labelBackgroundColor=#E1D5E7;fontColor=#000000;" parent="xTUwRb2FkdHtYlZf4T5P-29" vertex="1" connectable="0">
          <mxGeometry x="0.1379" y="-3" relative="1" as="geometry">
            <mxPoint x="-2" y="-11" as="offset" />
          </mxGeometry>
        </mxCell>
        <mxCell id="xTUwRb2FkdHtYlZf4T5P-31" value="Open&lt;br&gt;LDAP" style="shape=cylinder3;whiteSpace=wrap;html=1;boundedLbl=1;backgroundOutline=1;size=15;fillColor=#f5f5f5;fontColor=#333333;strokeColor=#666666;" parent="xTUwRb2FkdHtYlZf4T5P-1" vertex="1">
          <mxGeometry x="550" y="440" width="60" height="80" as="geometry" />
        </mxCell>
        <mxCell id="xTUwRb2FkdHtYlZf4T5P-32" style="edgeStyle=orthogonalEdgeStyle;rounded=0;orthogonalLoop=1;jettySize=auto;html=1;entryX=0;entryY=0.5;entryDx=0;entryDy=0;entryPerimeter=0;" parent="xTUwRb2FkdHtYlZf4T5P-1" source="xTUwRb2FkdHtYlZf4T5P-22" target="xTUwRb2FkdHtYlZf4T5P-31" edge="1">
          <mxGeometry relative="1" as="geometry" />
        </mxCell>
        <mxCell id="xTUwRb2FkdHtYlZf4T5P-33" value="LDAP" style="edgeLabel;html=1;align=center;verticalAlign=middle;resizable=0;points=[];labelBackgroundColor=#F8CECC;" parent="xTUwRb2FkdHtYlZf4T5P-32" vertex="1" connectable="0">
          <mxGeometry x="-0.415" y="-4" relative="1" as="geometry">
            <mxPoint x="22" y="-3" as="offset" />
          </mxGeometry>
        </mxCell>
        <mxCell id="xTUwRb2FkdHtYlZf4T5P-34" value="SCIM" style="text;html=1;align=center;verticalAlign=middle;resizable=0;points=[];autosize=1;strokeColor=none;fillColor=none;fontStyle=1;fontSize=14;" parent="xTUwRb2FkdHtYlZf4T5P-1" vertex="1">
          <mxGeometry x="610" y="140" width="60" height="30" as="geometry" />
        </mxCell>
        <mxCell id="xTUwRb2FkdHtYlZf4T5P-35" value="SYNC" style="text;html=1;align=center;verticalAlign=middle;resizable=0;points=[];autosize=1;strokeColor=none;fillColor=none;fontStyle=1;fontSize=14;" parent="xTUwRb2FkdHtYlZf4T5P-1" vertex="1">
          <mxGeometry x="610" y="370" width="60" height="30" as="geometry" />
        </mxCell>
        <mxCell id="xTUwRb2FkdHtYlZf4T5P-36" value="UDM" style="text;html=1;align=center;verticalAlign=middle;resizable=0;points=[];autosize=1;strokeColor=none;fillColor=none;fontStyle=1;fontSize=14;" parent="xTUwRb2FkdHtYlZf4T5P-1" vertex="1">
          <mxGeometry x="620" y="530" width="50" height="30" as="geometry" />
        </mxCell>
        <mxCell id="MN7FO9-qXdHVbV3fvp90-1" style="edgeStyle=orthogonalEdgeStyle;rounded=0;orthogonalLoop=1;jettySize=auto;html=1;exitX=1;exitY=0.5;exitDx=0;exitDy=0;jumpStyle=arc;" parent="xTUwRb2FkdHtYlZf4T5P-1" source="xTUwRb2FkdHtYlZf4T5P-10" target="xTUwRb2FkdHtYlZf4T5P-19" edge="1">
          <mxGeometry relative="1" as="geometry">
            <Array as="points">
              <mxPoint x="520" y="90" />
              <mxPoint x="520" y="90" />
            </Array>
          </mxGeometry>
        </mxCell>
        <mxCell id="MN7FO9-qXdHVbV3fvp90-2" value="&lt;span style=&quot;&quot;&gt;write: 2. SQL&lt;/span&gt;" style="edgeLabel;html=1;align=center;verticalAlign=middle;resizable=0;points=[];labelBackgroundColor=#FFE6CC;" parent="MN7FO9-qXdHVbV3fvp90-1" vertex="1" connectable="0">
          <mxGeometry x="0.0963" relative="1" as="geometry">
            <mxPoint x="6" as="offset" />
          </mxGeometry>
        </mxCell>
      </root>
    </mxGraphModel>
  </diagram>
  <diagram name="ms2-scim-write" id="_p6NBUGwWLN836iMNpMk">
    <mxGraphModel dx="869" dy="569" grid="1" gridSize="10" guides="1" tooltips="1" connect="1" arrows="1" fold="1" page="1" pageScale="1" pageWidth="1600" pageHeight="900" math="0" shadow="0">
      <root>
        <mxCell id="cJenclCMTq0XDN-qnSlf-0" />
        <mxCell id="cJenclCMTq0XDN-qnSlf-1" parent="cJenclCMTq0XDN-qnSlf-0" />
        <mxCell id="cJenclCMTq0XDN-qnSlf-2" value="" style="rounded=1;whiteSpace=wrap;html=1;fillColor=none;strokeColor=#9673a6;" vertex="1" parent="cJenclCMTq0XDN-qnSlf-1">
          <mxGeometry x="30" y="180" width="650" height="220" as="geometry" />
        </mxCell>
        <mxCell id="cJenclCMTq0XDN-qnSlf-3" value="" style="rounded=1;whiteSpace=wrap;html=1;fillColor=none;strokeColor=#b85450;" vertex="1" parent="cJenclCMTq0XDN-qnSlf-1">
          <mxGeometry x="30" y="410" width="650" height="150" as="geometry" />
        </mxCell>
        <mxCell id="cJenclCMTq0XDN-qnSlf-4" value="" style="rounded=1;whiteSpace=wrap;html=1;fillColor=none;strokeColor=#d79b00;labelBackgroundColor=light-dark(#ffe6cc, #ededed);" vertex="1" parent="cJenclCMTq0XDN-qnSlf-1">
          <mxGeometry x="30" y="20" width="650" height="150" as="geometry" />
        </mxCell>
        <mxCell id="cJenclCMTq0XDN-qnSlf-5" style="edgeStyle=orthogonalEdgeStyle;rounded=0;orthogonalLoop=1;jettySize=auto;html=1;entryX=0;entryY=0.5;entryDx=0;entryDy=0;startArrow=oval;startFill=1;strokeWidth=2;strokeColor=#6c8ebf;startSize=8;fillColor=#dae8fc;" edge="1" parent="cJenclCMTq0XDN-qnSlf-1" source="cJenclCMTq0XDN-qnSlf-7" target="cJenclCMTq0XDN-qnSlf-10">
          <mxGeometry relative="1" as="geometry" />
        </mxCell>
        <mxCell id="cJenclCMTq0XDN-qnSlf-6" value="SCIM" style="edgeLabel;html=1;align=center;verticalAlign=middle;resizable=0;points=[];labelBackgroundColor=default;fontColor=default;" vertex="1" connectable="0" parent="cJenclCMTq0XDN-qnSlf-5">
          <mxGeometry x="0.4315" relative="1" as="geometry">
            <mxPoint x="19" as="offset" />
          </mxGeometry>
        </mxCell>
        <mxCell id="cJenclCMTq0XDN-qnSlf-7" value="SCIM&lt;br&gt;client" style="shape=umlActor;verticalLabelPosition=bottom;verticalAlign=top;html=1;outlineConnect=0;fillColor=#f5f5f5;strokeColor=#666666;fontColor=#333333;" vertex="1" parent="cJenclCMTq0XDN-qnSlf-1">
          <mxGeometry x="50" y="60" width="30" height="60" as="geometry" />
        </mxCell>
        <mxCell id="cJenclCMTq0XDN-qnSlf-8" style="edgeStyle=orthogonalEdgeStyle;rounded=0;orthogonalLoop=1;jettySize=auto;html=1;entryX=0.5;entryY=0;entryDx=0;entryDy=0;exitX=1;exitY=0.75;exitDx=0;exitDy=0;strokeWidth=2;strokeColor=#6c8ebf;fillColor=#dae8fc;" edge="1" parent="cJenclCMTq0XDN-qnSlf-1" source="cJenclCMTq0XDN-qnSlf-10" target="cJenclCMTq0XDN-qnSlf-16">
          <mxGeometry relative="1" as="geometry" />
        </mxCell>
        <mxCell id="cJenclCMTq0XDN-qnSlf-9" value="Event (SCIM)" style="edgeLabel;html=1;align=center;verticalAlign=middle;resizable=0;points=[];labelBackgroundColor=default;fontColor=default;" vertex="1" connectable="0" parent="cJenclCMTq0XDN-qnSlf-8">
          <mxGeometry x="0.5173" y="2" relative="1" as="geometry">
            <mxPoint x="-1" y="29" as="offset" />
          </mxGeometry>
        </mxCell>
        <mxCell id="cJenclCMTq0XDN-qnSlf-10" value="&lt;div&gt;«REST»&lt;br&gt;&lt;/div&gt;SCIM" style="rounded=0;whiteSpace=wrap;html=1;fillColor=#f5f5f5;fontColor=#333333;strokeColor=#666666;" vertex="1" parent="cJenclCMTq0XDN-qnSlf-1">
          <mxGeometry x="320" y="60" width="120" height="60" as="geometry" />
        </mxCell>
        <mxCell id="cJenclCMTq0XDN-qnSlf-11" style="edgeStyle=orthogonalEdgeStyle;rounded=0;orthogonalLoop=1;jettySize=auto;html=1;entryX=0;entryY=0.75;entryDx=0;entryDy=0;exitX=0.5;exitY=0;exitDx=0;exitDy=0;strokeWidth=2;strokeColor=#FFCC99;" edge="1" parent="cJenclCMTq0XDN-qnSlf-1" source="cJenclCMTq0XDN-qnSlf-13" target="cJenclCMTq0XDN-qnSlf-10">
          <mxGeometry relative="1" as="geometry" />
        </mxCell>
        <mxCell id="cJenclCMTq0XDN-qnSlf-12" value="SCIM" style="edgeLabel;html=1;align=center;verticalAlign=middle;resizable=0;points=[];labelBackgroundColor=default;fontColor=default;" vertex="1" connectable="0" parent="cJenclCMTq0XDN-qnSlf-11">
          <mxGeometry x="0.0192" y="1" relative="1" as="geometry">
            <mxPoint x="51" y="1" as="offset" />
          </mxGeometry>
        </mxCell>
        <mxCell id="cJenclCMTq0XDN-qnSlf-13" value="&lt;div&gt;«Consumer»&lt;br&gt;&lt;/div&gt;UDM to SCIM" style="rounded=0;whiteSpace=wrap;html=1;fillColor=#f5f5f5;fontColor=#333333;strokeColor=#666666;" vertex="1" parent="cJenclCMTq0XDN-qnSlf-1">
          <mxGeometry x="140" y="190" width="120" height="60" as="geometry" />
        </mxCell>
        <mxCell id="cJenclCMTq0XDN-qnSlf-14" style="edgeStyle=orthogonalEdgeStyle;rounded=0;orthogonalLoop=1;jettySize=auto;html=1;entryX=0.5;entryY=1;entryDx=0;entryDy=0;exitX=0;exitY=0.25;exitDx=0;exitDy=0;strokeWidth=2;strokeColor=#FFCC99;" edge="1" parent="cJenclCMTq0XDN-qnSlf-1" source="cJenclCMTq0XDN-qnSlf-16" target="cJenclCMTq0XDN-qnSlf-13">
          <mxGeometry relative="1" as="geometry" />
        </mxCell>
        <mxCell id="cJenclCMTq0XDN-qnSlf-15" value="Event (UDM)" style="edgeLabel;html=1;align=center;verticalAlign=middle;resizable=0;points=[];labelBackgroundColor=default;fontColor=default;" vertex="1" connectable="0" parent="cJenclCMTq0XDN-qnSlf-14">
          <mxGeometry x="-0.063" y="-5" relative="1" as="geometry">
            <mxPoint x="21" y="5" as="offset" />
          </mxGeometry>
        </mxCell>
        <mxCell id="cJenclCMTq0XDN-qnSlf-16" value="Provisioning" style="rounded=0;whiteSpace=wrap;html=1;fillColor=#f5f5f5;fontColor=#333333;strokeColor=#666666;" vertex="1" parent="cJenclCMTq0XDN-qnSlf-1">
          <mxGeometry x="520" y="260" width="120" height="60" as="geometry" />
        </mxCell>
        <mxCell id="cJenclCMTq0XDN-qnSlf-17" value="Postgre&lt;div&gt;SQL&lt;/div&gt;" style="shape=cylinder3;whiteSpace=wrap;html=1;boundedLbl=1;backgroundOutline=1;size=15;fillColor=#f5f5f5;strokeColor=#666666;fontColor=#333333;" vertex="1" parent="cJenclCMTq0XDN-qnSlf-1">
          <mxGeometry x="600" y="50" width="60" height="80" as="geometry" />
        </mxCell>
        <mxCell id="cJenclCMTq0XDN-qnSlf-20" value="«REST»&lt;div&gt;UDM&lt;/div&gt;" style="rounded=0;whiteSpace=wrap;html=1;fillColor=#f5f5f5;fontColor=#333333;strokeColor=#666666;" vertex="1" parent="cJenclCMTq0XDN-qnSlf-1">
          <mxGeometry x="320" y="450" width="120" height="60" as="geometry" />
        </mxCell>
        <mxCell id="cJenclCMTq0XDN-qnSlf-21" style="edgeStyle=orthogonalEdgeStyle;rounded=0;orthogonalLoop=1;jettySize=auto;html=1;entryX=0;entryY=0.25;entryDx=0;entryDy=0;exitX=1;exitY=0.5;exitDx=0;exitDy=0;jumpStyle=arc;strokeWidth=2;strokeColor=#6c8ebf;fillColor=#dae8fc;" edge="1" parent="cJenclCMTq0XDN-qnSlf-1" source="cJenclCMTq0XDN-qnSlf-10" target="cJenclCMTq0XDN-qnSlf-20">
          <mxGeometry relative="1" as="geometry">
            <Array as="points">
              <mxPoint x="480" y="90" />
              <mxPoint x="480" y="430" />
              <mxPoint x="280" y="430" />
              <mxPoint x="280" y="465" />
            </Array>
            <mxPoint x="200" y="390" as="sourcePoint" />
          </mxGeometry>
        </mxCell>
        <mxCell id="cJenclCMTq0XDN-qnSlf-22" value="write: 1.UDM" style="edgeLabel;html=1;align=center;verticalAlign=middle;resizable=0;points=[];labelBackgroundColor=default;fontColor=default;" vertex="1" connectable="0" parent="cJenclCMTq0XDN-qnSlf-21">
          <mxGeometry x="0.0833" y="-1" relative="1" as="geometry">
            <mxPoint x="1" y="-279" as="offset" />
          </mxGeometry>
        </mxCell>
        <mxCell id="cJenclCMTq0XDN-qnSlf-28" value="Open&lt;br&gt;LDAP" style="shape=cylinder3;whiteSpace=wrap;html=1;boundedLbl=1;backgroundOutline=1;size=15;fillColor=#f5f5f5;fontColor=#333333;strokeColor=#666666;" vertex="1" parent="cJenclCMTq0XDN-qnSlf-1">
          <mxGeometry x="550" y="440" width="60" height="80" as="geometry" />
        </mxCell>
        <mxCell id="cJenclCMTq0XDN-qnSlf-29" style="edgeStyle=orthogonalEdgeStyle;rounded=0;orthogonalLoop=1;jettySize=auto;html=1;entryX=0;entryY=0.5;entryDx=0;entryDy=0;entryPerimeter=0;strokeWidth=2;strokeColor=#6c8ebf;fillColor=#dae8fc;" edge="1" parent="cJenclCMTq0XDN-qnSlf-1" source="cJenclCMTq0XDN-qnSlf-20" target="cJenclCMTq0XDN-qnSlf-28">
          <mxGeometry relative="1" as="geometry" />
        </mxCell>
        <mxCell id="cJenclCMTq0XDN-qnSlf-30" value="LDAP" style="edgeLabel;html=1;align=center;verticalAlign=middle;resizable=0;points=[];labelBackgroundColor=default;fontColor=default;" vertex="1" connectable="0" parent="cJenclCMTq0XDN-qnSlf-29">
          <mxGeometry x="-0.415" y="-4" relative="1" as="geometry">
            <mxPoint x="22" y="-3" as="offset" />
          </mxGeometry>
        </mxCell>
        <mxCell id="cJenclCMTq0XDN-qnSlf-31" value="SCIM" style="text;html=1;align=center;verticalAlign=middle;resizable=0;points=[];autosize=1;strokeColor=none;fillColor=none;fontStyle=1;fontSize=14;" vertex="1" parent="cJenclCMTq0XDN-qnSlf-1">
          <mxGeometry x="610" y="140" width="60" height="30" as="geometry" />
        </mxCell>
        <mxCell id="cJenclCMTq0XDN-qnSlf-32" value="SYNC" style="text;html=1;align=center;verticalAlign=middle;resizable=0;points=[];autosize=1;strokeColor=none;fillColor=none;fontStyle=1;fontSize=14;" vertex="1" parent="cJenclCMTq0XDN-qnSlf-1">
          <mxGeometry x="610" y="370" width="60" height="30" as="geometry" />
        </mxCell>
        <mxCell id="cJenclCMTq0XDN-qnSlf-33" value="UDM" style="text;html=1;align=center;verticalAlign=middle;resizable=0;points=[];autosize=1;strokeColor=none;fillColor=none;fontStyle=1;fontSize=14;" vertex="1" parent="cJenclCMTq0XDN-qnSlf-1">
          <mxGeometry x="620" y="530" width="50" height="30" as="geometry" />
        </mxCell>
        <mxCell id="cJenclCMTq0XDN-qnSlf-34" style="edgeStyle=orthogonalEdgeStyle;rounded=0;orthogonalLoop=1;jettySize=auto;html=1;exitX=1;exitY=0.5;exitDx=0;exitDy=0;jumpStyle=arc;strokeWidth=2;strokeColor=#6c8ebf;fillColor=#dae8fc;" edge="1" parent="cJenclCMTq0XDN-qnSlf-1" source="cJenclCMTq0XDN-qnSlf-10" target="cJenclCMTq0XDN-qnSlf-17">
          <mxGeometry relative="1" as="geometry">
            <Array as="points">
              <mxPoint x="520" y="90" />
              <mxPoint x="520" y="90" />
            </Array>
          </mxGeometry>
        </mxCell>
        <mxCell id="cJenclCMTq0XDN-qnSlf-35" value="&lt;span style=&quot;&quot;&gt;write: 2. SQL&lt;/span&gt;" style="edgeLabel;html=1;align=center;verticalAlign=middle;resizable=0;points=[];labelBackgroundColor=default;fontColor=default;" vertex="1" connectable="0" parent="cJenclCMTq0XDN-qnSlf-34">
          <mxGeometry x="0.0963" relative="1" as="geometry">
            <mxPoint x="6" as="offset" />
          </mxGeometry>
        </mxCell>
        <mxCell id="cJenclCMTq0XDN-qnSlf-26" style="edgeStyle=orthogonalEdgeStyle;rounded=0;orthogonalLoop=1;jettySize=auto;html=1;entryX=0.5;entryY=1;entryDx=0;entryDy=0;strokeWidth=2;strokeColor=#FFCC99;startArrow=oval;startFill=1;startSize=8;" edge="1" parent="cJenclCMTq0XDN-qnSlf-1" source="cJenclCMTq0XDN-qnSlf-28" target="cJenclCMTq0XDN-qnSlf-16">
          <mxGeometry relative="1" as="geometry" />
        </mxCell>
        <mxCell id="cJenclCMTq0XDN-qnSlf-27" value="Event (UDM)" style="edgeLabel;html=1;align=center;verticalAlign=middle;resizable=0;points=[];labelBackgroundColor=default;fontColor=default;" vertex="1" connectable="0" parent="cJenclCMTq0XDN-qnSlf-26">
          <mxGeometry x="0.1379" y="-3" relative="1" as="geometry">
            <mxPoint x="-2" y="-11" as="offset" />
          </mxGeometry>
        </mxCell>
      </root>
    </mxGraphModel>
  </diagram>
  <diagram name="ms2-udm-write" id="9toEcGiW-5oOi-_rwZ8K">
    <mxGraphModel dx="1050" dy="688" grid="1" gridSize="10" guides="1" tooltips="1" connect="1" arrows="1" fold="1" page="1" pageScale="1" pageWidth="1600" pageHeight="900" math="0" shadow="0">
      <root>
        <mxCell id="b_184bS24r_mB6HiD0GS-0" />
        <mxCell id="b_184bS24r_mB6HiD0GS-1" parent="b_184bS24r_mB6HiD0GS-0" />
        <mxCell id="b_184bS24r_mB6HiD0GS-2" value="" style="rounded=1;whiteSpace=wrap;html=1;fillColor=none;strokeColor=#9673a6;" vertex="1" parent="b_184bS24r_mB6HiD0GS-1">
          <mxGeometry x="30" y="180" width="650" height="220" as="geometry" />
        </mxCell>
        <mxCell id="b_184bS24r_mB6HiD0GS-3" value="" style="rounded=1;whiteSpace=wrap;html=1;fillColor=none;strokeColor=#b85450;" vertex="1" parent="b_184bS24r_mB6HiD0GS-1">
          <mxGeometry x="30" y="410" width="650" height="150" as="geometry" />
        </mxCell>
        <mxCell id="b_184bS24r_mB6HiD0GS-4" value="" style="rounded=1;whiteSpace=wrap;html=1;fillColor=none;strokeColor=#d79b00;labelBackgroundColor=light-dark(#ffe6cc, #ededed);" vertex="1" parent="b_184bS24r_mB6HiD0GS-1">
          <mxGeometry x="30" y="20" width="650" height="150" as="geometry" />
        </mxCell>
        <mxCell id="b_184bS24r_mB6HiD0GS-10" value="&lt;div&gt;«REST»&lt;br&gt;&lt;/div&gt;SCIM" style="rounded=0;whiteSpace=wrap;html=1;fillColor=#f5f5f5;fontColor=#333333;strokeColor=#666666;" vertex="1" parent="b_184bS24r_mB6HiD0GS-1">
          <mxGeometry x="320" y="60" width="120" height="60" as="geometry" />
        </mxCell>
        <mxCell id="b_184bS24r_mB6HiD0GS-11" style="edgeStyle=orthogonalEdgeStyle;rounded=0;orthogonalLoop=1;jettySize=auto;html=1;entryX=0;entryY=0.75;entryDx=0;entryDy=0;exitX=0.5;exitY=0;exitDx=0;exitDy=0;strokeWidth=2;strokeColor=#6c8ebf;fillColor=#dae8fc;" edge="1" parent="b_184bS24r_mB6HiD0GS-1" source="b_184bS24r_mB6HiD0GS-13" target="b_184bS24r_mB6HiD0GS-10">
          <mxGeometry relative="1" as="geometry" />
        </mxCell>
        <mxCell id="b_184bS24r_mB6HiD0GS-12" value="SCIM" style="edgeLabel;html=1;align=center;verticalAlign=middle;resizable=0;points=[];labelBackgroundColor=default;fontColor=default;" vertex="1" connectable="0" parent="b_184bS24r_mB6HiD0GS-11">
          <mxGeometry x="0.0192" y="1" relative="1" as="geometry">
            <mxPoint x="51" y="1" as="offset" />
          </mxGeometry>
        </mxCell>
        <mxCell id="b_184bS24r_mB6HiD0GS-13" value="&lt;div&gt;«Consumer»&lt;br&gt;&lt;/div&gt;UDM to SCIM" style="rounded=0;whiteSpace=wrap;html=1;fillColor=#f5f5f5;fontColor=#333333;strokeColor=#666666;" vertex="1" parent="b_184bS24r_mB6HiD0GS-1">
          <mxGeometry x="140" y="190" width="120" height="60" as="geometry" />
        </mxCell>
        <mxCell id="b_184bS24r_mB6HiD0GS-14" style="edgeStyle=orthogonalEdgeStyle;rounded=0;orthogonalLoop=1;jettySize=auto;html=1;entryX=0.5;entryY=1;entryDx=0;entryDy=0;exitX=0;exitY=0.25;exitDx=0;exitDy=0;strokeWidth=2;strokeColor=#6c8ebf;fillColor=#dae8fc;" edge="1" parent="b_184bS24r_mB6HiD0GS-1" source="b_184bS24r_mB6HiD0GS-16" target="b_184bS24r_mB6HiD0GS-13">
          <mxGeometry relative="1" as="geometry" />
        </mxCell>
        <mxCell id="b_184bS24r_mB6HiD0GS-15" value="Event (UDM)" style="edgeLabel;html=1;align=center;verticalAlign=middle;resizable=0;points=[];labelBackgroundColor=default;fontColor=default;" vertex="1" connectable="0" parent="b_184bS24r_mB6HiD0GS-14">
          <mxGeometry x="-0.063" y="-5" relative="1" as="geometry">
            <mxPoint x="21" y="5" as="offset" />
          </mxGeometry>
        </mxCell>
        <mxCell id="b_184bS24r_mB6HiD0GS-16" value="Provisioning" style="rounded=0;whiteSpace=wrap;html=1;fillColor=#f5f5f5;fontColor=#333333;strokeColor=#666666;" vertex="1" parent="b_184bS24r_mB6HiD0GS-1">
          <mxGeometry x="520" y="260" width="120" height="60" as="geometry" />
        </mxCell>
        <mxCell id="b_184bS24r_mB6HiD0GS-17" value="Postgre&lt;div&gt;SQL&lt;/div&gt;" style="shape=cylinder3;whiteSpace=wrap;html=1;boundedLbl=1;backgroundOutline=1;size=15;fillColor=#f5f5f5;strokeColor=#666666;fontColor=#333333;" vertex="1" parent="b_184bS24r_mB6HiD0GS-1">
          <mxGeometry x="600" y="50" width="60" height="80" as="geometry" />
        </mxCell>
        <mxCell id="b_184bS24r_mB6HiD0GS-20" value="«REST»&lt;div&gt;UDM&lt;/div&gt;" style="rounded=0;whiteSpace=wrap;html=1;fillColor=#f5f5f5;fontColor=#333333;strokeColor=#666666;" vertex="1" parent="b_184bS24r_mB6HiD0GS-1">
          <mxGeometry x="320" y="450" width="120" height="60" as="geometry" />
        </mxCell>
        <mxCell id="b_184bS24r_mB6HiD0GS-23" style="edgeStyle=orthogonalEdgeStyle;rounded=0;orthogonalLoop=1;jettySize=auto;html=1;entryX=0;entryY=0.5;entryDx=0;entryDy=0;startArrow=oval;startFill=1;strokeWidth=2;strokeColor=#6c8ebf;fillColor=#dae8fc;startSize=8;" edge="1" parent="b_184bS24r_mB6HiD0GS-1" source="b_184bS24r_mB6HiD0GS-25" target="b_184bS24r_mB6HiD0GS-20">
          <mxGeometry relative="1" as="geometry" />
        </mxCell>
        <mxCell id="b_184bS24r_mB6HiD0GS-24" value="UDM" style="edgeLabel;html=1;align=center;verticalAlign=middle;resizable=0;points=[];labelBackgroundColor=default;fontColor=default;" vertex="1" connectable="0" parent="b_184bS24r_mB6HiD0GS-23">
          <mxGeometry x="0.4865" y="-2" relative="1" as="geometry">
            <mxPoint x="1" as="offset" />
          </mxGeometry>
        </mxCell>
        <mxCell id="b_184bS24r_mB6HiD0GS-25" value="UDM&lt;br&gt;client" style="shape=umlActor;verticalLabelPosition=bottom;verticalAlign=top;html=1;outlineConnect=0;fillColor=#f5f5f5;fontColor=#333333;strokeColor=#666666;" vertex="1" parent="b_184bS24r_mB6HiD0GS-1">
          <mxGeometry x="50" y="450" width="30" height="60" as="geometry" />
        </mxCell>
        <mxCell id="b_184bS24r_mB6HiD0GS-26" style="edgeStyle=orthogonalEdgeStyle;rounded=0;orthogonalLoop=1;jettySize=auto;html=1;entryX=0.5;entryY=1;entryDx=0;entryDy=0;strokeWidth=2;strokeColor=#6c8ebf;fillColor=#dae8fc;" edge="1" parent="b_184bS24r_mB6HiD0GS-1" source="b_184bS24r_mB6HiD0GS-28" target="b_184bS24r_mB6HiD0GS-16">
          <mxGeometry relative="1" as="geometry" />
        </mxCell>
        <mxCell id="b_184bS24r_mB6HiD0GS-27" value="Event (UDM)" style="edgeLabel;html=1;align=center;verticalAlign=middle;resizable=0;points=[];labelBackgroundColor=default;fontColor=default;" vertex="1" connectable="0" parent="b_184bS24r_mB6HiD0GS-26">
          <mxGeometry x="0.1379" y="-3" relative="1" as="geometry">
            <mxPoint x="-2" y="-11" as="offset" />
          </mxGeometry>
        </mxCell>
        <mxCell id="b_184bS24r_mB6HiD0GS-28" value="Open&lt;br&gt;LDAP" style="shape=cylinder3;whiteSpace=wrap;html=1;boundedLbl=1;backgroundOutline=1;size=15;fillColor=#f5f5f5;fontColor=#333333;strokeColor=#666666;" vertex="1" parent="b_184bS24r_mB6HiD0GS-1">
          <mxGeometry x="550" y="440" width="60" height="80" as="geometry" />
        </mxCell>
        <mxCell id="b_184bS24r_mB6HiD0GS-29" style="edgeStyle=orthogonalEdgeStyle;rounded=0;orthogonalLoop=1;jettySize=auto;html=1;entryX=0;entryY=0.5;entryDx=0;entryDy=0;entryPerimeter=0;strokeWidth=2;strokeColor=#6c8ebf;fillColor=#dae8fc;" edge="1" parent="b_184bS24r_mB6HiD0GS-1" source="b_184bS24r_mB6HiD0GS-20" target="b_184bS24r_mB6HiD0GS-28">
          <mxGeometry relative="1" as="geometry" />
        </mxCell>
        <mxCell id="b_184bS24r_mB6HiD0GS-30" value="LDAP" style="edgeLabel;html=1;align=center;verticalAlign=middle;resizable=0;points=[];labelBackgroundColor=default;fontColor=default;" vertex="1" connectable="0" parent="b_184bS24r_mB6HiD0GS-29">
          <mxGeometry x="-0.415" y="-4" relative="1" as="geometry">
            <mxPoint x="22" y="-3" as="offset" />
          </mxGeometry>
        </mxCell>
        <mxCell id="b_184bS24r_mB6HiD0GS-31" value="SCIM" style="text;html=1;align=center;verticalAlign=middle;resizable=0;points=[];autosize=1;strokeColor=none;fillColor=none;fontStyle=1;fontSize=14;" vertex="1" parent="b_184bS24r_mB6HiD0GS-1">
          <mxGeometry x="610" y="140" width="60" height="30" as="geometry" />
        </mxCell>
        <mxCell id="b_184bS24r_mB6HiD0GS-32" value="SYNC" style="text;html=1;align=center;verticalAlign=middle;resizable=0;points=[];autosize=1;strokeColor=none;fillColor=none;fontStyle=1;fontSize=14;" vertex="1" parent="b_184bS24r_mB6HiD0GS-1">
          <mxGeometry x="610" y="370" width="60" height="30" as="geometry" />
        </mxCell>
        <mxCell id="b_184bS24r_mB6HiD0GS-33" value="UDM" style="text;html=1;align=center;verticalAlign=middle;resizable=0;points=[];autosize=1;strokeColor=none;fillColor=none;fontStyle=1;fontSize=14;" vertex="1" parent="b_184bS24r_mB6HiD0GS-1">
          <mxGeometry x="620" y="530" width="50" height="30" as="geometry" />
        </mxCell>
        <mxCell id="b_184bS24r_mB6HiD0GS-34" style="edgeStyle=orthogonalEdgeStyle;rounded=0;orthogonalLoop=1;jettySize=auto;html=1;exitX=1;exitY=0.5;exitDx=0;exitDy=0;jumpStyle=arc;strokeWidth=2;strokeColor=#6c8ebf;fillColor=#dae8fc;" edge="1" parent="b_184bS24r_mB6HiD0GS-1" source="b_184bS24r_mB6HiD0GS-10" target="b_184bS24r_mB6HiD0GS-17">
          <mxGeometry relative="1" as="geometry">
            <Array as="points">
              <mxPoint x="520" y="90" />
              <mxPoint x="520" y="90" />
            </Array>
          </mxGeometry>
        </mxCell>
        <mxCell id="b_184bS24r_mB6HiD0GS-35" value="&lt;span style=&quot;&quot;&gt;SQL&lt;/span&gt;" style="edgeLabel;html=1;align=center;verticalAlign=middle;resizable=0;points=[];labelBackgroundColor=default;fontColor=default;" vertex="1" connectable="0" parent="b_184bS24r_mB6HiD0GS-34">
          <mxGeometry x="0.0963" relative="1" as="geometry">
            <mxPoint x="6" as="offset" />
          </mxGeometry>
        </mxCell>
        <mxCell id="b_184bS24r_mB6HiD0GS-8" style="edgeStyle=orthogonalEdgeStyle;rounded=0;orthogonalLoop=1;jettySize=auto;html=1;entryX=0.5;entryY=0;entryDx=0;entryDy=0;exitX=1;exitY=0.75;exitDx=0;exitDy=0;strokeWidth=2;strokeColor=#FFCC99;startArrow=oval;startFill=1;startSize=8;" edge="1" parent="b_184bS24r_mB6HiD0GS-1" source="b_184bS24r_mB6HiD0GS-10" target="b_184bS24r_mB6HiD0GS-16">
          <mxGeometry relative="1" as="geometry" />
        </mxCell>
        <mxCell id="b_184bS24r_mB6HiD0GS-9" value="Event (SCIM)" style="edgeLabel;html=1;align=center;verticalAlign=middle;resizable=0;points=[];labelBackgroundColor=default;fontColor=default;" vertex="1" connectable="0" parent="b_184bS24r_mB6HiD0GS-8">
          <mxGeometry x="0.5173" y="2" relative="1" as="geometry">
            <mxPoint x="-1" y="29" as="offset" />
          </mxGeometry>
        </mxCell>
      </root>
    </mxGraphModel>
  </diagram>
  <diagram name="ms3-overview" id="RWviR8wRRE84UMTZmnUE">
    <mxGraphModel dx="869" dy="569" grid="1" gridSize="10" guides="1" tooltips="1" connect="1" arrows="1" fold="1" page="1" pageScale="1" pageWidth="1600" pageHeight="900" math="0" shadow="0">
      <root>
        <mxCell id="0" />
        <mxCell id="1" parent="0" />
        <mxCell id="PXwqRu1-N0nUc8JTFPLA-5" value="" style="rounded=1;whiteSpace=wrap;html=1;fillColor=#e1d5e7;strokeColor=#9673a6;" parent="1" vertex="1">
          <mxGeometry x="30" y="180" width="650" height="220" as="geometry" />
        </mxCell>
        <mxCell id="PXwqRu1-N0nUc8JTFPLA-2" value="" style="rounded=1;whiteSpace=wrap;html=1;fillColor=#f8cecc;strokeColor=#b85450;" parent="1" vertex="1">
          <mxGeometry x="30" y="410" width="650" height="150" as="geometry" />
        </mxCell>
        <mxCell id="PXwqRu1-N0nUc8JTFPLA-1" value="" style="rounded=1;whiteSpace=wrap;html=1;fillColor=#ffe6cc;strokeColor=#d79b00;" parent="1" vertex="1">
          <mxGeometry x="30" y="20" width="650" height="150" as="geometry" />
        </mxCell>
        <mxCell id="Kp2bTgHju6G-PVMKry6a-3" style="edgeStyle=orthogonalEdgeStyle;rounded=0;orthogonalLoop=1;jettySize=auto;html=1;entryX=0;entryY=0.5;entryDx=0;entryDy=0;startArrow=oval;startFill=1;startSize=8;" parent="1" source="Kp2bTgHju6G-PVMKry6a-1" target="Kp2bTgHju6G-PVMKry6a-2" edge="1">
          <mxGeometry relative="1" as="geometry" />
        </mxCell>
        <mxCell id="Kp2bTgHju6G-PVMKry6a-28" value="SCIM" style="edgeLabel;html=1;align=center;verticalAlign=middle;resizable=0;points=[];labelBackgroundColor=#FFE6CC;fontColor=light-dark(#000000,#EDEDED);" parent="Kp2bTgHju6G-PVMKry6a-3" vertex="1" connectable="0">
          <mxGeometry x="0.4315" relative="1" as="geometry">
            <mxPoint x="18" as="offset" />
          </mxGeometry>
        </mxCell>
        <mxCell id="Kp2bTgHju6G-PVMKry6a-1" value="SCIM&lt;br&gt;client" style="shape=umlActor;verticalLabelPosition=bottom;verticalAlign=top;html=1;outlineConnect=0;fillColor=#f5f5f5;strokeColor=#666666;fontColor=#333333;" parent="1" vertex="1">
          <mxGeometry x="50" y="60" width="30" height="60" as="geometry" />
        </mxCell>
        <mxCell id="Kp2bTgHju6G-PVMKry6a-9" style="edgeStyle=orthogonalEdgeStyle;rounded=0;orthogonalLoop=1;jettySize=auto;html=1;entryX=0.5;entryY=0;entryDx=0;entryDy=0;exitX=1;exitY=0.75;exitDx=0;exitDy=0;" parent="1" source="Kp2bTgHju6G-PVMKry6a-2" target="Kp2bTgHju6G-PVMKry6a-6" edge="1">
          <mxGeometry relative="1" as="geometry" />
        </mxCell>
        <mxCell id="Kp2bTgHju6G-PVMKry6a-22" value="Event (SCIM)" style="edgeLabel;html=1;align=center;verticalAlign=middle;resizable=0;points=[];labelBackgroundColor=#E1D5E7;fontColor=#000000;" parent="Kp2bTgHju6G-PVMKry6a-9" vertex="1" connectable="0">
          <mxGeometry x="0.5173" y="2" relative="1" as="geometry">
            <mxPoint x="-1" y="29" as="offset" />
          </mxGeometry>
        </mxCell>
        <mxCell id="Kp2bTgHju6G-PVMKry6a-2" value="&lt;div&gt;«REST»&lt;br&gt;&lt;/div&gt;SCIM" style="rounded=0;whiteSpace=wrap;html=1;fillColor=#f5f5f5;fontColor=#333333;strokeColor=#666666;" parent="1" vertex="1">
          <mxGeometry x="320" y="60" width="120" height="60" as="geometry" />
        </mxCell>
        <mxCell id="Kp2bTgHju6G-PVMKry6a-5" style="edgeStyle=orthogonalEdgeStyle;rounded=0;orthogonalLoop=1;jettySize=auto;html=1;entryX=0;entryY=0.75;entryDx=0;entryDy=0;exitX=0.5;exitY=0;exitDx=0;exitDy=0;" parent="1" source="Kp2bTgHju6G-PVMKry6a-4" target="Kp2bTgHju6G-PVMKry6a-2" edge="1">
          <mxGeometry relative="1" as="geometry" />
        </mxCell>
        <mxCell id="Kp2bTgHju6G-PVMKry6a-29" value="SCIM" style="edgeLabel;html=1;align=center;verticalAlign=middle;resizable=0;points=[];labelBackgroundColor=#FFE6CC;fontColor=light-dark(#000000,#EDEDED);" parent="Kp2bTgHju6G-PVMKry6a-5" vertex="1" connectable="0">
          <mxGeometry x="0.0192" y="1" relative="1" as="geometry">
            <mxPoint x="51" y="1" as="offset" />
          </mxGeometry>
        </mxCell>
        <mxCell id="Kp2bTgHju6G-PVMKry6a-4" value="&lt;div&gt;«Consumer»&lt;br&gt;&lt;/div&gt;UDM to SCIM" style="rounded=0;whiteSpace=wrap;html=1;fillColor=#f5f5f5;fontColor=#333333;strokeColor=#666666;" parent="1" vertex="1">
          <mxGeometry x="140" y="190" width="120" height="60" as="geometry" />
        </mxCell>
        <mxCell id="Kp2bTgHju6G-PVMKry6a-15" style="edgeStyle=orthogonalEdgeStyle;rounded=0;orthogonalLoop=1;jettySize=auto;html=1;entryX=0.5;entryY=1;entryDx=0;entryDy=0;exitX=0;exitY=0.25;exitDx=0;exitDy=0;" parent="1" source="Kp2bTgHju6G-PVMKry6a-6" target="Kp2bTgHju6G-PVMKry6a-4" edge="1">
          <mxGeometry relative="1" as="geometry" />
        </mxCell>
        <mxCell id="Kp2bTgHju6G-PVMKry6a-20" value="Event (UDM)" style="edgeLabel;html=1;align=center;verticalAlign=middle;resizable=0;points=[];labelBackgroundColor=#E1D5E7;fontColor=#000000;" parent="Kp2bTgHju6G-PVMKry6a-15" vertex="1" connectable="0">
          <mxGeometry x="-0.063" y="-5" relative="1" as="geometry">
            <mxPoint x="21" y="5" as="offset" />
          </mxGeometry>
        </mxCell>
        <mxCell id="Kp2bTgHju6G-PVMKry6a-16" style="edgeStyle=orthogonalEdgeStyle;rounded=0;orthogonalLoop=1;jettySize=auto;html=1;entryX=0.5;entryY=0;entryDx=0;entryDy=0;exitX=0;exitY=0.75;exitDx=0;exitDy=0;" parent="1" source="Kp2bTgHju6G-PVMKry6a-6" target="Kp2bTgHju6G-PVMKry6a-11" edge="1">
          <mxGeometry relative="1" as="geometry" />
        </mxCell>
        <mxCell id="Kp2bTgHju6G-PVMKry6a-21" value="Event (SCIM)" style="edgeLabel;html=1;align=center;verticalAlign=middle;resizable=0;points=[];labelBackgroundColor=#E1D5E7;fontColor=#000000;" parent="Kp2bTgHju6G-PVMKry6a-16" vertex="1" connectable="0">
          <mxGeometry x="0.077" y="5" relative="1" as="geometry">
            <mxPoint x="46" y="-5" as="offset" />
          </mxGeometry>
        </mxCell>
        <mxCell id="Kp2bTgHju6G-PVMKry6a-6" value="Provisioning" style="rounded=0;whiteSpace=wrap;html=1;fillColor=#f5f5f5;fontColor=#333333;strokeColor=#666666;" parent="1" vertex="1">
          <mxGeometry x="520" y="260" width="120" height="60" as="geometry" />
        </mxCell>
        <mxCell id="Kp2bTgHju6G-PVMKry6a-7" value="Postgre&lt;div&gt;SQL&lt;/div&gt;" style="shape=cylinder3;whiteSpace=wrap;html=1;boundedLbl=1;backgroundOutline=1;size=15;fillColor=#f5f5f5;strokeColor=#666666;fontColor=#333333;" parent="1" vertex="1">
          <mxGeometry x="600" y="50" width="60" height="80" as="geometry" />
        </mxCell>
        <mxCell id="Kp2bTgHju6G-PVMKry6a-8" style="edgeStyle=orthogonalEdgeStyle;rounded=0;orthogonalLoop=1;jettySize=auto;html=1;entryX=0;entryY=0.5;entryDx=0;entryDy=0;entryPerimeter=0;exitX=1;exitY=0.5;exitDx=0;exitDy=0;" parent="1" source="Kp2bTgHju6G-PVMKry6a-2" target="Kp2bTgHju6G-PVMKry6a-7" edge="1">
          <mxGeometry relative="1" as="geometry" />
        </mxCell>
        <mxCell id="Kp2bTgHju6G-PVMKry6a-24" value="SQL" style="edgeLabel;html=1;align=center;verticalAlign=middle;resizable=0;points=[];labelBackgroundColor=#FFE6CC;fontColor=light-dark(#000000,#EDEDED);" parent="Kp2bTgHju6G-PVMKry6a-8" vertex="1" connectable="0">
          <mxGeometry x="-0.1911" y="-1" relative="1" as="geometry">
            <mxPoint as="offset" />
          </mxGeometry>
        </mxCell>
        <mxCell id="Kp2bTgHju6G-PVMKry6a-10" value="«REST»&lt;div&gt;UDM&lt;/div&gt;" style="rounded=0;whiteSpace=wrap;html=1;fillColor=#f5f5f5;fontColor=#333333;strokeColor=#666666;" parent="1" vertex="1">
          <mxGeometry x="320" y="450" width="120" height="60" as="geometry" />
        </mxCell>
        <mxCell id="Kp2bTgHju6G-PVMKry6a-12" style="edgeStyle=orthogonalEdgeStyle;rounded=0;orthogonalLoop=1;jettySize=auto;html=1;entryX=0;entryY=0.25;entryDx=0;entryDy=0;exitX=0.5;exitY=1;exitDx=0;exitDy=0;" parent="1" source="Kp2bTgHju6G-PVMKry6a-11" target="Kp2bTgHju6G-PVMKry6a-10" edge="1">
          <mxGeometry relative="1" as="geometry">
            <Array as="points">
              <mxPoint x="200" y="465" />
            </Array>
          </mxGeometry>
        </mxCell>
        <mxCell id="Kp2bTgHju6G-PVMKry6a-27" value="UDM" style="edgeLabel;html=1;align=center;verticalAlign=middle;resizable=0;points=[];labelBackgroundColor=#F8CECC;" parent="Kp2bTgHju6G-PVMKry6a-12" vertex="1" connectable="0">
          <mxGeometry x="0.0833" y="-1" relative="1" as="geometry">
            <mxPoint x="29" y="-1" as="offset" />
          </mxGeometry>
        </mxCell>
        <mxCell id="Kp2bTgHju6G-PVMKry6a-11" value="«Consumer»&lt;div&gt;SCIM to UDM&lt;/div&gt;" style="rounded=0;whiteSpace=wrap;html=1;fillColor=#f5f5f5;fontColor=#333333;strokeColor=#666666;" parent="1" vertex="1">
          <mxGeometry x="140" y="330" width="120" height="60" as="geometry" />
        </mxCell>
        <mxCell id="Kp2bTgHju6G-PVMKry6a-14" style="edgeStyle=orthogonalEdgeStyle;rounded=0;orthogonalLoop=1;jettySize=auto;html=1;entryX=0;entryY=0.5;entryDx=0;entryDy=0;startArrow=oval;startFill=1;startSize=8;" parent="1" source="Kp2bTgHju6G-PVMKry6a-13" target="Kp2bTgHju6G-PVMKry6a-10" edge="1">
          <mxGeometry relative="1" as="geometry" />
        </mxCell>
        <mxCell id="Kp2bTgHju6G-PVMKry6a-26" value="UDM" style="edgeLabel;html=1;align=center;verticalAlign=middle;resizable=0;points=[];labelBackgroundColor=#F8CECC;" parent="Kp2bTgHju6G-PVMKry6a-14" vertex="1" connectable="0">
          <mxGeometry x="0.4865" y="-2" relative="1" as="geometry">
            <mxPoint x="1" as="offset" />
          </mxGeometry>
        </mxCell>
        <mxCell id="Kp2bTgHju6G-PVMKry6a-13" value="UDM&lt;br&gt;client" style="shape=umlActor;verticalLabelPosition=bottom;verticalAlign=top;html=1;outlineConnect=0;fillColor=#f5f5f5;fontColor=#333333;strokeColor=#666666;" parent="1" vertex="1">
          <mxGeometry x="50" y="450" width="30" height="60" as="geometry" />
        </mxCell>
        <mxCell id="Kp2bTgHju6G-PVMKry6a-19" style="edgeStyle=orthogonalEdgeStyle;rounded=0;orthogonalLoop=1;jettySize=auto;html=1;entryX=0.5;entryY=1;entryDx=0;entryDy=0;" parent="1" source="Kp2bTgHju6G-PVMKry6a-17" target="Kp2bTgHju6G-PVMKry6a-6" edge="1">
          <mxGeometry relative="1" as="geometry" />
        </mxCell>
        <mxCell id="Kp2bTgHju6G-PVMKry6a-23" value="Event (UDM)" style="edgeLabel;html=1;align=center;verticalAlign=middle;resizable=0;points=[];labelBackgroundColor=#E1D5E7;fontColor=#000000;" parent="Kp2bTgHju6G-PVMKry6a-19" vertex="1" connectable="0">
          <mxGeometry x="0.1379" y="-3" relative="1" as="geometry">
            <mxPoint x="-2" y="-11" as="offset" />
          </mxGeometry>
        </mxCell>
        <mxCell id="Kp2bTgHju6G-PVMKry6a-17" value="Open&lt;br&gt;LDAP" style="shape=cylinder3;whiteSpace=wrap;html=1;boundedLbl=1;backgroundOutline=1;size=15;fillColor=#f5f5f5;fontColor=#333333;strokeColor=#666666;" parent="1" vertex="1">
          <mxGeometry x="550" y="440" width="60" height="80" as="geometry" />
        </mxCell>
        <mxCell id="Kp2bTgHju6G-PVMKry6a-18" style="edgeStyle=orthogonalEdgeStyle;rounded=0;orthogonalLoop=1;jettySize=auto;html=1;entryX=0;entryY=0.5;entryDx=0;entryDy=0;entryPerimeter=0;" parent="1" source="Kp2bTgHju6G-PVMKry6a-10" target="Kp2bTgHju6G-PVMKry6a-17" edge="1">
          <mxGeometry relative="1" as="geometry" />
        </mxCell>
        <mxCell id="Kp2bTgHju6G-PVMKry6a-25" value="LDAP" style="edgeLabel;html=1;align=center;verticalAlign=middle;resizable=0;points=[];labelBackgroundColor=#F8CECC;" parent="Kp2bTgHju6G-PVMKry6a-18" vertex="1" connectable="0">
          <mxGeometry x="-0.415" y="-4" relative="1" as="geometry">
            <mxPoint x="22" y="-3" as="offset" />
          </mxGeometry>
        </mxCell>
        <mxCell id="PXwqRu1-N0nUc8JTFPLA-7" value="SCIM" style="text;html=1;align=center;verticalAlign=middle;resizable=0;points=[];autosize=1;strokeColor=none;fillColor=none;fontStyle=1;fontSize=14;" parent="1" vertex="1">
          <mxGeometry x="610" y="140" width="60" height="30" as="geometry" />
        </mxCell>
        <mxCell id="PXwqRu1-N0nUc8JTFPLA-8" value="SYNC" style="text;html=1;align=center;verticalAlign=middle;resizable=0;points=[];autosize=1;strokeColor=none;fillColor=none;fontStyle=1;fontSize=14;" parent="1" vertex="1">
          <mxGeometry x="610" y="370" width="60" height="30" as="geometry" />
        </mxCell>
        <mxCell id="PXwqRu1-N0nUc8JTFPLA-9" value="UDM" style="text;html=1;align=center;verticalAlign=middle;resizable=0;points=[];autosize=1;strokeColor=none;fillColor=none;fontStyle=1;fontSize=14;" parent="1" vertex="1">
          <mxGeometry x="620" y="530" width="50" height="30" as="geometry" />
        </mxCell>
      </root>
    </mxGraphModel>
  </diagram>
  <diagram name="ms3-scim-write" id="jAPn1wiUyfnHvw07sput">
    <mxGraphModel dx="869" dy="569" grid="1" gridSize="10" guides="1" tooltips="1" connect="1" arrows="1" fold="1" page="1" pageScale="1" pageWidth="1600" pageHeight="900" math="0" shadow="0">
      <root>
        <mxCell id="5ZNrDJCFBHBHqdxOVkbr-0" />
        <mxCell id="5ZNrDJCFBHBHqdxOVkbr-1" parent="5ZNrDJCFBHBHqdxOVkbr-0" />
        <mxCell id="5ZNrDJCFBHBHqdxOVkbr-2" value="" style="rounded=1;whiteSpace=wrap;html=1;fillColor=none;strokeColor=#9673a6;" parent="5ZNrDJCFBHBHqdxOVkbr-1" vertex="1">
          <mxGeometry x="30" y="180" width="650" height="220" as="geometry" />
        </mxCell>
        <mxCell id="5ZNrDJCFBHBHqdxOVkbr-3" value="" style="rounded=1;whiteSpace=wrap;html=1;fillColor=none;strokeColor=#b85450;" parent="5ZNrDJCFBHBHqdxOVkbr-1" vertex="1">
          <mxGeometry x="30" y="410" width="650" height="150" as="geometry" />
        </mxCell>
        <mxCell id="5ZNrDJCFBHBHqdxOVkbr-4" value="" style="rounded=1;whiteSpace=wrap;html=1;fillColor=none;strokeColor=#d79b00;" parent="5ZNrDJCFBHBHqdxOVkbr-1" vertex="1">
          <mxGeometry x="30" y="20" width="650" height="150" as="geometry" />
        </mxCell>
        <mxCell id="5ZNrDJCFBHBHqdxOVkbr-7" value="SCIM&lt;br&gt;client" style="shape=umlActor;verticalLabelPosition=bottom;verticalAlign=top;html=1;outlineConnect=0;fillColor=#f5f5f5;strokeColor=#666666;fontColor=#333333;" parent="5ZNrDJCFBHBHqdxOVkbr-1" vertex="1">
          <mxGeometry x="50" y="60" width="30" height="60" as="geometry" />
        </mxCell>
        <mxCell id="5ZNrDJCFBHBHqdxOVkbr-8" style="edgeStyle=orthogonalEdgeStyle;rounded=0;orthogonalLoop=1;jettySize=auto;html=1;entryX=0.5;entryY=0;entryDx=0;entryDy=0;exitX=1;exitY=0.75;exitDx=0;exitDy=0;strokeWidth=2;strokeColor=#6c8ebf;fillColor=#dae8fc;" parent="5ZNrDJCFBHBHqdxOVkbr-1" source="5ZNrDJCFBHBHqdxOVkbr-10" target="5ZNrDJCFBHBHqdxOVkbr-18" edge="1">
          <mxGeometry relative="1" as="geometry" />
        </mxCell>
        <mxCell id="5ZNrDJCFBHBHqdxOVkbr-9" value="Event (SCIM)" style="edgeLabel;html=1;align=center;verticalAlign=middle;resizable=0;points=[];labelBackgroundColor=default;fontColor=#000000;" parent="5ZNrDJCFBHBHqdxOVkbr-8" vertex="1" connectable="0">
          <mxGeometry x="0.5173" y="2" relative="1" as="geometry">
            <mxPoint x="-1" y="29" as="offset" />
          </mxGeometry>
        </mxCell>
        <mxCell id="5ZNrDJCFBHBHqdxOVkbr-10" value="&lt;div&gt;«REST»&lt;/div&gt;SCIM" style="rounded=0;whiteSpace=wrap;html=1;fillColor=#f5f5f5;fontColor=#333333;strokeColor=#666666;" parent="5ZNrDJCFBHBHqdxOVkbr-1" vertex="1">
          <mxGeometry x="320" y="60" width="120" height="60" as="geometry" />
        </mxCell>
        <mxCell id="5ZNrDJCFBHBHqdxOVkbr-11" style="edgeStyle=orthogonalEdgeStyle;rounded=0;orthogonalLoop=1;jettySize=auto;html=1;entryX=0;entryY=0.75;entryDx=0;entryDy=0;exitX=0.5;exitY=0;exitDx=0;exitDy=0;strokeWidth=2;strokeColor=#FFCC99;" parent="5ZNrDJCFBHBHqdxOVkbr-1" source="5ZNrDJCFBHBHqdxOVkbr-13" target="5ZNrDJCFBHBHqdxOVkbr-10" edge="1">
          <mxGeometry relative="1" as="geometry" />
        </mxCell>
        <mxCell id="5ZNrDJCFBHBHqdxOVkbr-12" value="SCIM" style="edgeLabel;html=1;align=center;verticalAlign=middle;resizable=0;points=[];labelBackgroundColor=default;fontColor=light-dark(#000000,#EDEDED);" parent="5ZNrDJCFBHBHqdxOVkbr-11" vertex="1" connectable="0">
          <mxGeometry x="0.0192" y="1" relative="1" as="geometry">
            <mxPoint x="51" y="1" as="offset" />
          </mxGeometry>
        </mxCell>
        <mxCell id="5ZNrDJCFBHBHqdxOVkbr-13" value="«Consumer»&lt;div&gt;UDM to SCIM&lt;/div&gt;" style="rounded=0;whiteSpace=wrap;html=1;fillColor=#f5f5f5;fontColor=#333333;strokeColor=#666666;" parent="5ZNrDJCFBHBHqdxOVkbr-1" vertex="1">
          <mxGeometry x="140" y="190" width="120" height="60" as="geometry" />
        </mxCell>
        <mxCell id="5ZNrDJCFBHBHqdxOVkbr-14" style="edgeStyle=orthogonalEdgeStyle;rounded=0;orthogonalLoop=1;jettySize=auto;html=1;entryX=0.5;entryY=1;entryDx=0;entryDy=0;exitX=0;exitY=0.25;exitDx=0;exitDy=0;strokeWidth=2;strokeColor=#FFCC99;" parent="5ZNrDJCFBHBHqdxOVkbr-1" source="5ZNrDJCFBHBHqdxOVkbr-18" target="5ZNrDJCFBHBHqdxOVkbr-13" edge="1">
          <mxGeometry relative="1" as="geometry" />
        </mxCell>
        <mxCell id="5ZNrDJCFBHBHqdxOVkbr-15" value="Event (UDM)" style="edgeLabel;html=1;align=center;verticalAlign=middle;resizable=0;points=[];labelBackgroundColor=default;fontColor=#000000;" parent="5ZNrDJCFBHBHqdxOVkbr-14" vertex="1" connectable="0">
          <mxGeometry x="-0.063" y="-5" relative="1" as="geometry">
            <mxPoint x="21" y="5" as="offset" />
          </mxGeometry>
        </mxCell>
        <mxCell id="5ZNrDJCFBHBHqdxOVkbr-16" style="edgeStyle=orthogonalEdgeStyle;rounded=0;orthogonalLoop=1;jettySize=auto;html=1;entryX=0.5;entryY=0;entryDx=0;entryDy=0;exitX=0;exitY=0.75;exitDx=0;exitDy=0;strokeWidth=2;strokeColor=#6c8ebf;fillColor=#dae8fc;" parent="5ZNrDJCFBHBHqdxOVkbr-1" source="5ZNrDJCFBHBHqdxOVkbr-18" target="5ZNrDJCFBHBHqdxOVkbr-25" edge="1">
          <mxGeometry relative="1" as="geometry" />
        </mxCell>
        <mxCell id="5ZNrDJCFBHBHqdxOVkbr-17" value="Event (SCIM)" style="edgeLabel;html=1;align=center;verticalAlign=middle;resizable=0;points=[];labelBackgroundColor=default;fontColor=#000000;" parent="5ZNrDJCFBHBHqdxOVkbr-16" vertex="1" connectable="0">
          <mxGeometry x="0.077" y="5" relative="1" as="geometry">
            <mxPoint x="46" y="-5" as="offset" />
          </mxGeometry>
        </mxCell>
        <mxCell id="5ZNrDJCFBHBHqdxOVkbr-18" value="Provisioning" style="rounded=0;whiteSpace=wrap;html=1;fillColor=#f5f5f5;fontColor=#333333;strokeColor=#666666;" parent="5ZNrDJCFBHBHqdxOVkbr-1" vertex="1">
          <mxGeometry x="520" y="260" width="120" height="60" as="geometry" />
        </mxCell>
        <mxCell id="5ZNrDJCFBHBHqdxOVkbr-19" value="Postgre&lt;div&gt;SQL&lt;/div&gt;" style="shape=cylinder3;whiteSpace=wrap;html=1;boundedLbl=1;backgroundOutline=1;size=15;fillColor=#f5f5f5;strokeColor=#666666;fontColor=#333333;" parent="5ZNrDJCFBHBHqdxOVkbr-1" vertex="1">
          <mxGeometry x="600" y="50" width="60" height="80" as="geometry" />
        </mxCell>
        <mxCell id="5ZNrDJCFBHBHqdxOVkbr-20" style="edgeStyle=orthogonalEdgeStyle;rounded=0;orthogonalLoop=1;jettySize=auto;html=1;entryX=0;entryY=0.5;entryDx=0;entryDy=0;entryPerimeter=0;exitX=1;exitY=0.5;exitDx=0;exitDy=0;strokeWidth=2;strokeColor=#6c8ebf;fillColor=#dae8fc;" parent="5ZNrDJCFBHBHqdxOVkbr-1" source="5ZNrDJCFBHBHqdxOVkbr-10" target="5ZNrDJCFBHBHqdxOVkbr-19" edge="1">
          <mxGeometry relative="1" as="geometry" />
        </mxCell>
        <mxCell id="5ZNrDJCFBHBHqdxOVkbr-21" value="SQL" style="edgeLabel;html=1;align=center;verticalAlign=middle;resizable=0;points=[];labelBackgroundColor=default;fontColor=light-dark(#000000,#EDEDED);" parent="5ZNrDJCFBHBHqdxOVkbr-20" vertex="1" connectable="0">
          <mxGeometry x="-0.1911" y="-1" relative="1" as="geometry">
            <mxPoint as="offset" />
          </mxGeometry>
        </mxCell>
        <mxCell id="5ZNrDJCFBHBHqdxOVkbr-22" value="&lt;div&gt;«REST»&lt;br&gt;&lt;/div&gt;UDM" style="rounded=0;whiteSpace=wrap;html=1;fillColor=#f5f5f5;fontColor=#333333;strokeColor=#666666;" parent="5ZNrDJCFBHBHqdxOVkbr-1" vertex="1">
          <mxGeometry x="320" y="450" width="120" height="60" as="geometry" />
        </mxCell>
        <mxCell id="5ZNrDJCFBHBHqdxOVkbr-23" style="edgeStyle=orthogonalEdgeStyle;rounded=0;orthogonalLoop=1;jettySize=auto;html=1;entryX=0;entryY=0.25;entryDx=0;entryDy=0;exitX=0.5;exitY=1;exitDx=0;exitDy=0;strokeWidth=2;strokeColor=#6c8ebf;fillColor=#dae8fc;" parent="5ZNrDJCFBHBHqdxOVkbr-1" source="5ZNrDJCFBHBHqdxOVkbr-25" target="5ZNrDJCFBHBHqdxOVkbr-22" edge="1">
          <mxGeometry relative="1" as="geometry">
            <Array as="points">
              <mxPoint x="200" y="465" />
            </Array>
          </mxGeometry>
        </mxCell>
        <mxCell id="5ZNrDJCFBHBHqdxOVkbr-24" value="UDM" style="edgeLabel;html=1;align=center;verticalAlign=middle;resizable=0;points=[];labelBackgroundColor=default;" parent="5ZNrDJCFBHBHqdxOVkbr-23" vertex="1" connectable="0">
          <mxGeometry x="0.0833" y="-1" relative="1" as="geometry">
            <mxPoint x="29" y="-1" as="offset" />
          </mxGeometry>
        </mxCell>
        <mxCell id="5ZNrDJCFBHBHqdxOVkbr-25" value="«Consumer»&lt;div&gt;SCIM to UDM&lt;/div&gt;" style="rounded=0;whiteSpace=wrap;html=1;fillColor=#f5f5f5;fontColor=#333333;strokeColor=#666666;" parent="5ZNrDJCFBHBHqdxOVkbr-1" vertex="1">
          <mxGeometry x="140" y="330" width="120" height="60" as="geometry" />
        </mxCell>
        <mxCell id="5ZNrDJCFBHBHqdxOVkbr-31" value="Open&lt;br&gt;LDAP" style="shape=cylinder3;whiteSpace=wrap;html=1;boundedLbl=1;backgroundOutline=1;size=15;fillColor=#f5f5f5;fontColor=#333333;strokeColor=#666666;" parent="5ZNrDJCFBHBHqdxOVkbr-1" vertex="1">
          <mxGeometry x="550" y="440" width="60" height="80" as="geometry" />
        </mxCell>
        <mxCell id="5ZNrDJCFBHBHqdxOVkbr-32" style="edgeStyle=orthogonalEdgeStyle;rounded=0;orthogonalLoop=1;jettySize=auto;html=1;entryX=0;entryY=0.5;entryDx=0;entryDy=0;entryPerimeter=0;strokeWidth=2;strokeColor=#6c8ebf;fillColor=#dae8fc;" parent="5ZNrDJCFBHBHqdxOVkbr-1" source="5ZNrDJCFBHBHqdxOVkbr-22" target="5ZNrDJCFBHBHqdxOVkbr-31" edge="1">
          <mxGeometry relative="1" as="geometry" />
        </mxCell>
        <mxCell id="5ZNrDJCFBHBHqdxOVkbr-33" value="LDAP" style="edgeLabel;html=1;align=center;verticalAlign=middle;resizable=0;points=[];labelBackgroundColor=default;" parent="5ZNrDJCFBHBHqdxOVkbr-32" vertex="1" connectable="0">
          <mxGeometry x="-0.415" y="-4" relative="1" as="geometry">
            <mxPoint x="22" y="-3" as="offset" />
          </mxGeometry>
        </mxCell>
        <mxCell id="5ZNrDJCFBHBHqdxOVkbr-34" value="SCIM" style="text;html=1;align=center;verticalAlign=middle;resizable=0;points=[];autosize=1;strokeColor=none;fillColor=none;fontStyle=1;fontSize=14;" parent="5ZNrDJCFBHBHqdxOVkbr-1" vertex="1">
          <mxGeometry x="610" y="140" width="60" height="30" as="geometry" />
        </mxCell>
        <mxCell id="5ZNrDJCFBHBHqdxOVkbr-35" value="SYNC" style="text;html=1;align=center;verticalAlign=middle;resizable=0;points=[];autosize=1;strokeColor=none;fillColor=none;fontStyle=1;fontSize=14;" parent="5ZNrDJCFBHBHqdxOVkbr-1" vertex="1">
          <mxGeometry x="610" y="370" width="60" height="30" as="geometry" />
        </mxCell>
        <mxCell id="5ZNrDJCFBHBHqdxOVkbr-36" value="UDM" style="text;html=1;align=center;verticalAlign=middle;resizable=0;points=[];autosize=1;strokeColor=none;fillColor=none;fontStyle=1;fontSize=14;" parent="5ZNrDJCFBHBHqdxOVkbr-1" vertex="1">
          <mxGeometry x="620" y="530" width="50" height="30" as="geometry" />
        </mxCell>
        <mxCell id="5ZNrDJCFBHBHqdxOVkbr-29" style="edgeStyle=orthogonalEdgeStyle;rounded=0;orthogonalLoop=1;jettySize=auto;html=1;entryX=0.5;entryY=1;entryDx=0;entryDy=0;startArrow=oval;startFill=1;startSize=8;strokeWidth=2;strokeColor=#FFCC99;" parent="5ZNrDJCFBHBHqdxOVkbr-1" source="5ZNrDJCFBHBHqdxOVkbr-31" target="5ZNrDJCFBHBHqdxOVkbr-18" edge="1">
          <mxGeometry relative="1" as="geometry" />
        </mxCell>
        <mxCell id="5ZNrDJCFBHBHqdxOVkbr-30" value="Event (UDM)" style="edgeLabel;html=1;align=center;verticalAlign=middle;resizable=0;points=[];labelBackgroundColor=default;fontColor=#000000;" parent="5ZNrDJCFBHBHqdxOVkbr-29" vertex="1" connectable="0">
          <mxGeometry x="0.1379" y="-3" relative="1" as="geometry">
            <mxPoint x="-2" y="-11" as="offset" />
          </mxGeometry>
        </mxCell>
        <mxCell id="5ZNrDJCFBHBHqdxOVkbr-5" style="edgeStyle=orthogonalEdgeStyle;rounded=0;orthogonalLoop=1;jettySize=auto;html=1;entryX=0;entryY=0.5;entryDx=0;entryDy=0;startArrow=oval;startFill=1;startSize=8;strokeWidth=2;strokeColor=#6c8ebf;fillColor=#dae8fc;" parent="5ZNrDJCFBHBHqdxOVkbr-1" source="5ZNrDJCFBHBHqdxOVkbr-7" target="5ZNrDJCFBHBHqdxOVkbr-10" edge="1">
          <mxGeometry relative="1" as="geometry" />
        </mxCell>
        <mxCell id="5ZNrDJCFBHBHqdxOVkbr-6" value="SCIM" style="edgeLabel;html=1;align=center;verticalAlign=middle;resizable=0;points=[];labelBackgroundColor=default;fontColor=light-dark(#000000,#EDEDED);" parent="5ZNrDJCFBHBHqdxOVkbr-5" vertex="1" connectable="0">
          <mxGeometry x="0.4315" relative="1" as="geometry">
            <mxPoint x="18" as="offset" />
          </mxGeometry>
        </mxCell>
      </root>
    </mxGraphModel>
  </diagram>
  <diagram name="ms3-udm-write" id="IV5D7p9_RV1A0cDPGzPw">
    <mxGraphModel dx="869" dy="569" grid="1" gridSize="10" guides="1" tooltips="1" connect="1" arrows="1" fold="1" page="1" pageScale="1" pageWidth="1600" pageHeight="900" math="0" shadow="0">
      <root>
        <mxCell id="fgx_yaeqfl2N_mGMnZVt-0" />
        <mxCell id="fgx_yaeqfl2N_mGMnZVt-1" parent="fgx_yaeqfl2N_mGMnZVt-0" />
        <mxCell id="fgx_yaeqfl2N_mGMnZVt-2" value="" style="rounded=1;whiteSpace=wrap;html=1;fillColor=none;strokeColor=#9673a6;" parent="fgx_yaeqfl2N_mGMnZVt-1" vertex="1">
          <mxGeometry x="30" y="180" width="650" height="220" as="geometry" />
        </mxCell>
        <mxCell id="fgx_yaeqfl2N_mGMnZVt-3" value="" style="rounded=1;whiteSpace=wrap;html=1;fillColor=none;strokeColor=#b85450;" parent="fgx_yaeqfl2N_mGMnZVt-1" vertex="1">
          <mxGeometry x="30" y="410" width="650" height="150" as="geometry" />
        </mxCell>
        <mxCell id="fgx_yaeqfl2N_mGMnZVt-4" value="" style="rounded=1;whiteSpace=wrap;html=1;fillColor=none;strokeColor=#d79b00;" parent="fgx_yaeqfl2N_mGMnZVt-1" vertex="1">
          <mxGeometry x="30" y="20" width="650" height="150" as="geometry" />
        </mxCell>
        <mxCell id="fgx_yaeqfl2N_mGMnZVt-10" value="«REST»&lt;div&gt;SCIM&lt;/div&gt;" style="rounded=0;whiteSpace=wrap;html=1;fillColor=#f5f5f5;fontColor=#333333;strokeColor=#666666;" parent="fgx_yaeqfl2N_mGMnZVt-1" vertex="1">
          <mxGeometry x="320" y="60" width="120" height="60" as="geometry" />
        </mxCell>
        <mxCell id="fgx_yaeqfl2N_mGMnZVt-11" style="edgeStyle=orthogonalEdgeStyle;rounded=0;orthogonalLoop=1;jettySize=auto;html=1;entryX=0;entryY=0.75;entryDx=0;entryDy=0;exitX=0.5;exitY=0;exitDx=0;exitDy=0;strokeWidth=2;strokeColor=#6c8ebf;fillColor=#dae8fc;" parent="fgx_yaeqfl2N_mGMnZVt-1" source="fgx_yaeqfl2N_mGMnZVt-13" target="fgx_yaeqfl2N_mGMnZVt-10" edge="1">
          <mxGeometry relative="1" as="geometry" />
        </mxCell>
        <mxCell id="fgx_yaeqfl2N_mGMnZVt-12" value="SCIM" style="edgeLabel;html=1;align=center;verticalAlign=middle;resizable=0;points=[];labelBackgroundColor=default;fontColor=light-dark(#000000,#EDEDED);" parent="fgx_yaeqfl2N_mGMnZVt-11" vertex="1" connectable="0">
          <mxGeometry x="0.0192" y="1" relative="1" as="geometry">
            <mxPoint x="51" y="1" as="offset" />
          </mxGeometry>
        </mxCell>
        <mxCell id="fgx_yaeqfl2N_mGMnZVt-13" value="&lt;div&gt;«Consumer»&lt;br&gt;&lt;/div&gt;UDM to SCIM" style="rounded=0;whiteSpace=wrap;html=1;fillColor=#f5f5f5;fontColor=#333333;strokeColor=#666666;" parent="fgx_yaeqfl2N_mGMnZVt-1" vertex="1">
          <mxGeometry x="140" y="190" width="120" height="60" as="geometry" />
        </mxCell>
        <mxCell id="fgx_yaeqfl2N_mGMnZVt-14" style="edgeStyle=orthogonalEdgeStyle;rounded=0;orthogonalLoop=1;jettySize=auto;html=1;entryX=0.5;entryY=1;entryDx=0;entryDy=0;exitX=0;exitY=0.25;exitDx=0;exitDy=0;strokeWidth=2;strokeColor=#6c8ebf;fillColor=#dae8fc;" parent="fgx_yaeqfl2N_mGMnZVt-1" source="fgx_yaeqfl2N_mGMnZVt-18" target="fgx_yaeqfl2N_mGMnZVt-13" edge="1">
          <mxGeometry relative="1" as="geometry" />
        </mxCell>
        <mxCell id="fgx_yaeqfl2N_mGMnZVt-15" value="Event (UDM)" style="edgeLabel;html=1;align=center;verticalAlign=middle;resizable=0;points=[];labelBackgroundColor=default;fontColor=#000000;" parent="fgx_yaeqfl2N_mGMnZVt-14" vertex="1" connectable="0">
          <mxGeometry x="-0.063" y="-5" relative="1" as="geometry">
            <mxPoint x="21" y="5" as="offset" />
          </mxGeometry>
        </mxCell>
        <mxCell id="fgx_yaeqfl2N_mGMnZVt-16" style="edgeStyle=orthogonalEdgeStyle;rounded=0;orthogonalLoop=1;jettySize=auto;html=1;entryX=0.5;entryY=0;entryDx=0;entryDy=0;exitX=0;exitY=0.75;exitDx=0;exitDy=0;strokeColor=#FFCC99;strokeWidth=2;" parent="fgx_yaeqfl2N_mGMnZVt-1" source="fgx_yaeqfl2N_mGMnZVt-18" target="fgx_yaeqfl2N_mGMnZVt-25" edge="1">
          <mxGeometry relative="1" as="geometry" />
        </mxCell>
        <mxCell id="fgx_yaeqfl2N_mGMnZVt-17" value="Event (SCIM)" style="edgeLabel;html=1;align=center;verticalAlign=middle;resizable=0;points=[];labelBackgroundColor=default;fontColor=#000000;" parent="fgx_yaeqfl2N_mGMnZVt-16" vertex="1" connectable="0">
          <mxGeometry x="0.077" y="5" relative="1" as="geometry">
            <mxPoint x="46" y="-5" as="offset" />
          </mxGeometry>
        </mxCell>
        <mxCell id="fgx_yaeqfl2N_mGMnZVt-18" value="Provisioning" style="rounded=0;whiteSpace=wrap;html=1;fillColor=#f5f5f5;fontColor=#333333;strokeColor=#666666;" parent="fgx_yaeqfl2N_mGMnZVt-1" vertex="1">
          <mxGeometry x="520" y="260" width="120" height="60" as="geometry" />
        </mxCell>
        <mxCell id="fgx_yaeqfl2N_mGMnZVt-19" value="Postgre&lt;div&gt;SQL&lt;/div&gt;" style="shape=cylinder3;whiteSpace=wrap;html=1;boundedLbl=1;backgroundOutline=1;size=15;fillColor=#f5f5f5;strokeColor=#666666;fontColor=#333333;" parent="fgx_yaeqfl2N_mGMnZVt-1" vertex="1">
          <mxGeometry x="600" y="50" width="60" height="80" as="geometry" />
        </mxCell>
        <mxCell id="fgx_yaeqfl2N_mGMnZVt-20" style="edgeStyle=orthogonalEdgeStyle;rounded=0;orthogonalLoop=1;jettySize=auto;html=1;entryX=0;entryY=0.5;entryDx=0;entryDy=0;entryPerimeter=0;exitX=1;exitY=0.5;exitDx=0;exitDy=0;strokeWidth=2;strokeColor=#6c8ebf;fillColor=#dae8fc;" parent="fgx_yaeqfl2N_mGMnZVt-1" source="fgx_yaeqfl2N_mGMnZVt-10" target="fgx_yaeqfl2N_mGMnZVt-19" edge="1">
          <mxGeometry relative="1" as="geometry" />
        </mxCell>
        <mxCell id="fgx_yaeqfl2N_mGMnZVt-21" value="SQL" style="edgeLabel;html=1;align=center;verticalAlign=middle;resizable=0;points=[];labelBackgroundColor=default;fontColor=light-dark(#000000,#EDEDED);" parent="fgx_yaeqfl2N_mGMnZVt-20" vertex="1" connectable="0">
          <mxGeometry x="-0.1911" y="-1" relative="1" as="geometry">
            <mxPoint as="offset" />
          </mxGeometry>
        </mxCell>
        <mxCell id="fgx_yaeqfl2N_mGMnZVt-22" value="«REST»&lt;div&gt;UDM&lt;/div&gt;" style="rounded=0;whiteSpace=wrap;html=1;fillColor=#f5f5f5;fontColor=#333333;strokeColor=#666666;" parent="fgx_yaeqfl2N_mGMnZVt-1" vertex="1">
          <mxGeometry x="320" y="450" width="120" height="60" as="geometry" />
        </mxCell>
        <mxCell id="fgx_yaeqfl2N_mGMnZVt-23" style="edgeStyle=orthogonalEdgeStyle;rounded=0;orthogonalLoop=1;jettySize=auto;html=1;entryX=0;entryY=0.25;entryDx=0;entryDy=0;exitX=0.5;exitY=1;exitDx=0;exitDy=0;strokeColor=#FFCC99;strokeWidth=2;" parent="fgx_yaeqfl2N_mGMnZVt-1" source="fgx_yaeqfl2N_mGMnZVt-25" target="fgx_yaeqfl2N_mGMnZVt-22" edge="1">
          <mxGeometry relative="1" as="geometry">
            <Array as="points">
              <mxPoint x="200" y="465" />
            </Array>
          </mxGeometry>
        </mxCell>
        <mxCell id="fgx_yaeqfl2N_mGMnZVt-24" value="UDM" style="edgeLabel;html=1;align=center;verticalAlign=middle;resizable=0;points=[];labelBackgroundColor=default;" parent="fgx_yaeqfl2N_mGMnZVt-23" vertex="1" connectable="0">
          <mxGeometry x="0.0833" y="-1" relative="1" as="geometry">
            <mxPoint x="29" y="-1" as="offset" />
          </mxGeometry>
        </mxCell>
        <mxCell id="fgx_yaeqfl2N_mGMnZVt-25" value="«Consumer»&lt;div&gt;SCIM to UDM&lt;/div&gt;" style="rounded=0;whiteSpace=wrap;html=1;fillColor=#f5f5f5;fontColor=#333333;strokeColor=#666666;" parent="fgx_yaeqfl2N_mGMnZVt-1" vertex="1">
          <mxGeometry x="140" y="330" width="120" height="60" as="geometry" />
        </mxCell>
        <mxCell id="fgx_yaeqfl2N_mGMnZVt-28" value="UDM&lt;br&gt;client" style="shape=umlActor;verticalLabelPosition=bottom;verticalAlign=top;html=1;outlineConnect=0;fillColor=#f5f5f5;fontColor=#333333;strokeColor=#666666;" parent="fgx_yaeqfl2N_mGMnZVt-1" vertex="1">
          <mxGeometry x="50" y="450" width="30" height="60" as="geometry" />
        </mxCell>
        <mxCell id="fgx_yaeqfl2N_mGMnZVt-29" style="edgeStyle=orthogonalEdgeStyle;rounded=0;orthogonalLoop=1;jettySize=auto;html=1;entryX=0.5;entryY=1;entryDx=0;entryDy=0;strokeWidth=2;strokeColor=#6c8ebf;fillColor=#dae8fc;" parent="fgx_yaeqfl2N_mGMnZVt-1" source="fgx_yaeqfl2N_mGMnZVt-31" target="fgx_yaeqfl2N_mGMnZVt-18" edge="1">
          <mxGeometry relative="1" as="geometry" />
        </mxCell>
        <mxCell id="fgx_yaeqfl2N_mGMnZVt-30" value="Event (UDM)" style="edgeLabel;html=1;align=center;verticalAlign=middle;resizable=0;points=[];labelBackgroundColor=default;fontColor=#000000;" parent="fgx_yaeqfl2N_mGMnZVt-29" vertex="1" connectable="0">
          <mxGeometry x="0.1379" y="-3" relative="1" as="geometry">
            <mxPoint x="-2" y="-11" as="offset" />
          </mxGeometry>
        </mxCell>
        <mxCell id="fgx_yaeqfl2N_mGMnZVt-31" value="Open&lt;br&gt;LDAP" style="shape=cylinder3;whiteSpace=wrap;html=1;boundedLbl=1;backgroundOutline=1;size=15;fillColor=#f5f5f5;fontColor=#333333;strokeColor=#666666;" parent="fgx_yaeqfl2N_mGMnZVt-1" vertex="1">
          <mxGeometry x="550" y="440" width="60" height="80" as="geometry" />
        </mxCell>
        <mxCell id="fgx_yaeqfl2N_mGMnZVt-32" style="edgeStyle=orthogonalEdgeStyle;rounded=0;orthogonalLoop=1;jettySize=auto;html=1;entryX=0;entryY=0.5;entryDx=0;entryDy=0;entryPerimeter=0;strokeWidth=2;strokeColor=#6c8ebf;fillColor=#dae8fc;" parent="fgx_yaeqfl2N_mGMnZVt-1" source="fgx_yaeqfl2N_mGMnZVt-22" target="fgx_yaeqfl2N_mGMnZVt-31" edge="1">
          <mxGeometry relative="1" as="geometry" />
        </mxCell>
        <mxCell id="fgx_yaeqfl2N_mGMnZVt-33" value="LDAP" style="edgeLabel;html=1;align=center;verticalAlign=middle;resizable=0;points=[];labelBackgroundColor=default;" parent="fgx_yaeqfl2N_mGMnZVt-32" vertex="1" connectable="0">
          <mxGeometry x="-0.415" y="-4" relative="1" as="geometry">
            <mxPoint x="22" y="-3" as="offset" />
          </mxGeometry>
        </mxCell>
        <mxCell id="fgx_yaeqfl2N_mGMnZVt-34" value="SCIM" style="text;html=1;align=center;verticalAlign=middle;resizable=0;points=[];autosize=1;strokeColor=none;fillColor=none;fontStyle=1;fontSize=14;" parent="fgx_yaeqfl2N_mGMnZVt-1" vertex="1">
          <mxGeometry x="610" y="140" width="60" height="30" as="geometry" />
        </mxCell>
        <mxCell id="fgx_yaeqfl2N_mGMnZVt-35" value="SYNC" style="text;html=1;align=center;verticalAlign=middle;resizable=0;points=[];autosize=1;strokeColor=none;fillColor=none;fontStyle=1;fontSize=14;" parent="fgx_yaeqfl2N_mGMnZVt-1" vertex="1">
          <mxGeometry x="610" y="370" width="60" height="30" as="geometry" />
        </mxCell>
        <mxCell id="fgx_yaeqfl2N_mGMnZVt-36" value="UDM" style="text;html=1;align=center;verticalAlign=middle;resizable=0;points=[];autosize=1;strokeColor=none;fillColor=none;fontStyle=1;fontSize=14;" parent="fgx_yaeqfl2N_mGMnZVt-1" vertex="1">
          <mxGeometry x="620" y="530" width="50" height="30" as="geometry" />
        </mxCell>
        <mxCell id="fgx_yaeqfl2N_mGMnZVt-8" style="edgeStyle=orthogonalEdgeStyle;rounded=0;orthogonalLoop=1;jettySize=auto;html=1;entryX=0.5;entryY=0;entryDx=0;entryDy=0;exitX=1;exitY=0.75;exitDx=0;exitDy=0;startArrow=oval;startFill=1;strokeColor=#FFCC99;strokeWidth=2;endSize=6;startSize=8;" parent="fgx_yaeqfl2N_mGMnZVt-1" source="fgx_yaeqfl2N_mGMnZVt-10" target="fgx_yaeqfl2N_mGMnZVt-18" edge="1">
          <mxGeometry relative="1" as="geometry" />
        </mxCell>
        <mxCell id="fgx_yaeqfl2N_mGMnZVt-9" value="Event (SCIM)" style="edgeLabel;html=1;align=center;verticalAlign=middle;resizable=0;points=[];labelBackgroundColor=default;fontColor=#000000;" parent="fgx_yaeqfl2N_mGMnZVt-8" vertex="1" connectable="0">
          <mxGeometry x="0.5173" y="2" relative="1" as="geometry">
            <mxPoint x="-1" y="29" as="offset" />
          </mxGeometry>
        </mxCell>
        <mxCell id="fgx_yaeqfl2N_mGMnZVt-26" style="edgeStyle=orthogonalEdgeStyle;rounded=0;orthogonalLoop=1;jettySize=auto;html=1;entryX=0;entryY=0.5;entryDx=0;entryDy=0;startArrow=oval;startFill=1;strokeWidth=2;strokeColor=#6c8ebf;startSize=8;fillColor=#dae8fc;" parent="fgx_yaeqfl2N_mGMnZVt-1" source="fgx_yaeqfl2N_mGMnZVt-28" target="fgx_yaeqfl2N_mGMnZVt-22" edge="1">
          <mxGeometry relative="1" as="geometry" />
        </mxCell>
        <mxCell id="fgx_yaeqfl2N_mGMnZVt-27" value="UDM" style="edgeLabel;html=1;align=center;verticalAlign=middle;resizable=0;points=[];labelBackgroundColor=default;" parent="fgx_yaeqfl2N_mGMnZVt-26" vertex="1" connectable="0">
          <mxGeometry x="0.4865" y="-2" relative="1" as="geometry">
            <mxPoint x="1" as="offset" />
          </mxGeometry>
        </mxCell>
      </root>
    </mxGraphModel>
  </diagram>
  <diagram id="w-LPQbOuyVNrG4i4yZtp" name="ms3-details-WIP">
    <mxGraphModel dx="1434" dy="1735" grid="1" gridSize="10" guides="1" tooltips="1" connect="1" arrows="1" fold="1" page="1" pageScale="1" pageWidth="1600" pageHeight="900" math="0" shadow="0">
      <root>
        <mxCell id="0" />
        <mxCell id="1" parent="0" />
        <mxCell id="sbu4HOVK3ykJ8sX12Taf-1" style="edgeStyle=orthogonalEdgeStyle;rounded=0;orthogonalLoop=1;jettySize=auto;html=1;entryX=0;entryY=0.5;entryDx=0;entryDy=0;exitX=0.5;exitY=0;exitDx=0;exitDy=0;" parent="1" source="sbu4HOVK3ykJ8sX12Taf-2" target="sbu4HOVK3ykJ8sX12Taf-5" edge="1">
          <mxGeometry relative="1" as="geometry" />
        </mxCell>
        <mxCell id="sbu4HOVK3ykJ8sX12Taf-50" style="edgeStyle=orthogonalEdgeStyle;rounded=0;orthogonalLoop=1;jettySize=auto;html=1;entryX=0;entryY=0.5;entryDx=0;entryDy=0;" parent="1" source="sbu4HOVK3ykJ8sX12Taf-2" target="sbu4HOVK3ykJ8sX12Taf-25" edge="1">
          <mxGeometry relative="1" as="geometry" />
        </mxCell>
        <mxCell id="sbu4HOVK3ykJ8sX12Taf-51" style="edgeStyle=orthogonalEdgeStyle;rounded=0;orthogonalLoop=1;jettySize=auto;html=1;entryX=0;entryY=0.5;entryDx=0;entryDy=0;" parent="1" source="sbu4HOVK3ykJ8sX12Taf-2" target="sbu4HOVK3ykJ8sX12Taf-31" edge="1">
          <mxGeometry relative="1" as="geometry" />
        </mxCell>
        <mxCell id="sbu4HOVK3ykJ8sX12Taf-2" value="SCIM&lt;div&gt;REST API&lt;/div&gt;" style="rounded=0;whiteSpace=wrap;html=1;" parent="1" vertex="1">
          <mxGeometry x="150" y="130" width="120" height="60" as="geometry" />
        </mxCell>
        <mxCell id="sbu4HOVK3ykJ8sX12Taf-3" style="edgeStyle=orthogonalEdgeStyle;rounded=0;orthogonalLoop=1;jettySize=auto;html=1;entryX=0;entryY=0.5;entryDx=0;entryDy=0;" parent="1" source="sbu4HOVK3ykJ8sX12Taf-4" target="sbu4HOVK3ykJ8sX12Taf-2" edge="1">
          <mxGeometry relative="1" as="geometry" />
        </mxCell>
        <mxCell id="sbu4HOVK3ykJ8sX12Taf-4" value="SCIM client" style="shape=umlActor;verticalLabelPosition=bottom;verticalAlign=top;html=1;outlineConnect=0;" parent="1" vertex="1">
          <mxGeometry x="30" y="130" width="30" height="60" as="geometry" />
        </mxCell>
        <mxCell id="sbu4HOVK3ykJ8sX12Taf-5" value="Model&lt;br&gt;service" style="rounded=0;whiteSpace=wrap;html=1;" parent="1" vertex="1">
          <mxGeometry x="340" y="-50" width="120" height="60" as="geometry" />
        </mxCell>
        <mxCell id="sbu4HOVK3ykJ8sX12Taf-6" value="Model&lt;div&gt;DB&lt;/div&gt;" style="shape=cylinder3;whiteSpace=wrap;html=1;boundedLbl=1;backgroundOutline=1;size=15;" parent="1" vertex="1">
          <mxGeometry x="560" y="-60" width="60" height="80" as="geometry" />
        </mxCell>
        <mxCell id="sbu4HOVK3ykJ8sX12Taf-7" style="edgeStyle=orthogonalEdgeStyle;rounded=0;orthogonalLoop=1;jettySize=auto;html=1;entryX=0;entryY=0.5;entryDx=0;entryDy=0;entryPerimeter=0;" parent="1" source="sbu4HOVK3ykJ8sX12Taf-5" target="sbu4HOVK3ykJ8sX12Taf-6" edge="1">
          <mxGeometry relative="1" as="geometry" />
        </mxCell>
        <mxCell id="sbu4HOVK3ykJ8sX12Taf-8" value="SQL&lt;div&gt;schema&lt;/div&gt;" style="rounded=0;whiteSpace=wrap;html=1;" parent="1" vertex="1">
          <mxGeometry x="480" y="-170" width="120" height="60" as="geometry" />
        </mxCell>
        <mxCell id="sbu4HOVK3ykJ8sX12Taf-9" value="SCIM&lt;div&gt;schema&lt;/div&gt;" style="rounded=0;whiteSpace=wrap;html=1;" parent="1" vertex="1">
          <mxGeometry x="340" y="-170" width="120" height="60" as="geometry" />
        </mxCell>
        <mxCell id="sbu4HOVK3ykJ8sX12Taf-10" value="" style="endArrow=none;html=1;endSize=12;startArrow=diamondThin;startSize=14;startFill=1;edgeStyle=orthogonalEdgeStyle;align=left;verticalAlign=bottom;rounded=0;exitX=0.5;exitY=0;exitDx=0;exitDy=0;entryX=0.5;entryY=1;entryDx=0;entryDy=0;endFill=0;" parent="1" source="sbu4HOVK3ykJ8sX12Taf-5" target="sbu4HOVK3ykJ8sX12Taf-9" edge="1">
          <mxGeometry relative="1" as="geometry">
            <mxPoint x="300" y="260" as="sourcePoint" />
            <mxPoint x="460" y="260" as="targetPoint" />
          </mxGeometry>
        </mxCell>
        <mxCell id="sbu4HOVK3ykJ8sX12Taf-11" value="" style="endArrow=none;html=1;endSize=12;startArrow=diamondThin;startSize=14;startFill=1;edgeStyle=orthogonalEdgeStyle;align=left;verticalAlign=bottom;rounded=0;exitX=0.5;exitY=0;exitDx=0;exitDy=0;entryX=0.5;entryY=1;entryDx=0;entryDy=0;endFill=0;" parent="1" source="sbu4HOVK3ykJ8sX12Taf-5" target="sbu4HOVK3ykJ8sX12Taf-8" edge="1">
          <mxGeometry relative="1" as="geometry">
            <mxPoint x="290" y="280" as="sourcePoint" />
            <mxPoint x="370" y="320" as="targetPoint" />
          </mxGeometry>
        </mxCell>
        <mxCell id="sbu4HOVK3ykJ8sX12Taf-13" value="SCIM UDM&lt;div&gt;Mapping&lt;/div&gt;" style="rounded=0;whiteSpace=wrap;html=1;" parent="1" vertex="1">
          <mxGeometry x="200" y="-170" width="120" height="60" as="geometry" />
        </mxCell>
        <mxCell id="sbu4HOVK3ykJ8sX12Taf-14" value="" style="endArrow=none;html=1;endSize=12;startArrow=diamondThin;startSize=14;startFill=1;edgeStyle=orthogonalEdgeStyle;align=left;verticalAlign=bottom;rounded=0;exitX=0.5;exitY=0;exitDx=0;exitDy=0;entryX=0.5;entryY=1;entryDx=0;entryDy=0;endFill=0;" parent="1" source="sbu4HOVK3ykJ8sX12Taf-5" target="sbu4HOVK3ykJ8sX12Taf-13" edge="1">
          <mxGeometry x="-1" y="3" relative="1" as="geometry">
            <mxPoint x="290" y="280" as="sourcePoint" />
            <mxPoint x="410" y="380" as="targetPoint" />
            <mxPoint as="offset" />
          </mxGeometry>
        </mxCell>
        <mxCell id="sbu4HOVK3ykJ8sX12Taf-57" style="edgeStyle=orthogonalEdgeStyle;rounded=0;orthogonalLoop=1;jettySize=auto;html=1;entryX=0;entryY=0.25;entryDx=0;entryDy=0;exitX=1;exitY=0.5;exitDx=0;exitDy=0;" parent="1" source="sbu4HOVK3ykJ8sX12Taf-17" target="sbu4HOVK3ykJ8sX12Taf-42" edge="1">
          <mxGeometry relative="1" as="geometry">
            <Array as="points">
              <mxPoint x="890" y="430" />
              <mxPoint x="890" y="180" />
              <mxPoint x="540" y="180" />
              <mxPoint x="540" y="215" />
            </Array>
          </mxGeometry>
        </mxCell>
        <mxCell id="sbu4HOVK3ykJ8sX12Taf-17" value="SCIM 2 UDM&lt;div&gt;Consumer&lt;/div&gt;" style="rounded=0;whiteSpace=wrap;html=1;" parent="1" vertex="1">
          <mxGeometry x="710" y="400" width="120" height="60" as="geometry" />
        </mxCell>
        <mxCell id="sbu4HOVK3ykJ8sX12Taf-18" value="Metrics&lt;div&gt;DB&lt;/div&gt;" style="shape=cylinder3;whiteSpace=wrap;html=1;boundedLbl=1;backgroundOutline=1;size=15;" parent="1" vertex="1">
          <mxGeometry x="370" y="545" width="60" height="80" as="geometry" />
        </mxCell>
        <mxCell id="sbu4HOVK3ykJ8sX12Taf-19" style="edgeStyle=orthogonalEdgeStyle;rounded=0;orthogonalLoop=1;jettySize=auto;html=1;entryX=1;entryY=0.5;entryDx=0;entryDy=0;entryPerimeter=0;exitX=0;exitY=0.5;exitDx=0;exitDy=0;" parent="1" source="sbu4HOVK3ykJ8sX12Taf-20" target="sbu4HOVK3ykJ8sX12Taf-18" edge="1">
          <mxGeometry relative="1" as="geometry" />
        </mxCell>
        <mxCell id="sbu4HOVK3ykJ8sX12Taf-20" value="Metrics&lt;div&gt;service&lt;/div&gt;" style="rounded=0;whiteSpace=wrap;html=1;" parent="1" vertex="1">
          <mxGeometry x="510" y="555" width="120" height="60" as="geometry" />
        </mxCell>
        <mxCell id="sbu4HOVK3ykJ8sX12Taf-21" value="Prometheus&lt;div&gt;metrics&amp;nbsp;&lt;span style=&quot;background-color: transparent; color: light-dark(rgb(0, 0, 0), rgb(255, 255, 255));&quot;&gt;endpoint&lt;/span&gt;&lt;/div&gt;" style="rounded=0;whiteSpace=wrap;html=1;" parent="1" vertex="1">
          <mxGeometry x="150" y="555" width="120" height="60" as="geometry" />
        </mxCell>
        <mxCell id="sbu4HOVK3ykJ8sX12Taf-22" style="edgeStyle=orthogonalEdgeStyle;rounded=0;orthogonalLoop=1;jettySize=auto;html=1;entryX=0;entryY=0.5;entryDx=0;entryDy=0;entryPerimeter=0;" parent="1" source="sbu4HOVK3ykJ8sX12Taf-21" target="sbu4HOVK3ykJ8sX12Taf-18" edge="1">
          <mxGeometry relative="1" as="geometry" />
        </mxCell>
        <mxCell id="sbu4HOVK3ykJ8sX12Taf-23" style="edgeStyle=orthogonalEdgeStyle;rounded=0;orthogonalLoop=1;jettySize=auto;html=1;entryX=0;entryY=0.5;entryDx=0;entryDy=0;" parent="1" source="sbu4HOVK3ykJ8sX12Taf-24" target="sbu4HOVK3ykJ8sX12Taf-21" edge="1">
          <mxGeometry relative="1" as="geometry" />
        </mxCell>
        <mxCell id="sbu4HOVK3ykJ8sX12Taf-24" value="Prometheus&lt;div&gt;compatible&lt;/div&gt;&lt;div&gt;scraper&lt;/div&gt;" style="shape=umlActor;verticalLabelPosition=bottom;verticalAlign=top;html=1;outlineConnect=0;" parent="1" vertex="1">
          <mxGeometry x="30" y="555" width="30" height="60" as="geometry" />
        </mxCell>
        <mxCell id="au7LakzrXnYAcn_M6BcH-4" style="edgeStyle=orthogonalEdgeStyle;rounded=0;orthogonalLoop=1;jettySize=auto;html=1;entryX=0;entryY=0.5;entryDx=0;entryDy=0;" parent="1" source="sbu4HOVK3ykJ8sX12Taf-25" target="au7LakzrXnYAcn_M6BcH-2" edge="1">
          <mxGeometry relative="1" as="geometry" />
        </mxCell>
        <mxCell id="au7LakzrXnYAcn_M6BcH-5" style="edgeStyle=orthogonalEdgeStyle;rounded=0;orthogonalLoop=1;jettySize=auto;html=1;entryX=0.5;entryY=1;entryDx=0;entryDy=0;" parent="1" source="sbu4HOVK3ykJ8sX12Taf-25" target="sbu4HOVK3ykJ8sX12Taf-5" edge="1">
          <mxGeometry relative="1" as="geometry" />
        </mxCell>
        <mxCell id="sbu4HOVK3ykJ8sX12Taf-25" value="Read&lt;div&gt;backend&lt;/div&gt;" style="rounded=0;whiteSpace=wrap;html=1;" parent="1" vertex="1">
          <mxGeometry x="340" y="60" width="120" height="60" as="geometry" />
        </mxCell>
        <mxCell id="sbu4HOVK3ykJ8sX12Taf-33" style="edgeStyle=orthogonalEdgeStyle;rounded=0;orthogonalLoop=1;jettySize=auto;html=1;entryX=1;entryY=0.5;entryDx=0;entryDy=0;" parent="1" source="sbu4HOVK3ykJ8sX12Taf-27" target="sbu4HOVK3ykJ8sX12Taf-20" edge="1">
          <mxGeometry relative="1" as="geometry" />
        </mxCell>
        <mxCell id="sbu4HOVK3ykJ8sX12Taf-27" value="SCIM&amp;nbsp;&lt;span style=&quot;background-color: transparent; color: light-dark(rgb(0, 0, 0), rgb(255, 255, 255));&quot;&gt;REST API&lt;/span&gt;" style="rounded=0;whiteSpace=wrap;html=1;" parent="1" vertex="1">
          <mxGeometry x="680" y="500" width="120" height="20" as="geometry" />
        </mxCell>
        <mxCell id="sbu4HOVK3ykJ8sX12Taf-34" style="edgeStyle=orthogonalEdgeStyle;rounded=0;orthogonalLoop=1;jettySize=auto;html=1;entryX=1;entryY=0.5;entryDx=0;entryDy=0;" parent="1" source="sbu4HOVK3ykJ8sX12Taf-28" target="sbu4HOVK3ykJ8sX12Taf-20" edge="1">
          <mxGeometry relative="1" as="geometry" />
        </mxCell>
        <mxCell id="sbu4HOVK3ykJ8sX12Taf-28" value="Read backend" style="rounded=0;whiteSpace=wrap;html=1;" parent="1" vertex="1">
          <mxGeometry x="680" y="530" width="120" height="20" as="geometry" />
        </mxCell>
        <mxCell id="sbu4HOVK3ykJ8sX12Taf-36" style="edgeStyle=orthogonalEdgeStyle;rounded=0;orthogonalLoop=1;jettySize=auto;html=1;entryX=1;entryY=0.5;entryDx=0;entryDy=0;" parent="1" source="sbu4HOVK3ykJ8sX12Taf-29" target="sbu4HOVK3ykJ8sX12Taf-20" edge="1">
          <mxGeometry relative="1" as="geometry" />
        </mxCell>
        <mxCell id="sbu4HOVK3ykJ8sX12Taf-29" value="Model service" style="rounded=0;whiteSpace=wrap;html=1;" parent="1" vertex="1">
          <mxGeometry x="680" y="590" width="120" height="20" as="geometry" />
        </mxCell>
        <mxCell id="sbu4HOVK3ykJ8sX12Taf-37" style="edgeStyle=orthogonalEdgeStyle;rounded=0;orthogonalLoop=1;jettySize=auto;html=1;entryX=1;entryY=0.5;entryDx=0;entryDy=0;" parent="1" source="sbu4HOVK3ykJ8sX12Taf-30" target="sbu4HOVK3ykJ8sX12Taf-20" edge="1">
          <mxGeometry relative="1" as="geometry" />
        </mxCell>
        <mxCell id="sbu4HOVK3ykJ8sX12Taf-30" value="U2S&amp;nbsp;&lt;span style=&quot;background-color: transparent; color: light-dark(rgb(0, 0, 0), rgb(255, 255, 255));&quot;&gt;Consumer&lt;/span&gt;" style="rounded=0;whiteSpace=wrap;html=1;" parent="1" vertex="1">
          <mxGeometry x="680" y="620" width="120" height="20" as="geometry" />
        </mxCell>
        <mxCell id="sbu4HOVK3ykJ8sX12Taf-49" style="edgeStyle=orthogonalEdgeStyle;rounded=0;orthogonalLoop=1;jettySize=auto;html=1;entryX=0;entryY=0.5;entryDx=0;entryDy=0;exitX=1;exitY=0.5;exitDx=0;exitDy=0;" parent="1" source="sbu4HOVK3ykJ8sX12Taf-31" target="sbu4HOVK3ykJ8sX12Taf-42" edge="1">
          <mxGeometry relative="1" as="geometry">
            <mxPoint x="510" y="310" as="targetPoint" />
            <Array as="points">
              <mxPoint x="520" y="230" />
              <mxPoint x="520" y="230" />
            </Array>
          </mxGeometry>
        </mxCell>
        <mxCell id="au7LakzrXnYAcn_M6BcH-6" style="edgeStyle=orthogonalEdgeStyle;rounded=0;orthogonalLoop=1;jettySize=auto;html=1;entryX=0.25;entryY=1;entryDx=0;entryDy=0;" parent="1" source="sbu4HOVK3ykJ8sX12Taf-31" target="sbu4HOVK3ykJ8sX12Taf-5" edge="1">
          <mxGeometry relative="1" as="geometry" />
        </mxCell>
        <mxCell id="sbu4HOVK3ykJ8sX12Taf-31" value="Write&lt;div&gt;backend&lt;/div&gt;" style="rounded=0;whiteSpace=wrap;html=1;" parent="1" vertex="1">
          <mxGeometry x="340" y="200" width="120" height="60" as="geometry" />
        </mxCell>
        <mxCell id="sbu4HOVK3ykJ8sX12Taf-35" style="edgeStyle=orthogonalEdgeStyle;rounded=0;orthogonalLoop=1;jettySize=auto;html=1;entryX=1;entryY=0.5;entryDx=0;entryDy=0;" parent="1" source="sbu4HOVK3ykJ8sX12Taf-32" target="sbu4HOVK3ykJ8sX12Taf-20" edge="1">
          <mxGeometry relative="1" as="geometry" />
        </mxCell>
        <mxCell id="sbu4HOVK3ykJ8sX12Taf-32" value="Write&amp;nbsp; backend" style="rounded=0;whiteSpace=wrap;html=1;" parent="1" vertex="1">
          <mxGeometry x="680" y="560" width="120" height="20" as="geometry" />
        </mxCell>
        <mxCell id="sbu4HOVK3ykJ8sX12Taf-55" style="edgeStyle=orthogonalEdgeStyle;rounded=0;orthogonalLoop=1;jettySize=auto;html=1;entryX=0;entryY=0.75;entryDx=0;entryDy=0;exitX=0;exitY=0.5;exitDx=0;exitDy=0;" parent="1" source="sbu4HOVK3ykJ8sX12Taf-38" target="sbu4HOVK3ykJ8sX12Taf-2" edge="1">
          <mxGeometry relative="1" as="geometry">
            <Array as="points">
              <mxPoint x="110" y="430" />
              <mxPoint x="110" y="175" />
            </Array>
          </mxGeometry>
        </mxCell>
        <mxCell id="sbu4HOVK3ykJ8sX12Taf-38" value="UDM 2 SCIM&lt;div&gt;Consumer&lt;/div&gt;" style="rounded=0;whiteSpace=wrap;html=1;" parent="1" vertex="1">
          <mxGeometry x="340" y="400" width="120" height="60" as="geometry" />
        </mxCell>
        <mxCell id="sbu4HOVK3ykJ8sX12Taf-40" style="edgeStyle=orthogonalEdgeStyle;rounded=0;orthogonalLoop=1;jettySize=auto;html=1;entryX=1;entryY=0.5;entryDx=0;entryDy=0;" parent="1" source="sbu4HOVK3ykJ8sX12Taf-39" target="sbu4HOVK3ykJ8sX12Taf-20" edge="1">
          <mxGeometry relative="1" as="geometry" />
        </mxCell>
        <mxCell id="sbu4HOVK3ykJ8sX12Taf-39" value="S2U&amp;nbsp;&lt;span style=&quot;background-color: transparent; color: light-dark(rgb(0, 0, 0), rgb(255, 255, 255));&quot;&gt;Consumer&lt;/span&gt;" style="rounded=0;whiteSpace=wrap;html=1;" parent="1" vertex="1">
          <mxGeometry x="680" y="650" width="120" height="20" as="geometry" />
        </mxCell>
        <mxCell id="sbu4HOVK3ykJ8sX12Taf-42" value="UDM&lt;div&gt;REST API&lt;/div&gt;" style="rounded=0;whiteSpace=wrap;html=1;" parent="1" vertex="1">
          <mxGeometry x="570" y="200" width="120" height="60" as="geometry" />
        </mxCell>
        <mxCell id="sbu4HOVK3ykJ8sX12Taf-58" style="edgeStyle=orthogonalEdgeStyle;rounded=0;orthogonalLoop=1;jettySize=auto;html=1;entryX=0.75;entryY=0;entryDx=0;entryDy=0;jumpStyle=arc;" parent="1" source="sbu4HOVK3ykJ8sX12Taf-43" target="sbu4HOVK3ykJ8sX12Taf-52" edge="1">
          <mxGeometry relative="1" as="geometry">
            <Array as="points">
              <mxPoint x="850" y="230" />
              <mxPoint x="850" y="290" />
              <mxPoint x="660" y="290" />
            </Array>
          </mxGeometry>
        </mxCell>
        <mxCell id="sbu4HOVK3ykJ8sX12Taf-43" value="LDAP" style="shape=cylinder3;whiteSpace=wrap;html=1;boundedLbl=1;backgroundOutline=1;size=15;" parent="1" vertex="1">
          <mxGeometry x="760" y="190" width="60" height="80" as="geometry" />
        </mxCell>
        <mxCell id="sbu4HOVK3ykJ8sX12Taf-44" style="edgeStyle=orthogonalEdgeStyle;rounded=0;orthogonalLoop=1;jettySize=auto;html=1;entryX=0;entryY=0.5;entryDx=0;entryDy=0;entryPerimeter=0;" parent="1" source="sbu4HOVK3ykJ8sX12Taf-42" target="sbu4HOVK3ykJ8sX12Taf-43" edge="1">
          <mxGeometry relative="1" as="geometry" />
        </mxCell>
        <mxCell id="sbu4HOVK3ykJ8sX12Taf-46" value="SCIM&lt;div&gt;DB&lt;/div&gt;" style="shape=cylinder3;whiteSpace=wrap;html=1;boundedLbl=1;backgroundOutline=1;size=15;" parent="1" vertex="1">
          <mxGeometry x="600" y="80" width="60" height="80" as="geometry" />
        </mxCell>
        <mxCell id="sbu4HOVK3ykJ8sX12Taf-48" style="edgeStyle=orthogonalEdgeStyle;rounded=0;orthogonalLoop=1;jettySize=auto;html=1;entryX=0;entryY=0.5;entryDx=0;entryDy=0;exitX=1;exitY=0.5;exitDx=0;exitDy=0;" parent="1" source="au7LakzrXnYAcn_M6BcH-1" target="sbu4HOVK3ykJ8sX12Taf-42" edge="1">
          <mxGeometry relative="1" as="geometry" />
        </mxCell>
        <mxCell id="sbu4HOVK3ykJ8sX12Taf-54" style="edgeStyle=orthogonalEdgeStyle;rounded=0;orthogonalLoop=1;jettySize=auto;html=1;entryX=1;entryY=0.5;entryDx=0;entryDy=0;exitX=0.25;exitY=1;exitDx=0;exitDy=0;" parent="1" source="sbu4HOVK3ykJ8sX12Taf-52" target="sbu4HOVK3ykJ8sX12Taf-38" edge="1">
          <mxGeometry relative="1" as="geometry" />
        </mxCell>
        <mxCell id="sbu4HOVK3ykJ8sX12Taf-56" style="edgeStyle=orthogonalEdgeStyle;rounded=0;orthogonalLoop=1;jettySize=auto;html=1;entryX=0;entryY=0.5;entryDx=0;entryDy=0;exitX=0.75;exitY=1;exitDx=0;exitDy=0;" parent="1" source="sbu4HOVK3ykJ8sX12Taf-52" target="sbu4HOVK3ykJ8sX12Taf-17" edge="1">
          <mxGeometry relative="1" as="geometry" />
        </mxCell>
        <mxCell id="sbu4HOVK3ykJ8sX12Taf-52" value="Provisioning" style="rounded=0;whiteSpace=wrap;html=1;" parent="1" vertex="1">
          <mxGeometry x="570" y="330" width="120" height="60" as="geometry" />
        </mxCell>
        <mxCell id="au7LakzrXnYAcn_M6BcH-2" value="SQL" style="rounded=0;whiteSpace=wrap;html=1;" parent="1" vertex="1">
          <mxGeometry x="490" y="50" width="60" height="60" as="geometry" />
        </mxCell>
        <mxCell id="au7LakzrXnYAcn_M6BcH-3" value="" style="edgeStyle=orthogonalEdgeStyle;rounded=0;orthogonalLoop=1;jettySize=auto;html=1;entryX=0;entryY=0.5;entryDx=0;entryDy=0;exitX=1;exitY=0.5;exitDx=0;exitDy=0;" parent="1" source="sbu4HOVK3ykJ8sX12Taf-25" target="au7LakzrXnYAcn_M6BcH-1" edge="1">
          <mxGeometry relative="1" as="geometry">
            <mxPoint x="460" y="90" as="sourcePoint" />
            <mxPoint x="570" y="230" as="targetPoint" />
          </mxGeometry>
        </mxCell>
        <mxCell id="au7LakzrXnYAcn_M6BcH-1" value="UDM&lt;div&gt;backend&lt;/div&gt;" style="rounded=0;whiteSpace=wrap;html=1;" parent="1" vertex="1">
          <mxGeometry x="490" y="110" width="60" height="60" as="geometry" />
        </mxCell>
      </root>
    </mxGraphModel>
  </diagram>
</mxfile>
